# FamiTracker text export 0.4.2

# Song information
TITLE           "Yun"
AUTHOR          "na_th_an"
COPYRIGHT       "The Mojon Twins"

# Song comment
COMMENT ""

# Global settings
MACHINE         0
FRAMERATE       0
EXPANSION       0
VIBRATO         1
SPLIT           21

# Macros
MACRO       0   0  -1  -1   0 : 1 2 3 6
MACRO       0   1  -1  -1   0 : 15
MACRO       0   2  -1  -1   0 : 15
MACRO       0   3  -1  -1   0 : 6 6 5 4 3 3 3 3 3 3 3 3 3 3 2 2 2 2 2 2 2 2 2 1 1 1 1 1 1 1 1 1 1 1 1 1 1 1 1 0
MACRO       0   4  -1  -1   0 : 10 8 6 4 2 1 0
MACRO       0   5  -1  -1   0 : 10 9 7 4 2 0
MACRO       0   6  -1  -1   0 : 12 10 9 7 6 5 4 4 3 3 2 2 2 1 1 1 1 9 7 6 5 4 3 3 3 2 2 2 2 1 1 1 4 3 3 2 2 2 2 1 1 1 1 1 0 0 0 0
MACRO       0   7  -1  -1   0 : 0 1 2 4 5 6 6 6 6 4 3 2 2 2 2 2
MACRO       0   8  -1  -1   0 : 1 2 3 4
MACRO       0   9  -1  -1   0 : 15 13 11 9 7 6 5 4 3 3 3 3 3 3 3 3
MACRO       0  10  -1  -1   0 : 8
MACRO       0  11  -1  -1   0 : 14 13 12 10 9 8 7 6 5 4 4 3 2 6 5 4 4 3 2 2 1 0 0 0 0 0 0 0 0 0 0 0 2 3 2 2 1 1 1 1 1 0 0 0 0 0 0 0 0 0 0 0 0 0 0 0 0 0 0 0 0 0 0 0
MACRO       0  12  -1  -1   0 : 2 3 5 6 7 8 9 9 9 9 8 6 4 8 8 8
MACRO       0  13  -1  -1   0 : 15 13 11 9 7 5 3 1 0
MACRO       0  14  -1  -1   0 : 9 7 6 4 3 2 1 0 0
MACRO       0  15  -1  -1   0 : 10 5 3 2 0
MACRO       0  16  -1  -1   0 : 15 15 14 14 13 11 6 5 3 3 2 2 1 1 1 1
MACRO       0  17  -1  -1   0 : 11 9 7 5 4 2 1 1 0
MACRO       0  18  -1  -1   0 : 1 2 3 5
MACRO       0  19  -1  -1   0 : 1 3 6 10
MACRO       0  20  -1  -1   0 : 15
MACRO       0  21  -1  -1   0 : 3 4 7 7 6 5 4 4 3 3 3 3 3 3 3 3
MACRO       0  22  -1  -1   0 : 13 12 10 9 7 6 5 3 0
MACRO       0  23  -1  -1   0 : 9 8 7 6 5 4 3 2 0
MACRO       0  24  -1  -1   0 : 15 14 13 11 10 9 8 7 6 5 5 5 5 4 4 4 4 3 3 3 3 2 2 2 2 2 1 1 1 1 0 0
MACRO       0  25  -1  -1   0 : 2 3 4 4 4 3 3 2 2 2 2 2 2 2 2 2
MACRO       0  26  -1  -1   0 : 4 6 7 8 8 7 6 6 6 5 5 5 4 4 4 4
MACRO       0  27  -1  -1   0 : 2 3 4 4 4 3 3 2 2 2 2 2 2 2 2 2
MACRO       0  28  -1  -1   0 : 15 11 9 7 5 4 3 3 2 2 2 1 1 0 0 0
MACRO       0  29  -1  -1   0 : 2 3 4 4 4 3 3 2 2 2 2 2 2 2 2 2
MACRO       0  30  -1  -1   0 : 14 12 10 9 8 8 7 6 6 5 5 10 7 7 6 6 5 5 4 4 3 3 2 2 2 2 1 1 1 1 1 1 0 0 0 0
MACRO       0  31  -1  -1   0 : 2 3 5 6 7 8 9 9 9 9 8 6 5 5 5 5
MACRO       0  32  -1  -1   0 : 13 11 9 7 5 4 2 1 0
MACRO       0  33  -1  -1   0 : 7 6 5 5 4 4 3 3 3 3 3 2 2 2 2 2 2 2 2 2 2 2 2 1 1 1 1 1 1 1 1 1 1 1 1 1 1 1 0 0 0 0 0 0
MACRO       0  34  -1  -1   0 : 10 5 3 2 0
MACRO       0  35  -1  -1   0 : 15 15 14 14 13 11 6 5 3 3 2 2 2 2 2 2
MACRO       0  36  -1  -1   0 : 2 5 6 7 8 8 8 8 8 8 7 6 5 5 5 5
MACRO       0  37  -1  -1   0 : 15 13 11 10 9 8 8 7 6 6 6 5 5 5 4 4 12 9 8 7 7 6 6 5 5 4 4 4 3 3 3 3 9 7 6 5 5 4 4 3 3 3 3 2 2 2 1 5 4 3 3 2 2 2 2 1 1 1 1 1
MACRO       0  38  -1  -1   0 : 15 12 8 7 4 3 2 1 0
MACRO       1   0  -1  -1   0 : 0 12 12 0
MACRO       1   1  -1  -1   0 : 12 0
MACRO       1   2   0  -1   0 : 0 0 5 5 7 7
MACRO       1   3   0  -1   0 : 0 0 0 3 3 3 7 7 7
MACRO       1   4   0  -1   0 : 0 0 0 4 4 4 7 7 7
MACRO       1   5   0  -1   0 : 0 0 0 3 3 3 8 8 8
MACRO       1   6   0  -1   0 : 0 0 0 2 2 2 7 7 7
MACRO       1   7   2  -1   0 : 7 3 0 -3
MACRO       1   8  -1  -1   0 : 12 0
MACRO       1   9   2  -1   0 : 7 3 0 -3
MACRO       1  10  -1  -1   0 : 0 12 12 0
MACRO       1  11  -1  -1   0 : 12 0
MACRO       1  12   0  -1   0 : 0 4 7 12
MACRO       1  13   0  -1   0 : -5 0 3 7
MACRO       1  14   0  -1   0 : 0 3 7 10
MACRO       1  15   0  -1   0 : -5 -2 0 4
MACRO       1  16   0  -1   0 : 0 3 7
MACRO       1  17   2  -1   0 : 7 3 0 -3
MACRO       1  18  -1  -1   0 : 0
MACRO       1  19  -1  -1   0 : 0 0 12 12
MACRO       2   0  12  -1   0 : 0 0 0 0 0 0 0 0 0 0 0 0 1 1 1 1 -1 -1 -1 -1
MACRO       2   1  12  -1   0 : 0 0 0 0 0 0 0 0 0 0 0 0 1 1 1 1 -1 -1 -1 -1
MACRO       2   2  -1  -1   0 : 0 6 0 0
MACRO       3   0   0  -1   0 : 7
MACRO       3   1   0  -1   0 : 7
MACRO       3   2   0  -1   0 : 7
MACRO       4   0  -1  -1   0 : 0 1
MACRO       4   1  -1  -1   0 : 2 3
MACRO       4   2  -1  -1   0 : 0
MACRO       4   3  -1  -1   0 : 0
MACRO       4   4  -1  -1   0 : 0
MACRO       4   5  -1  -1   0 : 0
MACRO       4   6  -1  -1   0 : 0
MACRO       4   7  -1  -1   0 : 0
MACRO       4   8  -1  -1   0 : 2 1
MACRO       4   9  -1  -1   0 : 0 1
MACRO       4  10  -1  -1   0 : 0
MACRO       4  11  -1  -1   0 : 0 1
MACRO       4  12  -1  -1   0 : 0 1
MACRO       4  13  -1  -1   0 : 0 1
MACRO       4  14  -1  -1   0 : 0 1
MACRO       4  15  -1  -1   0 : 2 1
MACRO       4  16  -1  -1   0 : 2
MACRO       4  17  -1  -1   0 : 0

# DPCM samples

# Instruments
INST2A03   0     2  -1  -1  -1  -1 "T - Bass"
INST2A03   1     0  -1   0  -1  -1 "S - Strings"
INST2A03   2     1  -1   1  -1  -1 "bass"
INST2A03   3     3   6  -1  -1   5 "arp27"
INST2A03   4    13   7  -1  -1  -1 "Snare"
INST2A03   5    22  -1  -1  -1  10 "Kick"
INST2A03   6    15  -1  -1  -1  -1 "Hat"
INST2A03   7     9  -1  -1  -1   7 "pianow"
INST2A03   8    16  -1  -1  -1  -1 "Crash"
INST2A03   9    11  -1  -1  -1   7 "pianow"
INST2A03  10     4  -1  -1  -1   7 "pianow"
INST2A03  11     5  -1  -1  -1   7 "pianow"
INST2A03  12     7  -1  -1  -1   0 "S - Strings"
INST2A03  13    12   0  -1  -1   0 "S - Strings 2"
INST2A03  14     3   4  -1  -1   2 "arp47"
INST2A03  15     6  -1  -1  -1  -1 "tin tin tin"
INST2A03  16     3   3  -1  -1   3 "arp37"
INST2A03  17     3   5  -1  -1   4 "arp38"
INST2A03  18    10   8  -1  -1   7 "S - Lead Helmet"
INST2A03  19     8  -1  -1  -1   1 "S - Strings"
INST2A03  20    17  -1  -1  -1   6 "Kick"
INST2A03  21    14   9  -1  -1  -1 "Snare"
INST2A03  22    20  -1  -1  -1  -1 "T - Bass"
INST2A03  23    18  -1   0  -1   9 "S - Strings"
INST2A03  24    21  12  -1  -1  11 "chd47"
INST2A03  25    19  -1   0  -1   9 "S - Strings"
INST2A03  26    32  17  -1  -1  -1 "Snare"
INST2A03  27    38  -1  -1  -1  17 "Kick"
INST2A03  28    34  -1  -1  -1  -1 "Hat"
INST2A03  29    28  -1  -1  -1  16 "pianow"
INST2A03  30    35  -1  -1  -1  -1 "Crash"
INST2A03  31    30  -1  -1  -1  16 "pianow"
INST2A03  32    23  -1  -1  -1  -1 "pianow"
INST2A03  33    24  -1  -1  -1   8 "pianow"
INST2A03  34    26  -1  -1  -1   8 "S - Strings"
INST2A03  35    31  10  -1  -1   8 "S - Strings 2"
INST2A03  36    21  13  -1  -1  12 "chd37"
INST2A03  37    27  14  -1  -1  13 "chd37A"
INST2A03  38    29  15  -1  -1  14 "chd47A"
INST2A03  39    33  16  -1  -1   8 "p.chd37"
INST2A03  40    36  18  -1  -1  15 "S - Strings 3"
INST2A03  41    37  -1  -1  -1  16 "pianow 2"

# Tracks

TRACK  64   6 150 "Title"
COLUMNS : 1 1 1 1 1

ORDER 00 : 00 00 00 00 00
ORDER 01 : 01 01 01 01 01

PATTERN 00
ROW 00 : C-3 07 . ... : ... .. . ... : C-3 00 . ... : 0-# 05 . ... : ... .. . ...
ROW 01 : ... .. . ... : ... .. . ... : ... .. . ... : ... .. . ... : ... .. . ...
ROW 02 : C#3 07 . ... : ... .. . ... : ... .. . ... : 0-# 05 . ... : ... .. . ...
ROW 03 : ... .. . ... : ... .. . ... : ... .. . ... : ... .. . ... : ... .. . ...
ROW 04 : C-3 07 . ... : ... .. . ... : ... .. . ... : 0-# 04 . ... : ... .. . ...
ROW 05 : ... .. . ... : ... .. . ... : ... .. . ... : ... .. . ... : ... .. . ...
ROW 06 : C#3 07 . ... : ... .. . ... : ... .. . ... : 0-# 05 . ... : ... .. . ...
ROW 07 : ... .. . ... : ... .. . ... : ... .. . ... : ... .. . ... : ... .. . ...
ROW 08 : C-3 07 . ... : ... .. . ... : E-2 00 . ... : 0-# 05 . ... : ... .. . ...
ROW 09 : ... .. . ... : ... .. . ... : ... .. . ... : ... .. . ... : ... .. . ...
ROW 0A : C#3 07 . ... : ... .. . ... : ... .. . ... : 0-# 05 . ... : ... .. . ...
ROW 0B : ... .. . ... : ... .. . ... : ... .. . ... : ... .. . ... : ... .. . ...
ROW 0C : C-3 07 . ... : ... .. . ... : G-2 00 . ... : 0-# 04 . ... : ... .. . ...
ROW 0D : ... .. . ... : ... .. . ... : ... .. . ... : ... .. . ... : ... .. . ...
ROW 0E : C#3 07 . ... : ... .. . ... : ... .. . ... : 0-# 05 . ... : ... .. . ...
ROW 0F : ... .. . ... : ... .. . ... : ... .. . ... : ... .. . ... : ... .. . ...
ROW 10 : C-3 07 . ... : G-4 07 . ... : C-3 00 . ... : 0-# 05 . ... : ... .. . ...
ROW 11 : ... .. . ... : ... .. . ... : ... .. . ... : ... .. . ... : ... .. . ...
ROW 12 : C#3 07 . ... : G#4 07 . ... : ... .. . ... : 0-# 05 . ... : ... .. . ...
ROW 13 : ... .. . ... : ... .. . ... : ... .. . ... : ... .. . ... : ... .. . ...
ROW 14 : C-3 07 . ... : G-4 07 . ... : ... .. . ... : 0-# 04 . ... : ... .. . ...
ROW 15 : ... .. . ... : ... .. . ... : ... .. . ... : ... .. . ... : ... .. . ...
ROW 16 : C#3 07 . ... : G#4 07 . ... : ... .. . ... : 0-# 05 . ... : ... .. . ...
ROW 17 : ... .. . ... : ... .. . ... : ... .. . ... : ... .. . ... : ... .. . ...
ROW 18 : C-3 07 . ... : G-4 07 . ... : E-2 00 . ... : 0-# 05 . ... : ... .. . ...
ROW 19 : ... .. . ... : ... .. . ... : ... .. . ... : ... .. . ... : ... .. . ...
ROW 1A : C#3 07 . ... : G#4 07 . ... : ... .. . ... : 0-# 05 . ... : ... .. . ...
ROW 1B : ... .. . ... : ... .. . ... : ... .. . ... : ... .. . ... : ... .. . ...
ROW 1C : C-3 07 . ... : G-4 07 . ... : G-2 00 . ... : 0-# 04 . ... : ... .. . ...
ROW 1D : ... .. . ... : ... .. . ... : ... .. . ... : ... .. . ... : ... .. . ...
ROW 1E : C#3 07 . ... : G#4 07 . ... : ... .. . ... : 0-# 05 . ... : ... .. . ...
ROW 1F : ... .. . ... : ... .. . ... : ... .. . ... : ... .. . ... : ... .. . ...
ROW 20 : C-3 07 . ... : G-4 07 . ... : E-2 00 . ... : 0-# 05 . ... : ... .. . ...
ROW 21 : ... .. . ... : ... .. . ... : ... .. . ... : ... .. . ... : ... .. . ...
ROW 22 : ... .. . ... : ... .. . ... : ... .. . ... : ... .. . ... : ... .. . ...
ROW 23 : ... .. . ... : ... .. . ... : ... .. . ... : ... .. . ... : ... .. . ...
ROW 24 : ... .. . ... : ... .. . ... : ... .. . ... : ... .. . ... : ... .. . ...
ROW 25 : ... .. . ... : ... .. . ... : ... .. . ... : ... .. . ... : ... .. . ...
ROW 26 : ... .. . ... : ... .. . ... : ... .. . ... : ... .. . ... : ... .. . ...
ROW 27 : ... .. . ... : ... .. . ... : ... .. . ... : ... .. . ... : ... .. . ...
ROW 28 : ... .. . ... : ... .. . ... : ... .. . ... : ... .. . ... : ... .. . ...
ROW 29 : ... .. . ... : ... .. . ... : ... .. . ... : ... .. . ... : ... .. . ...
ROW 2A : ... .. . ... : ... .. . ... : ... .. . ... : ... .. . ... : ... .. . ...
ROW 2B : ... .. . ... : ... .. . ... : ... .. . ... : ... .. . ... : ... .. . ...
ROW 2C : ... .. . ... : ... .. . ... : ... .. . ... : ... .. . ... : ... .. . ...
ROW 2D : ... .. . ... : ... .. . ... : --- .. . ... : ... .. . ... : ... .. . ...
ROW 2E : ... .. . ... : --- .. . ... : ... .. . ... : ... .. . ... : ... .. . ...
ROW 2F : --- .. . ... : ... .. . ... : ... .. . ... : ... .. . ... : ... .. . ...
ROW 30 : ... .. . ... : ... .. . ... : ... .. . ... : ... .. . ... : ... .. . ...
ROW 31 : ... .. . ... : ... .. . ... : ... .. . ... : ... .. . ... : ... .. . ...
ROW 32 : ... .. . ... : ... .. . ... : ... .. . ... : ... .. . ... : ... .. . ...
ROW 33 : ... .. . ... : ... .. . ... : ... .. . ... : ... .. . ... : ... .. . ...
ROW 34 : ... .. . ... : ... .. . ... : ... .. . ... : ... .. . ... : ... .. . ...
ROW 35 : ... .. . ... : ... .. . ... : ... .. . ... : ... .. . ... : ... .. . ...
ROW 36 : ... .. . ... : ... .. . ... : ... .. . ... : ... .. . ... : ... .. . ...
ROW 37 : ... .. . ... : ... .. . ... : ... .. . ... : ... .. . ... : ... .. . ...
ROW 38 : ... .. . ... : ... .. . ... : ... .. . ... : ... .. . ... : ... .. . ...
ROW 39 : ... .. . ... : ... .. . ... : ... .. . ... : ... .. . ... : ... .. . ...
ROW 3A : ... .. . ... : ... .. . ... : ... .. . ... : ... .. . ... : ... .. . ...
ROW 3B : ... .. . ... : ... .. . ... : ... .. . ... : ... .. . ... : ... .. . ...
ROW 3C : ... .. . ... : ... .. . ... : ... .. . ... : ... .. . ... : ... .. . ...
ROW 3D : ... .. . ... : ... .. . ... : ... .. . ... : ... .. . ... : ... .. . ...
ROW 3E : ... .. . ... : ... .. . ... : ... .. . ... : ... .. . ... : ... .. . ...
ROW 3F : ... .. . ... : ... .. . ... : ... .. . ... : ... .. . ... : ... .. . ...

PATTERN 01
ROW 00 : ... .. . B01 : ... .. . ... : ... .. . ... : ... .. . ... : ... .. . ...
ROW 01 : ... .. . D00 : ... .. . ... : ... .. . ... : ... .. . ... : ... .. . ...
ROW 02 : ... .. . ... : ... .. . ... : ... .. . ... : ... .. . ... : ... .. . ...
ROW 03 : ... .. . ... : ... .. . ... : ... .. . ... : ... .. . ... : ... .. . ...
ROW 04 : ... .. . ... : ... .. . ... : ... .. . ... : ... .. . ... : ... .. . ...
ROW 05 : ... .. . ... : ... .. . ... : ... .. . ... : ... .. . ... : ... .. . ...
ROW 06 : ... .. . ... : ... .. . ... : ... .. . ... : ... .. . ... : ... .. . ...
ROW 07 : ... .. . ... : ... .. . ... : ... .. . ... : ... .. . ... : ... .. . ...
ROW 08 : ... .. . ... : ... .. . ... : ... .. . ... : ... .. . ... : ... .. . ...
ROW 09 : ... .. . ... : ... .. . ... : ... .. . ... : ... .. . ... : ... .. . ...
ROW 0A : ... .. . ... : ... .. . ... : ... .. . ... : ... .. . ... : ... .. . ...
ROW 0B : ... .. . ... : ... .. . ... : ... .. . ... : ... .. . ... : ... .. . ...
ROW 0C : ... .. . ... : ... .. . ... : ... .. . ... : ... .. . ... : ... .. . ...
ROW 0D : ... .. . ... : ... .. . ... : ... .. . ... : ... .. . ... : ... .. . ...
ROW 0E : ... .. . ... : ... .. . ... : ... .. . ... : ... .. . ... : ... .. . ...
ROW 0F : ... .. . ... : ... .. . ... : ... .. . ... : ... .. . ... : ... .. . ...
ROW 10 : ... .. . ... : ... .. . ... : ... .. . ... : ... .. . ... : ... .. . ...
ROW 11 : ... .. . ... : ... .. . ... : ... .. . ... : ... .. . ... : ... .. . ...
ROW 12 : ... .. . ... : ... .. . ... : ... .. . ... : ... .. . ... : ... .. . ...
ROW 13 : ... .. . ... : ... .. . ... : ... .. . ... : ... .. . ... : ... .. . ...
ROW 14 : ... .. . ... : ... .. . ... : ... .. . ... : ... .. . ... : ... .. . ...
ROW 15 : ... .. . ... : ... .. . ... : ... .. . ... : ... .. . ... : ... .. . ...
ROW 16 : ... .. . ... : ... .. . ... : ... .. . ... : ... .. . ... : ... .. . ...
ROW 17 : ... .. . ... : ... .. . ... : ... .. . ... : ... .. . ... : ... .. . ...
ROW 18 : ... .. . ... : ... .. . ... : ... .. . ... : ... .. . ... : ... .. . ...
ROW 19 : ... .. . ... : ... .. . ... : ... .. . ... : ... .. . ... : ... .. . ...
ROW 1A : ... .. . ... : ... .. . ... : ... .. . ... : ... .. . ... : ... .. . ...
ROW 1B : ... .. . ... : ... .. . ... : ... .. . ... : ... .. . ... : ... .. . ...
ROW 1C : ... .. . ... : ... .. . ... : ... .. . ... : ... .. . ... : ... .. . ...
ROW 1D : ... .. . ... : ... .. . ... : ... .. . ... : ... .. . ... : ... .. . ...
ROW 1E : ... .. . ... : ... .. . ... : ... .. . ... : ... .. . ... : ... .. . ...
ROW 1F : ... .. . ... : ... .. . ... : ... .. . ... : ... .. . ... : ... .. . ...
ROW 20 : ... .. . ... : ... .. . ... : ... .. . ... : ... .. . ... : ... .. . ...
ROW 21 : ... .. . ... : ... .. . ... : ... .. . ... : ... .. . ... : ... .. . ...
ROW 22 : ... .. . ... : ... .. . ... : ... .. . ... : ... .. . ... : ... .. . ...
ROW 23 : ... .. . ... : ... .. . ... : ... .. . ... : ... .. . ... : ... .. . ...
ROW 24 : ... .. . ... : ... .. . ... : ... .. . ... : ... .. . ... : ... .. . ...
ROW 25 : ... .. . ... : ... .. . ... : ... .. . ... : ... .. . ... : ... .. . ...
ROW 26 : ... .. . ... : ... .. . ... : ... .. . ... : ... .. . ... : ... .. . ...
ROW 27 : ... .. . ... : ... .. . ... : ... .. . ... : ... .. . ... : ... .. . ...
ROW 28 : ... .. . ... : ... .. . ... : ... .. . ... : ... .. . ... : ... .. . ...
ROW 29 : ... .. . ... : ... .. . ... : ... .. . ... : ... .. . ... : ... .. . ...
ROW 2A : ... .. . ... : ... .. . ... : ... .. . ... : ... .. . ... : ... .. . ...
ROW 2B : ... .. . ... : ... .. . ... : ... .. . ... : ... .. . ... : ... .. . ...
ROW 2C : ... .. . ... : ... .. . ... : ... .. . ... : ... .. . ... : ... .. . ...
ROW 2D : ... .. . ... : ... .. . ... : ... .. . ... : ... .. . ... : ... .. . ...
ROW 2E : ... .. . ... : ... .. . ... : ... .. . ... : ... .. . ... : ... .. . ...
ROW 2F : ... .. . ... : ... .. . ... : ... .. . ... : ... .. . ... : ... .. . ...
ROW 30 : ... .. . ... : ... .. . ... : ... .. . ... : ... .. . ... : ... .. . ...
ROW 31 : ... .. . ... : ... .. . ... : ... .. . ... : ... .. . ... : ... .. . ...
ROW 32 : ... .. . ... : ... .. . ... : ... .. . ... : ... .. . ... : ... .. . ...
ROW 33 : ... .. . ... : ... .. . ... : ... .. . ... : ... .. . ... : ... .. . ...
ROW 34 : ... .. . ... : ... .. . ... : ... .. . ... : ... .. . ... : ... .. . ...
ROW 35 : ... .. . ... : ... .. . ... : ... .. . ... : ... .. . ... : ... .. . ...
ROW 36 : ... .. . ... : ... .. . ... : ... .. . ... : ... .. . ... : ... .. . ...
ROW 37 : ... .. . ... : ... .. . ... : ... .. . ... : ... .. . ... : ... .. . ...
ROW 38 : ... .. . ... : ... .. . ... : ... .. . ... : ... .. . ... : ... .. . ...
ROW 39 : ... .. . ... : ... .. . ... : ... .. . ... : ... .. . ... : ... .. . ...
ROW 3A : ... .. . ... : ... .. . ... : ... .. . ... : ... .. . ... : ... .. . ...
ROW 3B : ... .. . ... : ... .. . ... : ... .. . ... : ... .. . ... : ... .. . ...
ROW 3C : ... .. . ... : ... .. . ... : ... .. . ... : ... .. . ... : ... .. . ...
ROW 3D : ... .. . ... : ... .. . ... : ... .. . ... : ... .. . ... : ... .. . ...
ROW 3E : ... .. . ... : ... .. . ... : ... .. . ... : ... .. . ... : ... .. . ...
ROW 3F : ... .. . ... : ... .. . ... : ... .. . ... : ... .. . ... : ... .. . ...

TRACK  64   6 150 "Cutscene"
COLUMNS : 1 1 1 1 1

ORDER 00 : 00 00 00 00 00
ORDER 01 : 01 01 01 01 01

PATTERN 00
ROW 00 : B-2 07 . ... : C-3 00 . ... : C-4 00 . ... : 1-# 05 . ... : ... .. . ...
ROW 01 : ... .. . ... : ... .. . ... : ... .. . ... : ... .. . ... : ... .. . ...
ROW 02 : C-3 07 . ... : ... .. . ... : --- .. . ... : F-# 06 . ... : ... .. . ...
ROW 03 : ... .. . ... : ... .. . ... : ... .. . ... : ... .. . ... : ... .. . ...
ROW 04 : B-2 07 . ... : ... .. . ... : C-4 00 . ... : F-# 06 . ... : ... .. . ...
ROW 05 : ... .. . ... : ... .. . ... : ... .. . ... : ... .. . ... : ... .. . ...
ROW 06 : C-3 07 . ... : ... .. . ... : --- .. . ... : F-# 06 . ... : ... .. . ...
ROW 07 : ... .. . ... : ... .. . ... : ... .. . ... : ... .. . ... : ... .. . ...
ROW 08 : B-2 07 . ... : B-2 00 . ... : C-3 00 . ... : 6-# 04 . ... : ... .. . ...
ROW 09 : ... .. . ... : ... .. . ... : ... .. . ... : ... .. . ... : ... .. . ...
ROW 0A : C-3 07 . ... : ... .. . ... : ... .. . ... : F-# 06 . ... : ... .. . ...
ROW 0B : ... .. . ... : ... .. . ... : ... .. . ... : ... .. . ... : ... .. . ...
ROW 0C : B-2 07 . ... : ... .. . ... : --- .. . ... : F-# 06 . ... : ... .. . ...
ROW 0D : ... .. . ... : ... .. . ... : ... .. . ... : ... .. . ... : ... .. . ...
ROW 0E : C-3 07 . ... : ... .. . ... : C-3 00 . ... : 1-# 05 . ... : ... .. . ...
ROW 0F : ... .. . ... : ... .. . ... : ... .. . ... : ... .. . ... : ... .. . ...
ROW 10 : D#3 07 . ... : E-3 00 . ... : E-4 00 . ... : 1-# 05 . ... : ... .. . ...
ROW 11 : ... .. . ... : ... .. . ... : ... .. . ... : ... .. . ... : ... .. . ...
ROW 12 : E-3 07 . ... : ... .. . ... : --- .. . ... : F-# 06 . ... : ... .. . ...
ROW 13 : ... .. . ... : ... .. . ... : ... .. . ... : ... .. . ... : ... .. . ...
ROW 14 : D#3 07 . ... : ... .. . ... : E-4 00 . ... : F-# 06 . ... : ... .. . ...
ROW 15 : ... .. . ... : ... .. . ... : ... .. . ... : ... .. . ... : ... .. . ...
ROW 16 : E-3 07 . ... : ... .. . ... : --- .. . ... : F-# 06 . ... : ... .. . ...
ROW 17 : ... .. . ... : ... .. . ... : ... .. . ... : ... .. . ... : ... .. . ...
ROW 18 : D#3 07 . ... : D#3 00 . ... : D#3 00 . ... : 6-# 04 . ... : ... .. . ...
ROW 19 : ... .. . ... : ... .. . ... : ... .. . ... : ... .. . ... : ... .. . ...
ROW 1A : E-3 07 . ... : ... .. . ... : ... .. . ... : F-# 06 . ... : ... .. . ...
ROW 1B : ... .. . ... : ... .. . ... : ... .. . ... : ... .. . ... : ... .. . ...
ROW 1C : D#3 07 . ... : ... .. . ... : --- .. . ... : F-# 06 . ... : ... .. . ...
ROW 1D : ... .. . ... : ... .. . ... : ... .. . ... : ... .. . ... : ... .. . ...
ROW 1E : E-3 07 . ... : ... .. . ... : ... .. . ... : F-# 06 . ... : ... .. . ...
ROW 1F : ... .. . ... : ... .. . ... : ... .. . ... : ... .. . ... : ... .. . ...
ROW 20 : C-3 07 . ... : D#3 07 . ... : G-3 07 . ... : ... .. . ... : ... .. . ...
ROW 21 : ... .. . ... : ... .. . ... : ... .. . ... : ... .. . ... : ... .. . ...
ROW 22 : ... .. . ... : ... .. . ... : ... .. . ... : ... .. . ... : ... .. . ...
ROW 23 : ... .. . ... : ... .. . ... : ... .. . ... : ... .. . ... : ... .. . ...
ROW 24 : ... .. . ... : ... .. . ... : ... .. . ... : ... .. . ... : ... .. . ...
ROW 25 : ... .. . ... : ... .. . ... : ... .. . ... : ... .. . ... : ... .. . ...
ROW 26 : ... .. . ... : ... .. . ... : ... .. . ... : ... .. . ... : ... .. . ...
ROW 27 : ... .. . ... : ... .. . ... : ... .. . ... : ... .. . ... : ... .. . ...
ROW 28 : ... .. . ... : ... .. . ... : ... .. . ... : ... .. . ... : ... .. . ...
ROW 29 : ... .. . ... : ... .. . ... : ... .. . ... : ... .. . ... : ... .. . ...
ROW 2A : ... .. . ... : ... .. . ... : ... .. . ... : ... .. . ... : ... .. . ...
ROW 2B : ... .. . ... : ... .. . ... : ... .. . ... : ... .. . ... : ... .. . ...
ROW 2C : ... .. . ... : ... .. . ... : ... .. . ... : ... .. . ... : ... .. . ...
ROW 2D : ... .. . ... : ... .. . ... : ... .. . ... : ... .. . ... : ... .. . ...
ROW 2E : ... .. . ... : ... .. . ... : ... .. . ... : ... .. . ... : ... .. . ...
ROW 2F : --- 07 . ... : --- .. . ... : --- .. . ... : ... .. . ... : ... .. . ...
ROW 30 : ... .. . D00 : ... .. . ... : ... .. . ... : ... .. . ... : ... .. . ...
ROW 31 : ... .. . ... : ... .. . ... : ... .. . ... : ... .. . ... : ... .. . ...
ROW 32 : ... .. . ... : ... .. . ... : ... .. . ... : ... .. . ... : ... .. . ...
ROW 33 : ... .. . ... : ... .. . ... : ... .. . ... : ... .. . ... : ... .. . ...
ROW 34 : ... .. . ... : ... .. . ... : ... .. . ... : ... .. . ... : ... .. . ...
ROW 35 : ... .. . ... : ... .. . ... : ... .. . ... : ... .. . ... : ... .. . ...
ROW 36 : ... .. . ... : ... .. . ... : ... .. . ... : ... .. . ... : ... .. . ...
ROW 37 : ... .. . ... : ... .. . ... : ... .. . ... : ... .. . ... : ... .. . ...
ROW 38 : ... .. . ... : ... .. . ... : ... .. . ... : ... .. . ... : ... .. . ...
ROW 39 : ... .. . ... : ... .. . ... : ... .. . ... : ... .. . ... : ... .. . ...
ROW 3A : ... .. . ... : ... .. . ... : ... .. . ... : ... .. . ... : ... .. . ...
ROW 3B : ... .. . ... : ... .. . ... : ... .. . ... : ... .. . ... : ... .. . ...
ROW 3C : ... .. . ... : ... .. . ... : ... .. . ... : ... .. . ... : ... .. . ...
ROW 3D : ... .. . ... : ... .. . ... : ... .. . ... : ... .. . ... : ... .. . ...
ROW 3E : ... .. . ... : ... .. . ... : ... .. . ... : ... .. . ... : ... .. . ...
ROW 3F : ... .. . ... : ... .. . ... : ... .. . ... : ... .. . ... : ... .. . ...

PATTERN 01
ROW 00 : ... .. . ... : ... .. . ... : ... .. . ... : ... .. . ... : ... .. . ...
ROW 01 : ... .. . ... : ... .. . ... : ... .. . ... : ... .. . ... : ... .. . ...
ROW 02 : ... .. . ... : ... .. . ... : ... .. . ... : ... .. . ... : ... .. . ...
ROW 03 : ... .. . ... : ... .. . ... : ... .. . ... : ... .. . ... : ... .. . ...
ROW 04 : ... .. . ... : ... .. . ... : ... .. . ... : ... .. . ... : ... .. . ...
ROW 05 : ... .. . ... : ... .. . ... : ... .. . ... : ... .. . ... : ... .. . ...
ROW 06 : ... .. . ... : ... .. . ... : ... .. . ... : ... .. . ... : ... .. . ...
ROW 07 : ... .. . ... : ... .. . ... : ... .. . ... : ... .. . ... : ... .. . ...
ROW 08 : ... .. . ... : ... .. . ... : ... .. . ... : ... .. . ... : ... .. . ...
ROW 09 : ... .. . ... : ... .. . ... : ... .. . ... : ... .. . ... : ... .. . ...
ROW 0A : ... .. . ... : ... .. . ... : ... .. . ... : ... .. . ... : ... .. . ...
ROW 0B : ... .. . ... : ... .. . ... : ... .. . ... : ... .. . ... : ... .. . ...
ROW 0C : ... .. . ... : ... .. . ... : ... .. . ... : ... .. . ... : ... .. . ...
ROW 0D : ... .. . ... : ... .. . ... : ... .. . ... : ... .. . ... : ... .. . ...
ROW 0E : ... .. . ... : ... .. . ... : ... .. . ... : ... .. . ... : ... .. . ...
ROW 0F : ... .. . ... : ... .. . ... : ... .. . ... : ... .. . ... : ... .. . ...
ROW 10 : ... .. . ... : ... .. . ... : ... .. . ... : ... .. . ... : ... .. . ...
ROW 11 : ... .. . ... : ... .. . ... : ... .. . ... : ... .. . ... : ... .. . ...
ROW 12 : ... .. . ... : ... .. . ... : ... .. . ... : ... .. . ... : ... .. . ...
ROW 13 : ... .. . ... : ... .. . ... : ... .. . ... : ... .. . ... : ... .. . ...
ROW 14 : ... .. . ... : ... .. . ... : ... .. . ... : ... .. . ... : ... .. . ...
ROW 15 : ... .. . ... : ... .. . ... : ... .. . ... : ... .. . ... : ... .. . ...
ROW 16 : ... .. . ... : ... .. . ... : ... .. . ... : ... .. . ... : ... .. . ...
ROW 17 : ... .. . ... : ... .. . ... : ... .. . ... : ... .. . ... : ... .. . ...
ROW 18 : ... .. . ... : ... .. . ... : ... .. . ... : ... .. . ... : ... .. . ...
ROW 19 : ... .. . ... : ... .. . ... : ... .. . ... : ... .. . ... : ... .. . ...
ROW 1A : ... .. . ... : ... .. . ... : ... .. . ... : ... .. . ... : ... .. . ...
ROW 1B : ... .. . ... : ... .. . ... : ... .. . ... : ... .. . ... : ... .. . ...
ROW 1C : ... .. . ... : ... .. . ... : ... .. . ... : ... .. . ... : ... .. . ...
ROW 1D : ... .. . ... : ... .. . ... : ... .. . ... : ... .. . ... : ... .. . ...
ROW 1E : ... .. . ... : ... .. . ... : ... .. . ... : ... .. . ... : ... .. . ...
ROW 1F : ... .. . ... : ... .. . ... : ... .. . ... : ... .. . ... : ... .. . ...
ROW 20 : ... .. . ... : ... .. . ... : ... .. . ... : ... .. . ... : ... .. . ...
ROW 21 : ... .. . ... : ... .. . ... : ... .. . ... : ... .. . ... : ... .. . ...
ROW 22 : ... .. . ... : ... .. . ... : ... .. . ... : ... .. . ... : ... .. . ...
ROW 23 : ... .. . ... : ... .. . ... : ... .. . ... : ... .. . ... : ... .. . ...
ROW 24 : ... .. . ... : ... .. . ... : ... .. . ... : ... .. . ... : ... .. . ...
ROW 25 : ... .. . ... : ... .. . ... : ... .. . ... : ... .. . ... : ... .. . ...
ROW 26 : ... .. . ... : ... .. . ... : ... .. . ... : ... .. . ... : ... .. . ...
ROW 27 : ... .. . ... : ... .. . ... : ... .. . ... : ... .. . ... : ... .. . ...
ROW 28 : ... .. . ... : ... .. . ... : ... .. . ... : ... .. . ... : ... .. . ...
ROW 29 : ... .. . ... : ... .. . ... : ... .. . ... : ... .. . ... : ... .. . ...
ROW 2A : ... .. . ... : ... .. . ... : ... .. . ... : ... .. . ... : ... .. . ...
ROW 2B : ... .. . ... : ... .. . ... : ... .. . ... : ... .. . ... : ... .. . ...
ROW 2C : ... .. . ... : ... .. . ... : ... .. . ... : ... .. . ... : ... .. . ...
ROW 2D : ... .. . ... : ... .. . ... : ... .. . ... : ... .. . ... : ... .. . ...
ROW 2E : ... .. . ... : ... .. . ... : ... .. . ... : ... .. . ... : ... .. . ...
ROW 2F : ... .. . ... : ... .. . ... : ... .. . ... : ... .. . ... : ... .. . ...
ROW 30 : ... .. . B01 : ... .. . ... : ... .. . ... : ... .. . ... : ... .. . ...
ROW 31 : ... .. . D00 : ... .. . ... : ... .. . ... : ... .. . ... : ... .. . ...
ROW 32 : ... .. . ... : ... .. . ... : ... .. . ... : ... .. . ... : ... .. . ...
ROW 33 : ... .. . ... : ... .. . ... : ... .. . ... : ... .. . ... : ... .. . ...
ROW 34 : ... .. . ... : ... .. . ... : ... .. . ... : ... .. . ... : ... .. . ...
ROW 35 : ... .. . ... : ... .. . ... : ... .. . ... : ... .. . ... : ... .. . ...
ROW 36 : ... .. . ... : ... .. . ... : ... .. . ... : ... .. . ... : ... .. . ...
ROW 37 : ... .. . ... : ... .. . ... : ... .. . ... : ... .. . ... : ... .. . ...
ROW 38 : ... .. . ... : ... .. . ... : ... .. . ... : ... .. . ... : ... .. . ...
ROW 39 : ... .. . ... : ... .. . ... : ... .. . ... : ... .. . ... : ... .. . ...
ROW 3A : ... .. . ... : ... .. . ... : ... .. . ... : ... .. . ... : ... .. . ...
ROW 3B : ... .. . ... : ... .. . ... : ... .. . ... : ... .. . ... : ... .. . ...
ROW 3C : ... .. . ... : ... .. . ... : ... .. . ... : ... .. . ... : ... .. . ...
ROW 3D : ... .. . ... : ... .. . ... : ... .. . ... : ... .. . ... : ... .. . ...
ROW 3E : ... .. . ... : ... .. . ... : ... .. . ... : ... .. . ... : ... .. . ...
ROW 3F : ... .. . ... : ... .. . ... : ... .. . ... : ... .. . ... : ... .. . ...

TRACK  80  13 150 "Ingame 1"
COLUMNS : 1 1 1 1 1

ORDER 00 : 00 00 00 00 00
ORDER 01 : 01 01 01 00 00
ORDER 02 : 02 02 02 01 00
ORDER 03 : 03 03 03 00 00
ORDER 04 : 04 04 04 00 00

PATTERN 00
ROW 00 : A-2 07 . ... : --- .. . ... : A-3 00 . ... : 0-# 05 . ... : ... .. . ...
ROW 01 : ... .. . ... : ... .. . ... : ... .. . ... : ... .. . ... : ... .. . ...
ROW 02 : ... .. . ... : ... .. . ... : ... .. . ... : F-# 06 . ... : ... .. . ...
ROW 03 : ... .. . ... : ... .. . ... : ... .. . ... : ... .. . ... : ... .. . ...
ROW 04 : ... .. . ... : ... .. . ... : ... .. . ... : 4-# 04 . ... : ... .. . ...
ROW 05 : ... .. . ... : ... .. . ... : ... .. . ... : ... .. . ... : ... .. . ...
ROW 06 : ... .. . ... : ... .. . ... : ... .. . ... : F-# 06 . ... : ... .. . ...
ROW 07 : ... .. . ... : ... .. . ... : ... .. . ... : F-# 06 . ... : ... .. . ...
ROW 08 : ... .. . ... : ... .. . ... : ... .. . ... : 0-# 05 . ... : ... .. . ...
ROW 09 : ... .. . ... : ... .. . ... : ... .. . ... : F-# 06 . ... : ... .. . ...
ROW 0A : ... .. . ... : ... .. . ... : ... .. . ... : 0-# 05 . ... : ... .. . ...
ROW 0B : ... .. . ... : ... .. . ... : ... .. . ... : ... .. . ... : ... .. . ...
ROW 0C : ... .. . ... : ... .. . ... : ... .. . ... : 4-# 04 . ... : ... .. . ...
ROW 0D : ... .. . ... : ... .. . ... : ... .. . ... : ... .. . ... : ... .. . ...
ROW 0E : ... .. . ... : ... .. . ... : ... .. . ... : F-# 06 . ... : ... .. . ...
ROW 0F : ... .. . ... : ... .. . ... : ... .. . ... : F-# 06 . ... : ... .. . ...
ROW 10 : A-2 07 . ... : ... .. . ... : A-2 00 . ... : 0-# 05 . ... : ... .. . ...
ROW 11 : ... .. . ... : ... .. . ... : ... .. . ... : ... .. . ... : ... .. . ...
ROW 12 : ... .. . ... : ... .. . ... : ... .. . ... : F-# 06 . ... : ... .. . ...
ROW 13 : ... .. . ... : ... .. . ... : ... .. . ... : ... .. . ... : ... .. . ...
ROW 14 : ... .. . ... : ... .. . ... : ... .. . ... : 4-# 04 . ... : ... .. . ...
ROW 15 : ... .. . ... : ... .. . ... : ... .. . ... : ... .. . ... : ... .. . ...
ROW 16 : ... .. . ... : ... .. . ... : ... .. . ... : F-# 06 . ... : ... .. . ...
ROW 17 : ... .. . ... : ... .. . ... : ... .. . ... : F-# 06 . ... : ... .. . ...
ROW 18 : ... .. . ... : ... .. . ... : ... .. . ... : 0-# 05 . ... : ... .. . ...
ROW 19 : ... .. . ... : ... .. . ... : ... .. . ... : F-# 06 . ... : ... .. . ...
ROW 1A : ... .. . ... : ... .. . ... : ... .. . ... : 0-# 05 . ... : ... .. . ...
ROW 1B : ... .. . ... : ... .. . ... : ... .. . ... : ... .. . ... : ... .. . ...
ROW 1C : ... .. . ... : ... .. . ... : ... .. . ... : 4-# 04 . ... : ... .. . ...
ROW 1D : ... .. . ... : ... .. . ... : ... .. . ... : ... .. . ... : ... .. . ...
ROW 1E : ... .. . ... : ... .. . ... : ... .. . ... : F-# 06 . ... : ... .. . ...
ROW 1F : ... .. . ... : ... .. . ... : ... .. . ... : F-# 06 . ... : ... .. . ...
ROW 20 : A-3 07 . ... : ... .. . ... : A-2 00 . ... : 0-# 05 . ... : ... .. . ...
ROW 21 : ... .. . ... : ... .. . ... : ... .. . ... : ... .. . ... : ... .. . ...
ROW 22 : ... .. . ... : ... .. . ... : ... .. . ... : F-# 06 . ... : ... .. . ...
ROW 23 : ... .. . ... : ... .. . ... : ... .. . ... : ... .. . ... : ... .. . ...
ROW 24 : ... .. . ... : ... .. . ... : ... .. . ... : 4-# 04 . ... : ... .. . ...
ROW 25 : ... .. . ... : ... .. . ... : ... .. . ... : ... .. . ... : ... .. . ...
ROW 26 : ... .. . ... : ... .. . ... : ... .. . ... : F-# 06 . ... : ... .. . ...
ROW 27 : ... .. . ... : ... .. . ... : ... .. . ... : F-# 06 . ... : ... .. . ...
ROW 28 : ... .. . ... : ... .. . ... : ... .. . ... : 0-# 05 . ... : ... .. . ...
ROW 29 : ... .. . ... : ... .. . ... : ... .. . ... : F-# 06 . ... : ... .. . ...
ROW 2A : ... .. . ... : ... .. . ... : ... .. . ... : 0-# 05 . ... : ... .. . ...
ROW 2B : ... .. . ... : ... .. . ... : ... .. . ... : ... .. . ... : ... .. . ...
ROW 2C : ... .. . ... : ... .. . ... : ... .. . ... : 4-# 04 . ... : ... .. . ...
ROW 2D : ... .. . ... : ... .. . ... : ... .. . ... : ... .. . ... : ... .. . ...
ROW 2E : ... .. . ... : ... .. . ... : ... .. . ... : F-# 06 . ... : ... .. . ...
ROW 2F : ... .. . ... : ... .. . ... : ... .. . ... : F-# 06 . ... : ... .. . ...
ROW 30 : A-3 07 . ... : ... .. . ... : A-2 00 . ... : 0-# 05 . ... : ... .. . ...
ROW 31 : ... .. . ... : ... .. . ... : ... .. . ... : ... .. . ... : ... .. . ...
ROW 32 : ... .. . ... : ... .. . ... : ... .. . ... : F-# 06 . ... : ... .. . ...
ROW 33 : ... .. . ... : ... .. . ... : --- 00 . ... : ... .. . ... : ... .. . ...
ROW 34 : ... .. . ... : ... .. . ... : E-2 00 . ... : 4-# 04 . ... : ... .. . ...
ROW 35 : ... .. . ... : ... .. . ... : ... .. . ... : ... .. . ... : ... .. . ...
ROW 36 : ... .. . ... : ... .. . ... : ... .. . ... : F-# 06 . ... : ... .. . ...
ROW 37 : ... .. . ... : ... .. . ... : --- .. . ... : F-# 06 . ... : ... .. . ...
ROW 38 : ... .. . ... : ... .. . ... : F-2 00 . ... : 0-# 05 . ... : ... .. . ...
ROW 39 : ... .. . ... : ... .. . ... : ... .. . ... : F-# 06 . ... : ... .. . ...
ROW 3A : ... .. . ... : ... .. . ... : ... .. . ... : 0-# 05 . ... : ... .. . ...
ROW 3B : ... .. . ... : ... .. . ... : --- .. . ... : ... .. . ... : ... .. . ...
ROW 3C : ... .. . ... : ... .. . ... : D-2 00 . ... : 4-# 04 . ... : ... .. . ...
ROW 3D : ... .. . ... : ... .. . ... : ... .. . ... : ... .. . ... : ... .. . ...
ROW 3E : ... .. . ... : ... .. . ... : ... .. . ... : F-# 06 . ... : ... .. . ...
ROW 3F : ... .. . D00 : ... .. . ... : --- .. . ... : F-# 06 . ... : ... .. . ...
ROW 40 : ... .. . ... : ... .. . ... : ... .. . ... : ... .. . ... : ... .. . ...
ROW 41 : ... .. . ... : ... .. . ... : ... .. . ... : ... .. . ... : ... .. . ...
ROW 42 : ... .. . ... : ... .. . ... : ... .. . ... : ... .. . ... : ... .. . ...
ROW 43 : ... .. . ... : ... .. . ... : ... .. . ... : ... .. . ... : ... .. . ...
ROW 44 : ... .. . ... : ... .. . ... : ... .. . ... : ... .. . ... : ... .. . ...
ROW 45 : ... .. . ... : ... .. . ... : ... .. . ... : ... .. . ... : ... .. . ...
ROW 46 : ... .. . ... : ... .. . ... : ... .. . ... : ... .. . ... : ... .. . ...
ROW 47 : ... .. . ... : ... .. . ... : ... .. . ... : ... .. . ... : ... .. . ...
ROW 48 : ... .. . ... : ... .. . ... : ... .. . ... : ... .. . ... : ... .. . ...
ROW 49 : ... .. . ... : ... .. . ... : ... .. . ... : ... .. . ... : ... .. . ...
ROW 4A : ... .. . ... : ... .. . ... : ... .. . ... : ... .. . ... : ... .. . ...
ROW 4B : ... .. . ... : ... .. . ... : ... .. . ... : ... .. . ... : ... .. . ...
ROW 4C : ... .. . ... : ... .. . ... : ... .. . ... : ... .. . ... : ... .. . ...
ROW 4D : ... .. . ... : ... .. . ... : ... .. . ... : ... .. . ... : ... .. . ...
ROW 4E : ... .. . ... : ... .. . ... : ... .. . ... : ... .. . ... : ... .. . ...
ROW 4F : ... .. . ... : ... .. . ... : ... .. . ... : ... .. . ... : ... .. . ...

PATTERN 01
ROW 00 : A-2 07 . ... : E-3 07 . ... : A-2 00 . ... : A-# 08 . ... : ... .. . ...
ROW 01 : ... .. . ... : ... .. . ... : ... .. . ... : ... .. . ... : ... .. . ...
ROW 02 : ... .. . ... : ... .. . ... : ... .. . ... : ... .. . ... : ... .. . ...
ROW 03 : ... .. . ... : ... .. . ... : ... .. . ... : ... .. . ... : ... .. . ...
ROW 04 : ... .. . ... : D-3 07 . ... : ... .. . ... : A-# 08 . ... : ... .. . ...
ROW 05 : ... .. . ... : ... .. . ... : ... .. . ... : ... .. . ... : ... .. . ...
ROW 06 : ... .. . ... : E-3 07 . ... : ... .. . ... : 0-# 05 . ... : ... .. . ...
ROW 07 : ... .. . ... : ... .. . ... : ... .. . ... : ... .. . ... : ... .. . ...
ROW 08 : ... .. . ... : F-3 07 . ... : ... .. . ... : F-# 04 . ... : ... .. . ...
ROW 09 : ... .. . ... : ... .. . ... : ... .. . ... : F-# 04 . ... : ... .. . ...
ROW 0A : ... .. . ... : E-3 07 . ... : ... .. . ... : 0-# 05 . ... : ... .. . ...
ROW 0B : ... .. . ... : ... .. . ... : ... .. . ... : F-# 06 . ... : ... .. . ...
ROW 0C : ... .. . ... : ... .. . ... : ... .. . ... : 0-# 05 . ... : ... .. . ...
ROW 0D : ... .. . ... : ... .. . ... : ... .. . ... : F-# 06 . ... : ... .. . ...
ROW 0E : ... .. . ... : ... .. . ... : ... .. . ... : 0-# 05 . ... : ... .. . ...
ROW 0F : ... .. . ... : ... .. . ... : ... .. . ... : F-# 06 . ... : ... .. . ...
ROW 10 : A-2 07 . ... : --- .. . ... : ... .. . ... : A-# 08 . ... : ... .. . ...
ROW 11 : ... .. . ... : ... .. . ... : ... .. . ... : ... .. . ... : ... .. . ...
ROW 12 : ... .. . ... : ... .. . ... : ... .. . ... : ... .. . ... : ... .. . ...
ROW 13 : ... .. . ... : ... .. . ... : ... .. . ... : ... .. . ... : ... .. . ...
ROW 14 : ... .. . ... : ... .. . ... : ... .. . ... : A-# 08 . ... : ... .. . ...
ROW 15 : ... .. . ... : ... .. . ... : ... .. . ... : ... .. . ... : ... .. . ...
ROW 16 : ... .. . ... : ... .. . ... : ... .. . ... : 0-# 05 . ... : ... .. . ...
ROW 17 : ... .. . ... : ... .. . ... : ... .. . ... : ... .. . ... : ... .. . ...
ROW 18 : ... .. . ... : ... .. . ... : ... .. . ... : F-# 04 . ... : ... .. . ...
ROW 19 : ... .. . ... : ... .. . ... : ... .. . ... : F-# 04 . ... : ... .. . ...
ROW 1A : ... .. . ... : ... .. . ... : ... .. . ... : 0-# 05 . ... : ... .. . ...
ROW 1B : ... .. . ... : ... .. . ... : ... .. . ... : F-# 06 . ... : ... .. . ...
ROW 1C : ... .. . ... : ... .. . ... : ... .. . ... : 0-# 05 . ... : ... .. . ...
ROW 1D : ... .. . ... : ... .. . ... : ... .. . ... : F-# 06 . ... : ... .. . ...
ROW 1E : ... .. . ... : ... .. . ... : ... .. . ... : 0-# 05 . ... : ... .. . ...
ROW 1F : ... .. . ... : ... .. . ... : ... .. . ... : F-# 06 . ... : ... .. . ...
ROW 20 : A-2 07 . ... : E-3 07 . ... : E-2 00 . ... : A-# 08 . ... : ... .. . ...
ROW 21 : ... .. . ... : ... .. . ... : ... .. . ... : ... .. . ... : ... .. . ...
ROW 22 : ... .. . ... : ... .. . ... : ... .. . ... : ... .. . ... : ... .. . ...
ROW 23 : ... .. . ... : ... .. . ... : ... .. . ... : ... .. . ... : ... .. . ...
ROW 24 : ... .. . ... : A-3 07 . ... : D-2 00 . ... : A-# 08 . ... : ... .. . ...
ROW 25 : ... .. . ... : ... .. . ... : ... .. . ... : ... .. . ... : ... .. . ...
ROW 26 : ... .. . ... : F-3 07 . ... : E-2 00 . ... : ... .. . ... : ... .. . ...
ROW 27 : ... .. . ... : ... .. . ... : ... .. . ... : ... .. . ... : ... .. . ...
ROW 28 : ... .. . ... : G-3 07 . ... : F-2 00 . ... : A-# 08 . ... : ... .. . ...
ROW 29 : ... .. . ... : ... .. . ... : ... .. . ... : ... .. . ... : ... .. . ...
ROW 2A : ... .. . ... : F-3 07 . ... : G-2 00 . ... : ... .. . ... : ... .. . ...
ROW 2B : ... .. . ... : ... .. . ... : ... .. . ... : ... .. . ... : ... .. . ...
ROW 2C : ... .. . ... : E-3 07 . ... : ... .. . ... : A-# 08 . ... : ... .. . ...
ROW 2D : ... .. . ... : ... .. . ... : ... .. . ... : ... .. . ... : ... .. . ...
ROW 2E : ... .. . ... : ... .. . ... : F-2 00 . ... : ... .. . ... : ... .. . ...
ROW 2F : ... .. . ... : ... .. . ... : ... .. . ... : ... .. . ... : ... .. . ...
ROW 30 : A-2 07 . ... : --- .. . ... : E-2 00 . ... : 0-# 05 . ... : ... .. . ...
ROW 31 : ... .. . ... : ... .. . ... : ... .. . ... : ... .. . ... : ... .. . ...
ROW 32 : ... .. . ... : ... .. . ... : ... .. . ... : F-# 06 . ... : ... .. . ...
ROW 33 : ... .. . ... : ... .. . ... : ... .. . ... : ... .. . ... : ... .. . ...
ROW 34 : ... .. . ... : ... .. . ... : ... .. . ... : 4-# 04 . ... : ... .. . ...
ROW 35 : ... .. . ... : ... .. . ... : ... .. . ... : ... .. . ... : ... .. . ...
ROW 36 : ... .. . ... : ... .. . ... : ... .. . ... : F-# 06 . ... : ... .. . ...
ROW 37 : ... .. . ... : ... .. . ... : ... .. . ... : F-# 06 . ... : ... .. . ...
ROW 38 : ... .. . ... : ... .. . ... : ... .. . ... : 0-# 05 . ... : ... .. . ...
ROW 39 : ... .. . ... : ... .. . ... : ... .. . ... : F-# 06 . ... : ... .. . ...
ROW 3A : ... .. . ... : ... .. . ... : ... .. . ... : 0-# 05 . ... : ... .. . ...
ROW 3B : ... .. . ... : ... .. . ... : ... .. . ... : ... .. . ... : ... .. . ...
ROW 3C : ... .. . ... : ... .. . ... : ... .. . ... : 4-# 04 . ... : ... .. . ...
ROW 3D : ... .. . ... : ... .. . ... : ... .. . ... : ... .. . ... : ... .. . ...
ROW 3E : ... .. . ... : ... .. . ... : ... .. . ... : F-# 06 . ... : ... .. . ...
ROW 3F : ... .. . D00 : ... .. . ... : ... .. . ... : F-# 06 . ... : ... .. . ...
ROW 40 : ... .. . ... : ... .. . ... : ... .. . ... : A-# 08 . ... : ... .. . ...
ROW 41 : ... .. . ... : ... .. . ... : ... .. . ... : ... .. . ... : ... .. . ...
ROW 42 : ... .. . ... : ... .. . ... : ... .. . ... : F-# 06 . ... : ... .. . ...
ROW 43 : ... .. . ... : ... .. . ... : ... .. . ... : ... .. . ... : ... .. . ...
ROW 44 : ... .. . ... : ... .. . ... : ... .. . ... : 4-# 04 . ... : ... .. . ...
ROW 45 : ... .. . ... : ... .. . ... : ... .. . ... : ... .. . ... : ... .. . ...
ROW 46 : ... .. . ... : ... .. . ... : ... .. . ... : F-# 06 . ... : ... .. . ...
ROW 47 : ... .. . ... : ... .. . ... : ... .. . ... : F-# 06 . ... : ... .. . ...
ROW 48 : ... .. . ... : ... .. . ... : ... .. . ... : 0-# 05 . ... : ... .. . ...
ROW 49 : ... .. . ... : ... .. . ... : ... .. . ... : F-# 06 . ... : ... .. . ...
ROW 4A : ... .. . ... : ... .. . ... : ... .. . ... : 0-# 05 . ... : ... .. . ...
ROW 4B : ... .. . ... : ... .. . ... : ... .. . ... : ... .. . ... : ... .. . ...
ROW 4C : ... .. . ... : ... .. . ... : ... .. . ... : 4-# 04 . ... : ... .. . ...
ROW 4D : ... .. . ... : ... .. . ... : ... .. . ... : ... .. . ... : ... .. . ...
ROW 4E : ... .. . ... : ... .. . ... : ... .. . ... : F-# 06 . ... : ... .. . ...
ROW 4F : ... .. . ... : ... .. . ... : ... .. . ... : F-# 06 . ... : ... .. . ...

PATTERN 02
ROW 00 : A-2 07 . ... : D-4 07 . ... : A-2 00 . ... : ... .. . ... : ... .. . ...
ROW 01 : ... .. . ... : ... .. . ... : ... .. . ... : ... .. . ... : ... .. . ...
ROW 02 : ... .. . ... : ... .. . ... : ... .. . ... : ... .. . ... : ... .. . ...
ROW 03 : ... .. . ... : ... .. . ... : ... .. . ... : ... .. . ... : ... .. . ...
ROW 04 : ... .. . ... : C#4 07 . ... : ... .. . ... : ... .. . ... : ... .. . ...
ROW 05 : ... .. . ... : ... .. . ... : ... .. . ... : ... .. . ... : ... .. . ...
ROW 06 : ... .. . ... : ... .. . ... : ... .. . ... : ... .. . ... : ... .. . ...
ROW 07 : ... .. . ... : ... .. . ... : ... .. . ... : ... .. . ... : ... .. . ...
ROW 08 : A-2 07 . ... : ... .. . ... : A-2 00 . ... : ... .. . ... : ... .. . ...
ROW 09 : ... .. . ... : ... .. . ... : A#2 00 . ... : ... .. . ... : ... .. . ...
ROW 0A : ... .. . ... : ... .. . ... : A-2 00 . ... : ... .. . ... : ... .. . ...
ROW 0B : ... .. . ... : ... .. . ... : A#2 00 . ... : ... .. . ... : ... .. . ...
ROW 0C : ... .. . ... : ... .. . ... : A-2 00 . ... : ... .. . ... : ... .. . ...
ROW 0D : ... .. . ... : ... .. . ... : A#2 00 . ... : ... .. . ... : ... .. . ...
ROW 0E : ... .. . ... : ... .. . ... : A-2 00 . ... : ... .. . ... : ... .. . ...
ROW 0F : ... .. . ... : ... .. . ... : A#2 00 . ... : ... .. . ... : ... .. . ...
ROW 10 : A-2 07 . ... : D-4 07 . ... : A-2 00 . ... : ... .. . ... : ... .. . ...
ROW 11 : ... .. . ... : ... .. . ... : ... .. . ... : ... .. . ... : ... .. . ...
ROW 12 : ... .. . ... : ... .. . ... : ... .. . ... : ... .. . ... : ... .. . ...
ROW 13 : ... .. . ... : ... .. . ... : ... .. . ... : ... .. . ... : ... .. . ...
ROW 14 : ... .. . ... : C#4 07 . ... : ... .. . ... : ... .. . ... : ... .. . ...
ROW 15 : ... .. . ... : ... .. . ... : ... .. . ... : ... .. . ... : ... .. . ...
ROW 16 : ... .. . ... : ... .. . ... : ... .. . ... : ... .. . ... : ... .. . ...
ROW 17 : ... .. . ... : ... .. . ... : ... .. . ... : ... .. . ... : ... .. . ...
ROW 18 : A-2 07 . ... : ... .. . ... : A-2 00 . ... : ... .. . ... : ... .. . ...
ROW 19 : ... .. . ... : ... .. . ... : A#2 00 . ... : ... .. . ... : ... .. . ...
ROW 1A : ... .. . ... : ... .. . ... : A-2 00 . ... : ... .. . ... : ... .. . ...
ROW 1B : ... .. . ... : ... .. . ... : A#2 00 . ... : ... .. . ... : ... .. . ...
ROW 1C : ... .. . ... : ... .. . ... : A-2 00 . ... : ... .. . ... : ... .. . ...
ROW 1D : ... .. . ... : ... .. . ... : A#2 00 . ... : ... .. . ... : ... .. . ...
ROW 1E : ... .. . ... : ... .. . ... : A-2 00 . ... : ... .. . ... : ... .. . ...
ROW 1F : ... .. . ... : ... .. . ... : A#2 00 . ... : ... .. . ... : ... .. . ...
ROW 20 : A-2 07 . ... : E-4 07 . ... : A-2 00 . ... : ... .. . ... : ... .. . ...
ROW 21 : ... .. . ... : ... .. . ... : ... .. . ... : ... .. . ... : ... .. . ...
ROW 22 : ... .. . ... : ... .. . ... : ... .. . ... : ... .. . ... : ... .. . ...
ROW 23 : ... .. . ... : ... .. . ... : ... .. . ... : ... .. . ... : ... .. . ...
ROW 24 : ... .. . ... : D-4 07 . ... : A#2 00 . ... : ... .. . ... : ... .. . ...
ROW 25 : ... .. . ... : ... .. . ... : ... .. . ... : ... .. . ... : ... .. . ...
ROW 26 : ... .. . ... : ... .. . ... : ... .. . ... : ... .. . ... : ... .. . ...
ROW 27 : ... .. . ... : ... .. . ... : ... .. . ... : ... .. . ... : ... .. . ...
ROW 28 : A-2 07 . ... : C#4 07 . ... : G-2 00 . ... : ... .. . ... : ... .. . ...
ROW 29 : ... .. . ... : ... .. . ... : ... .. . ... : ... .. . ... : ... .. . ...
ROW 2A : ... .. . ... : ... .. . ... : ... .. . ... : ... .. . ... : ... .. . ...
ROW 2B : ... .. . ... : ... .. . ... : ... .. . ... : ... .. . ... : ... .. . ...
ROW 2C : ... .. . ... : B-3 07 . ... : D-2 00 . ... : ... .. . ... : ... .. . ...
ROW 2D : ... .. . ... : ... .. . ... : ... .. . ... : ... .. . ... : ... .. . ...
ROW 2E : ... .. . ... : ... .. . ... : ... .. . ... : ... .. . ... : ... .. . ...
ROW 2F : ... .. . ... : ... .. . ... : ... .. . ... : ... .. . ... : ... .. . ...
ROW 30 : F#2 07 . ... : D-4 07 . ... : D-3 00 . ... : ... .. . ... : ... .. . ...
ROW 31 : ... .. . ... : ... .. . ... : ... .. . ... : ... .. . ... : ... .. . ...
ROW 32 : ... .. . ... : ... .. . ... : ... .. . ... : ... .. . ... : ... .. . ...
ROW 33 : ... .. . ... : ... .. . ... : ... .. . ... : ... .. . ... : ... .. . ...
ROW 34 : ... .. . ... : ... .. . ... : ... .. . ... : ... .. . ... : ... .. . ...
ROW 35 : ... .. . ... : ... .. . ... : ... .. . ... : ... .. . ... : ... .. . ...
ROW 36 : ... .. . ... : ... .. . ... : ... .. . ... : ... .. . ... : ... .. . ...
ROW 37 : ... .. . ... : ... .. . ... : ... .. . ... : ... .. . ... : ... .. . ...
ROW 38 : ... .. . ... : ... .. . ... : ... .. . ... : ... .. . ... : ... .. . ...
ROW 39 : ... .. . ... : ... .. . ... : ... .. . ... : ... .. . ... : ... .. . ...
ROW 3A : ... .. . ... : ... .. . ... : ... .. . ... : ... .. . ... : ... .. . ...
ROW 3B : ... .. . ... : ... .. . ... : ... .. . ... : ... .. . ... : ... .. . ...
ROW 3C : ... .. . ... : ... .. . ... : ... .. . ... : ... .. . ... : ... .. . ...
ROW 3D : ... .. . ... : ... .. . ... : ... .. . ... : ... .. . ... : ... .. . ...
ROW 3E : ... .. . ... : ... .. . ... : ... .. . ... : ... .. . ... : ... .. . ...
ROW 3F : ... .. . ... : ... .. . ... : ... .. . ... : ... .. . ... : ... .. . ...
ROW 40 : G#2 07 . ... : E-4 07 . ... : E-2 00 . ... : ... .. . ... : ... .. . ...
ROW 41 : ... .. . ... : ... .. . ... : ... .. . ... : ... .. . ... : ... .. . ...
ROW 42 : ... .. . ... : ... .. . ... : ... .. . ... : ... .. . ... : ... .. . ...
ROW 43 : ... .. . ... : ... .. . ... : ... .. . ... : ... .. . ... : ... .. . ...
ROW 44 : ... .. . ... : ... .. . ... : ... .. . ... : ... .. . ... : ... .. . ...
ROW 45 : ... .. . ... : ... .. . ... : ... .. . ... : ... .. . ... : ... .. . ...
ROW 46 : A-2 07 . ... : ... .. . ... : ... .. . ... : ... .. . ... : ... .. . ...
ROW 47 : ... .. . ... : ... .. . ... : ... .. . ... : ... .. . ... : ... .. . ...
ROW 48 : G#2 07 . ... : ... .. . ... : ... .. . ... : ... .. . ... : ... .. . ...
ROW 49 : ... .. . ... : ... .. . ... : ... .. . ... : ... .. . ... : ... .. . ...
ROW 4A : ... .. . ... : ... .. . ... : ... .. . ... : ... .. . ... : ... .. . ...
ROW 4B : ... .. . ... : ... .. . ... : ... .. . ... : ... .. . ... : ... .. . ...
ROW 4C : F#2 07 . ... : ... .. . ... : ... .. . ... : ... .. . ... : ... .. . ...
ROW 4D : ... .. . ... : ... .. . ... : ... .. . ... : ... .. . ... : ... .. . ...
ROW 4E : ... .. . ... : ... .. . ... : ... .. . ... : ... .. . ... : ... .. . ...
ROW 4F : ... .. . ... : ... .. . ... : ... .. . ... : ... .. . ... : ... .. . ...

PATTERN 03
ROW 00 : A-2 07 . ... : A-3 07 . ... : A-2 00 . ... : ... .. . ... : ... .. . ...
ROW 01 : ... .. . ... : ... .. . ... : ... .. . ... : ... .. . ... : ... .. . ...
ROW 02 : ... .. . ... : ... .. . ... : ... .. . ... : ... .. . ... : ... .. . ...
ROW 03 : ... .. . ... : ... .. . ... : ... .. . ... : ... .. . ... : ... .. . ...
ROW 04 : ... .. . ... : ... .. . ... : ... .. . ... : ... .. . ... : ... .. . ...
ROW 05 : ... .. . ... : ... .. . ... : ... .. . ... : ... .. . ... : ... .. . ...
ROW 06 : ... .. . ... : ... .. . ... : ... .. . ... : ... .. . ... : ... .. . ...
ROW 07 : ... .. . ... : ... .. . ... : ... .. . ... : ... .. . ... : ... .. . ...
ROW 08 : ... .. . ... : ... .. . ... : E-3 00 . ... : ... .. . ... : ... .. . ...
ROW 09 : ... .. . ... : ... .. . ... : ... .. . ... : ... .. . ... : ... .. . ...
ROW 0A : ... .. . ... : E-3 07 . ... : ... .. . ... : ... .. . ... : ... .. . ...
ROW 0B : ... .. . ... : ... .. . ... : ... .. . ... : ... .. . ... : ... .. . ...
ROW 0C : ... .. . ... : F-3 07 . ... : F-3 00 . ... : ... .. . ... : ... .. . ...
ROW 0D : ... .. . ... : ... .. . ... : ... .. . ... : ... .. . ... : ... .. . ...
ROW 0E : ... .. . ... : D-3 07 . ... : ... .. . ... : ... .. . ... : ... .. . ...
ROW 0F : ... .. . ... : ... .. . ... : ... .. . ... : ... .. . ... : ... .. . ...
ROW 10 : A-2 07 . ... : A-3 07 . ... : A-2 00 . ... : ... .. . ... : ... .. . ...
ROW 11 : ... .. . ... : ... .. . ... : ... .. . ... : ... .. . ... : ... .. . ...
ROW 12 : ... .. . ... : ... .. . ... : ... .. . ... : ... .. . ... : ... .. . ...
ROW 13 : ... .. . ... : ... .. . ... : ... .. . ... : ... .. . ... : ... .. . ...
ROW 14 : ... .. . ... : ... .. . ... : ... .. . ... : ... .. . ... : ... .. . ...
ROW 15 : ... .. . ... : ... .. . ... : ... .. . ... : ... .. . ... : ... .. . ...
ROW 16 : ... .. . ... : ... .. . ... : ... .. . ... : ... .. . ... : ... .. . ...
ROW 17 : ... .. . ... : A#3 07 . ... : ... .. . ... : ... .. . ... : ... .. . ...
ROW 18 : A-2 07 . ... : A-3 07 . ... : G-3 00 . ... : ... .. . ... : ... .. . ...
ROW 19 : ... .. . ... : ... .. . ... : ... .. . ... : ... .. . ... : ... .. . ...
ROW 1A : ... .. . ... : ... .. . ... : ... .. . ... : ... .. . ... : ... .. . ...
ROW 1B : ... .. . ... : ... .. . ... : ... .. . ... : ... .. . ... : ... .. . ...
ROW 1C : A#2 07 . ... : ... .. . ... : F-3 00 . ... : ... .. . ... : ... .. . ...
ROW 1D : ... .. . ... : ... .. . ... : ... .. . ... : ... .. . ... : ... .. . ...
ROW 1E : ... .. . ... : ... .. . ... : ... .. . ... : ... .. . ... : ... .. . ...
ROW 1F : ... .. . ... : ... .. . ... : ... .. . ... : ... .. . ... : ... .. . ...
ROW 20 : C-3 07 . ... : E-3 07 . ... : E-2 00 . ... : ... .. . ... : ... .. . ...
ROW 21 : ... .. . ... : ... .. . ... : ... .. . ... : ... .. . ... : ... .. . ...
ROW 22 : ... .. . ... : ... .. . ... : ... .. . ... : ... .. . ... : ... .. . ...
ROW 23 : ... .. . ... : ... .. . ... : ... .. . ... : ... .. . ... : ... .. . ...
ROW 24 : ... .. . ... : ... .. . ... : ... .. . ... : ... .. . ... : ... .. . ...
ROW 25 : ... .. . ... : ... .. . ... : ... .. . ... : ... .. . ... : ... .. . ...
ROW 26 : ... .. . ... : ... .. . ... : ... .. . ... : ... .. . ... : ... .. . ...
ROW 27 : ... .. . ... : ... .. . ... : ... .. . ... : ... .. . ... : ... .. . ...
ROW 28 : C-2 07 . ... : ... .. . ... : ... .. . ... : ... .. . ... : ... .. . ...
ROW 29 : ... .. . ... : ... .. . ... : ... .. . ... : ... .. . ... : ... .. . ...
ROW 2A : ... .. . ... : ... .. . ... : ... .. . ... : ... .. . ... : ... .. . ...
ROW 2B : ... .. . ... : ... .. . ... : ... .. . ... : ... .. . ... : ... .. . ...
ROW 2C : ... .. . ... : ... .. . ... : ... .. . ... : ... .. . ... : ... .. . ...
ROW 2D : ... .. . ... : ... .. . ... : ... .. . ... : ... .. . ... : ... .. . ...
ROW 2E : ... .. . ... : ... .. . ... : ... .. . ... : ... .. . ... : ... .. . ...
ROW 2F : ... .. . ... : ... .. . ... : ... .. . ... : ... .. . ... : ... .. . ...
ROW 30 : C-3 07 . ... : E-3 07 . ... : C-3 00 . ... : ... .. . ... : ... .. . ...
ROW 31 : ... .. . ... : ... .. . ... : ... .. . ... : ... .. . ... : ... .. . ...
ROW 32 : ... .. . ... : ... .. . ... : ... .. . ... : ... .. . ... : ... .. . ...
ROW 33 : ... .. . ... : ... .. . ... : --- 00 . ... : ... .. . ... : ... .. . ...
ROW 34 : ... .. . ... : ... .. . ... : A#2 00 . ... : ... .. . ... : ... .. . ...
ROW 35 : ... .. . ... : ... .. . ... : ... .. . ... : ... .. . ... : ... .. . ...
ROW 36 : ... .. . ... : ... .. . ... : ... .. . ... : ... .. . ... : ... .. . ...
ROW 37 : ... .. . ... : ... .. . ... : --- .. . ... : ... .. . ... : ... .. . ...
ROW 38 : C-2 07 . ... : ... .. . ... : G-2 00 . ... : ... .. . ... : ... .. . ...
ROW 39 : ... .. . ... : ... .. . ... : ... .. . ... : ... .. . ... : ... .. . ...
ROW 3A : ... .. . ... : ... .. . ... : ... .. . ... : ... .. . ... : ... .. . ...
ROW 3B : ... .. . ... : ... .. . ... : --- .. . ... : ... .. . ... : ... .. . ...
ROW 3C : ... .. . ... : ... .. . ... : E-2 00 . ... : ... .. . ... : ... .. . ...
ROW 3D : ... .. . ... : ... .. . ... : ... .. . ... : ... .. . ... : ... .. . ...
ROW 3E : ... .. . ... : ... .. . ... : ... .. . ... : ... .. . ... : ... .. . ...
ROW 3F : ... .. . D00 : ... .. . ... : --- .. . ... : ... .. . ... : ... .. . ...
ROW 40 : ... .. . ... : ... .. . ... : ... .. . ... : ... .. . ... : ... .. . ...
ROW 41 : ... .. . ... : ... .. . ... : ... .. . ... : ... .. . ... : ... .. . ...
ROW 42 : ... .. . ... : ... .. . ... : ... .. . ... : ... .. . ... : ... .. . ...
ROW 43 : ... .. . ... : ... .. . ... : ... .. . ... : ... .. . ... : ... .. . ...
ROW 44 : ... .. . ... : ... .. . ... : ... .. . ... : ... .. . ... : ... .. . ...
ROW 45 : ... .. . ... : ... .. . ... : ... .. . ... : ... .. . ... : ... .. . ...
ROW 46 : ... .. . ... : ... .. . ... : ... .. . ... : ... .. . ... : ... .. . ...
ROW 47 : ... .. . ... : ... .. . ... : ... .. . ... : ... .. . ... : ... .. . ...
ROW 48 : ... .. . ... : ... .. . ... : ... .. . ... : ... .. . ... : ... .. . ...
ROW 49 : ... .. . ... : ... .. . ... : ... .. . ... : ... .. . ... : ... .. . ...
ROW 4A : ... .. . ... : ... .. . ... : ... .. . ... : ... .. . ... : ... .. . ...
ROW 4B : ... .. . ... : ... .. . ... : ... .. . ... : ... .. . ... : ... .. . ...
ROW 4C : ... .. . ... : ... .. . ... : ... .. . ... : ... .. . ... : ... .. . ...
ROW 4D : ... .. . ... : ... .. . ... : ... .. . ... : ... .. . ... : ... .. . ...
ROW 4E : ... .. . ... : ... .. . ... : ... .. . ... : ... .. . ... : ... .. . ...
ROW 4F : ... .. . ... : ... .. . ... : ... .. . ... : ... .. . ... : ... .. . ...

PATTERN 04
ROW 00 : C-3 07 . ... : F-3 01 . ... : C-3 00 . ... : ... .. . ... : ... .. . ...
ROW 01 : ... .. . ... : ... .. . ... : ... .. . ... : ... .. . ... : ... .. . ...
ROW 02 : ... .. . ... : F-2 01 . ... : ... .. . ... : ... .. . ... : ... .. . ...
ROW 03 : ... .. . ... : ... .. . ... : ... .. . ... : ... .. . ... : ... .. . ...
ROW 04 : F-2 07 . ... : A-2 01 . ... : ... .. . ... : ... .. . ... : ... .. . ...
ROW 05 : ... .. . ... : ... .. . ... : ... .. . ... : ... .. . ... : ... .. . ...
ROW 06 : ... .. . ... : F-2 01 . ... : ... .. . ... : ... .. . ... : ... .. . ...
ROW 07 : ... .. . ... : ... .. . ... : ... .. . ... : ... .. . ... : ... .. . ...
ROW 08 : F-3 07 . ... : F-3 01 . ... : ... .. . ... : ... .. . ... : ... .. . ...
ROW 09 : ... .. . ... : ... .. . ... : ... .. . ... : ... .. . ... : ... .. . ...
ROW 0A : ... .. . ... : F-2 01 . ... : ... .. . ... : ... .. . ... : ... .. . ...
ROW 0B : ... .. . ... : ... .. . ... : ... .. . ... : ... .. . ... : ... .. . ...
ROW 0C : F-2 07 . ... : A-2 01 . ... : ... .. . ... : ... .. . ... : ... .. . ...
ROW 0D : ... .. . ... : ... .. . ... : ... .. . ... : ... .. . ... : ... .. . ...
ROW 0E : ... .. . ... : F-2 01 . ... : ... .. . ... : ... .. . ... : ... .. . ...
ROW 0F : ... .. . ... : ... .. . ... : ... .. . ... : ... .. . ... : ... .. . ...
ROW 10 : G-3 07 . ... : --- .. . ... : G-2 00 . ... : ... .. . ... : ... .. . ...
ROW 11 : ... .. . ... : ... .. . ... : ... .. . ... : ... .. . ... : ... .. . ...
ROW 12 : ... .. . ... : ... .. . ... : ... .. . ... : ... .. . ... : ... .. . ...
ROW 13 : ... .. . ... : ... .. . ... : ... .. . ... : ... .. . ... : ... .. . ...
ROW 14 : C-3 07 . ... : ... .. . ... : F-2 00 . ... : ... .. . ... : ... .. . ...
ROW 15 : ... .. . ... : ... .. . ... : ... .. . ... : ... .. . ... : ... .. . ...
ROW 16 : F-3 07 . ... : F-2 07 . ... : ... .. . ... : ... .. . ... : ... .. . ...
ROW 17 : ... .. . ... : ... .. . ... : ... .. . ... : ... .. . ... : ... .. . ...
ROW 18 : D-3 07 . ... : ... .. . ... : D-2 00 . ... : ... .. . ... : ... .. . ...
ROW 19 : ... .. . ... : ... .. . ... : ... .. . ... : ... .. . ... : ... .. . ...
ROW 1A : ... .. . ... : ... .. . ... : ... .. . ... : ... .. . ... : ... .. . ...
ROW 1B : ... .. . ... : ... .. . ... : ... .. . ... : ... .. . ... : ... .. . ...
ROW 1C : ... .. . ... : ... .. . ... : ... .. . ... : ... .. . ... : ... .. . ...
ROW 1D : ... .. . ... : ... .. . ... : ... .. . ... : ... .. . ... : ... .. . ...
ROW 1E : ... .. . ... : ... .. . ... : ... .. . ... : ... .. . ... : ... .. . ...
ROW 1F : ... .. . ... : ... .. . ... : ... .. . ... : ... .. . ... : ... .. . ...
ROW 20 : ... .. . ... : A-2 01 . ... : A-2 00 . ... : ... .. . ... : ... .. . ...
ROW 21 : ... .. . ... : ... .. . ... : ... .. . ... : ... .. . ... : ... .. . ...
ROW 22 : ... .. . ... : ... .. . ... : ... .. . ... : ... .. . ... : ... .. . ...
ROW 23 : ... .. . ... : ... .. . ... : ... .. . ... : ... .. . ... : ... .. . ...
ROW 24 : ... .. . ... : F-3 01 . ... : ... .. . ... : ... .. . ... : ... .. . ...
ROW 25 : ... .. . ... : ... .. . ... : ... .. . ... : ... .. . ... : ... .. . ...
ROW 26 : ... .. . ... : ... .. . ... : ... .. . ... : ... .. . ... : ... .. . ...
ROW 27 : ... .. . ... : ... .. . ... : ... .. . ... : ... .. . ... : ... .. . ...
ROW 28 : A-2 07 . ... : E-3 01 . ... : ... .. . ... : ... .. . ... : ... .. . ...
ROW 29 : ... .. . ... : ... .. . ... : ... .. . ... : ... .. . ... : ... .. . ...
ROW 2A : ... .. . ... : ... .. . ... : ... .. . ... : ... .. . ... : ... .. . ...
ROW 2B : ... .. . ... : ... .. . ... : ... .. . ... : ... .. . ... : ... .. . ...
ROW 2C : ... .. . ... : D-3 01 . ... : ... .. . ... : ... .. . ... : ... .. . ...
ROW 2D : ... .. . ... : ... .. . ... : ... .. . ... : ... .. . ... : ... .. . ...
ROW 2E : ... .. . ... : ... .. . ... : ... .. . ... : ... .. . ... : ... .. . ...
ROW 2F : ... .. . ... : ... .. . ... : ... .. . ... : ... .. . ... : ... .. . ...
ROW 30 : E-3 07 . ... : F-3 01 . ... : ... .. . ... : ... .. . ... : ... .. . ...
ROW 31 : ... .. . ... : ... .. . ... : ... .. . ... : ... .. . ... : ... .. . ...
ROW 32 : ... .. . ... : ... .. . ... : ... .. . ... : ... .. . ... : ... .. . ...
ROW 33 : ... .. . ... : ... .. . ... : ... .. . ... : ... .. . ... : ... .. . ...
ROW 34 : ... .. . ... : G-3 01 . ... : ... .. . ... : ... .. . ... : ... .. . ...
ROW 35 : ... .. . ... : ... .. . ... : ... .. . ... : ... .. . ... : ... .. . ...
ROW 36 : ... .. . ... : ... .. . ... : ... .. . ... : ... .. . ... : ... .. . ...
ROW 37 : ... .. . ... : ... .. . ... : ... .. . ... : ... .. . ... : ... .. . ...
ROW 38 : F-3 07 . ... : F-3 01 . ... : ... .. . ... : ... .. . ... : ... .. . ...
ROW 39 : ... .. . ... : ... .. . ... : ... .. . ... : ... .. . ... : ... .. . ...
ROW 3A : ... .. . ... : ... .. . ... : ... .. . ... : ... .. . ... : ... .. . ...
ROW 3B : ... .. . ... : ... .. . ... : ... .. . ... : ... .. . ... : ... .. . ...
ROW 3C : ... .. . ... : E-3 01 . ... : ... .. . ... : ... .. . ... : ... .. . ...
ROW 3D : ... .. . ... : ... .. . ... : ... .. . ... : ... .. . ... : ... .. . ...
ROW 3E : ... .. . ... : ... .. . ... : ... .. . ... : ... .. . ... : ... .. . ...
ROW 3F : ... .. . B00 : ... .. . ... : ... .. . ... : ... .. . ... : ... .. . ...
ROW 40 : ... .. . ... : ... .. . ... : ... .. . ... : ... .. . ... : ... .. . ...
ROW 41 : ... .. . ... : ... .. . ... : ... .. . ... : ... .. . ... : ... .. . ...
ROW 42 : ... .. . ... : ... .. . ... : ... .. . ... : ... .. . ... : ... .. . ...
ROW 43 : ... .. . ... : ... .. . ... : ... .. . ... : ... .. . ... : ... .. . ...
ROW 44 : ... .. . ... : ... .. . ... : ... .. . ... : ... .. . ... : ... .. . ...
ROW 45 : ... .. . ... : ... .. . ... : ... .. . ... : ... .. . ... : ... .. . ...
ROW 46 : ... .. . ... : ... .. . ... : ... .. . ... : ... .. . ... : ... .. . ...
ROW 47 : ... .. . ... : ... .. . ... : ... .. . ... : ... .. . ... : ... .. . ...
ROW 48 : ... .. . ... : ... .. . ... : ... .. . ... : ... .. . ... : ... .. . ...
ROW 49 : ... .. . ... : ... .. . ... : ... .. . ... : ... .. . ... : ... .. . ...
ROW 4A : ... .. . ... : ... .. . ... : ... .. . ... : ... .. . ... : ... .. . ...
ROW 4B : ... .. . ... : ... .. . ... : ... .. . ... : ... .. . ... : ... .. . ...
ROW 4C : ... .. . ... : ... .. . ... : ... .. . ... : ... .. . ... : ... .. . ...
ROW 4D : ... .. . ... : ... .. . ... : ... .. . ... : ... .. . ... : ... .. . ...
ROW 4E : ... .. . ... : ... .. . ... : ... .. . ... : ... .. . ... : ... .. . ...
ROW 4F : ... .. . ... : ... .. . ... : ... .. . ... : ... .. . ... : ... .. . ...

TRACK  64  10 150 "Ingame 2"
COLUMNS : 1 1 1 1 1

ORDER 00 : 04 03 00 01 00
ORDER 01 : 00 00 00 00 00
ORDER 02 : 00 00 00 00 00
ORDER 03 : 01 01 01 00 01
ORDER 04 : 01 01 01 00 01
ORDER 05 : 00 00 00 00 01
ORDER 06 : 00 00 00 00 02
ORDER 07 : 01 01 01 00 02
ORDER 08 : 01 01 01 00 02
ORDER 09 : 02 02 02 00 02
ORDER 0A : 02 02 02 00 02
ORDER 0B : 03 00 00 02 03

PATTERN 00
ROW 00 : A-4 07 . ... : A-3 0C . ... : A-1 00 . ... : 0-# 05 . ... : ... .. . ...
ROW 01 : C-5 07 . ... : ... .. . ... : ... .. . ... : 7-# 06 . ... : ... .. . ...
ROW 02 : E-5 07 . ... : ... .. . ... : ... .. . ... : 0-# 05 . ... : ... .. . ...
ROW 03 : C-5 0A . ... : ... .. . ... : ... .. . ... : 5-# 06 . ... : ... .. . ...
ROW 04 : E-5 0A . ... : ... .. . ... : ... .. . ... : 4-# 04 . ... : ... .. . ...
ROW 05 : C-5 0B . ... : ... .. . ... : ... .. . ... : 5-# 06 . ... : ... .. . ...
ROW 06 : A-4 07 . ... : ... .. . ... : C-2 00 . ... : 0-# 05 . ... : ... .. . ...
ROW 07 : C-5 07 . ... : ... .. . ... : ... .. . ... : 2-# 04 . ... : ... .. . ...
ROW 08 : E-5 07 . ... : ... .. . ... : ... .. . ... : 0-# 05 . ... : ... .. . ...
ROW 09 : C-5 0A . ... : ... .. . ... : ... .. . ... : 2-# 04 . ... : ... .. . ...
ROW 0A : E-5 0A . ... : ... .. . ... : ... .. . ... : 0-# 05 . ... : ... .. . ...
ROW 0B : C-5 0B . ... : ... .. . ... : ... .. . ... : 4-# 06 . ... : ... .. . ...
ROW 0C : E-5 0B . ... : ... .. . ... : ... .. . ... : 0-# 04 . ... : ... .. . ...
ROW 0D : ... .. . ... : ... .. . ... : ... .. . ... : 7-# 06 . ... : ... .. . ...
ROW 0E : ... .. . ... : ... .. . ... : ... .. . ... : 9-# 06 . ... : ... .. . ...
ROW 0F : ... .. . ... : ... .. . ... : ... .. . ... : B-# 06 . ... : ... .. . ...
ROW 10 : A-4 07 . ... : ... .. . ... : B-1 00 . ... : 0-# 05 . ... : ... .. . ...
ROW 11 : B-4 07 . ... : ... .. . ... : ... .. . ... : 7-# 06 . ... : ... .. . ...
ROW 12 : E-5 07 . ... : ... .. . ... : ... .. . ... : 0-# 05 . ... : ... .. . ...
ROW 13 : B-4 0A . ... : ... .. . ... : ... .. . ... : 5-# 06 . ... : ... .. . ...
ROW 14 : E-5 0A . ... : ... .. . ... : ... .. . ... : 4-# 04 . ... : ... .. . ...
ROW 15 : B-4 0B . ... : ... .. . ... : ... .. . ... : 5-# 06 . ... : ... .. . ...
ROW 16 : A-4 07 . ... : ... .. . ... : D-2 00 . ... : 0-# 05 . ... : ... .. . ...
ROW 17 : D-5 07 . ... : ... .. . ... : ... .. . ... : 2-# 04 . ... : ... .. . ...
ROW 18 : E-5 07 . ... : ... .. . ... : ... .. . ... : 0-# 05 . ... : ... .. . ...
ROW 19 : D-5 0A . ... : ... .. . ... : ... .. . ... : 2-# 04 . ... : ... .. . ...
ROW 1A : E-5 0A . ... : ... .. . ... : ... .. . ... : 0-# 05 . ... : ... .. . ...
ROW 1B : D-5 0B . ... : ... .. . ... : ... .. . ... : 4-# 06 . ... : ... .. . ...
ROW 1C : E-5 0B . ... : ... .. . ... : ... .. . ... : 0-# 04 . ... : ... .. . ...
ROW 1D : ... .. . ... : ... .. . ... : ... .. . ... : 4-# 04 . ... : ... .. . ...
ROW 1E : ... .. . ... : G-3 0C . ... : ... .. . ... : 0-# 04 . ... : ... .. . ...
ROW 1F : ... .. . ... : ... .. . ... : ... .. . ... : 4-# 04 . ... : ... .. . ...
ROW 20 : A-4 07 . ... : A-3 0C . ... : A-1 00 . ... : 0-# 05 . ... : ... .. . ...
ROW 21 : C-5 07 . ... : ... .. . ... : ... .. . ... : 7-# 06 . ... : ... .. . ...
ROW 22 : E-5 07 . ... : ... .. . ... : ... .. . ... : 0-# 05 . ... : ... .. . ...
ROW 23 : C-5 0A . ... : ... .. . ... : ... .. . ... : 5-# 06 . ... : ... .. . ...
ROW 24 : E-5 0A . ... : ... .. . ... : ... .. . ... : 4-# 04 . ... : ... .. . ...
ROW 25 : C-5 0B . ... : ... .. . ... : ... .. . ... : 5-# 06 . ... : ... .. . ...
ROW 26 : A-4 07 . ... : ... .. . ... : C-2 00 . ... : 0-# 05 . ... : ... .. . ...
ROW 27 : C-5 07 . ... : ... .. . ... : ... .. . ... : 2-# 04 . ... : ... .. . ...
ROW 28 : E-5 07 . ... : ... .. . ... : ... .. . ... : 0-# 05 . ... : ... .. . ...
ROW 29 : C-5 0A . ... : ... .. . ... : ... .. . ... : 2-# 04 . ... : ... .. . ...
ROW 2A : E-5 0A . ... : ... .. . ... : ... .. . ... : 0-# 05 . ... : ... .. . ...
ROW 2B : C-5 0B . ... : ... .. . ... : ... .. . ... : 4-# 06 . ... : ... .. . ...
ROW 2C : E-5 0B . ... : ... .. . ... : ... .. . ... : 0-# 04 . ... : ... .. . ...
ROW 2D : ... .. . ... : ... .. . ... : ... .. . ... : 7-# 06 . ... : ... .. . ...
ROW 2E : ... .. . ... : ... .. . ... : ... .. . ... : 9-# 06 . ... : ... .. . ...
ROW 2F : ... .. . ... : ... .. . ... : ... .. . ... : B-# 06 . ... : ... .. . ...
ROW 30 : A-4 07 . ... : ... .. . ... : B-1 00 . ... : 0-# 05 . ... : ... .. . ...
ROW 31 : B-4 07 . ... : ... .. . ... : ... .. . ... : 7-# 06 . ... : ... .. . ...
ROW 32 : E-5 07 . ... : ... .. . ... : ... .. . ... : 0-# 05 . ... : ... .. . ...
ROW 33 : B-4 0A . ... : ... .. . ... : ... .. . ... : 5-# 06 . ... : ... .. . ...
ROW 34 : E-5 0A . ... : ... .. . ... : ... .. . ... : 4-# 04 . ... : ... .. . ...
ROW 35 : B-4 0B . ... : ... .. . ... : ... .. . ... : 5-# 06 . ... : ... .. . ...
ROW 36 : A-4 07 . ... : ... .. . ... : D-2 00 . ... : 0-# 05 . ... : ... .. . ...
ROW 37 : D-5 07 . ... : ... .. . ... : ... .. . ... : 2-# 04 . ... : ... .. . ...
ROW 38 : E-5 07 . ... : --- .. . ... : --- .. . ... : 0-# 05 . ... : ... .. . ...
ROW 39 : D-5 0A . ... : ... .. . ... : ... .. . ... : 2-# 04 . ... : ... .. . ...
ROW 3A : E-5 0A . ... : ... .. . ... : ... .. . ... : 0-# 05 . ... : ... .. . ...
ROW 3B : D-5 0B . ... : ... .. . ... : ... .. . ... : 4-# 06 . ... : ... .. . ...
ROW 3C : E-5 0B . ... : ... .. . ... : ... .. . ... : 0-# 04 . ... : ... .. . ...
ROW 3D : ... .. . ... : ... .. . ... : ... .. . ... : 4-# 04 . ... : ... .. . ...
ROW 3E : ... .. . ... : G-3 0C . ... : ... .. . ... : 0-# 04 . ... : ... .. . ...
ROW 3F : ... .. . ... : ... .. . ... : ... .. . ... : 4-# 04 . ... : ... .. . ...

PATTERN 01
ROW 00 : B-4 07 . ... : B-3 0C . ... : B-1 00 . ... : ... .. . ... : ... .. . ...
ROW 01 : E-5 07 . ... : ... .. . ... : ... .. . ... : ... .. . ... : ... .. . ...
ROW 02 : F#5 07 . ... : E-3 0C . ... : ... .. . ... : ... .. . ... : ... .. . ...
ROW 03 : E-5 0A . ... : ... .. . ... : ... .. . ... : ... .. . ... : ... .. . ...
ROW 04 : F#5 0A . ... : ... .. . ... : ... .. . ... : ... .. . ... : ... .. . ...
ROW 05 : E-5 0B . ... : ... .. . ... : ... .. . ... : ... .. . ... : ... .. . ...
ROW 06 : B-4 07 . ... : B-3 0C . ... : E-2 00 . ... : ... .. . ... : ... .. . ...
ROW 07 : E-5 07 . ... : ... .. . ... : ... .. . ... : ... .. . ... : ... .. . ...
ROW 08 : G-5 07 . ... : E-3 0C . ... : ... .. . ... : ... .. . ... : ... .. . ...
ROW 09 : E-5 0A . ... : ... .. . ... : ... .. . ... : ... .. . ... : ... .. . ...
ROW 0A : G-5 0A . ... : ... .. . ... : ... .. . ... : ... .. . ... : ... .. . ...
ROW 0B : E-5 0B . ... : ... .. . ... : ... .. . ... : ... .. . ... : ... .. . ...
ROW 0C : G-5 0B . ... : B-3 0C . ... : ... .. . ... : ... .. . ... : ... .. . ...
ROW 0D : ... .. . ... : ... .. . ... : ... .. . ... : ... .. . ... : ... .. . ...
ROW 0E : ... .. . ... : ... .. . ... : ... .. . ... : ... .. . ... : ... .. . ...
ROW 0F : ... .. . ... : ... .. . ... : ... .. . ... : ... .. . ... : ... .. . ...
ROW 10 : A-4 07 . ... : C#4 0C . ... : A-2 00 . ... : ... .. . ... : ... .. . ...
ROW 11 : C#5 07 . ... : ... .. . ... : ... .. . ... : ... .. . ... : ... .. . ...
ROW 12 : E-5 07 . ... : B-3 0C . ... : ... .. . ... : ... .. . ... : ... .. . ...
ROW 13 : C#5 0A . ... : ... .. . ... : ... .. . ... : ... .. . ... : ... .. . ...
ROW 14 : E-5 0A . ... : ... .. . ... : C#2 00 . ... : ... .. . ... : ... .. . ...
ROW 15 : C#5 0B . ... : ... .. . ... : ... .. . ... : ... .. . ... : ... .. . ...
ROW 16 : A-4 07 . ... : D-4 0C . ... : A-1 00 . ... : ... .. . ... : ... .. . ...
ROW 17 : C#5 07 . ... : ... .. . ... : ... .. . ... : ... .. . ... : ... .. . ...
ROW 18 : F#5 07 . ... : D-4 0C . ... : ... .. . ... : ... .. . ... : ... .. . ...
ROW 19 : C#5 0A . ... : ... .. . ... : ... .. . ... : ... .. . ... : ... .. . ...
ROW 1A : F#5 0A . ... : C#4 0C . ... : ... .. . ... : ... .. . ... : ... .. . ...
ROW 1B : C#5 0B . ... : ... .. . ... : ... .. . ... : ... .. . ... : ... .. . ...
ROW 1C : F#5 0B . ... : B-3 0C . ... : ... .. . ... : ... .. . ... : ... .. . ...
ROW 1D : ... .. . ... : ... .. . ... : ... .. . ... : ... .. . ... : ... .. . ...
ROW 1E : ... .. . ... : C#4 0C . ... : A-2 00 . ... : ... .. . ... : ... .. . ...
ROW 1F : ... .. . ... : ... .. . ... : ... .. . ... : ... .. . ... : ... .. . ...
ROW 20 : B-4 07 . ... : B-3 0C . ... : B-1 00 . ... : 0-# 05 . ... : ... .. . ...
ROW 21 : E-5 07 . ... : ... .. . ... : ... .. . ... : 7-# 06 . ... : ... .. . ...
ROW 22 : F#5 07 . ... : E-3 0C . ... : ... .. . ... : 0-# 05 . ... : ... .. . ...
ROW 23 : E-5 0A . ... : ... .. . ... : ... .. . ... : 5-# 06 . ... : ... .. . ...
ROW 24 : F#5 0A . ... : ... .. . ... : ... .. . ... : 4-# 04 . ... : ... .. . ...
ROW 25 : E-5 0B . ... : ... .. . ... : ... .. . ... : 5-# 06 . ... : ... .. . ...
ROW 26 : B-4 07 . ... : B-3 0C . ... : E-2 00 . ... : 0-# 05 . ... : ... .. . ...
ROW 27 : E-5 07 . ... : ... .. . ... : ... .. . ... : 2-# 04 . ... : ... .. . ...
ROW 28 : G-5 07 . ... : E-3 0C . ... : ... .. . ... : 0-# 05 . ... : ... .. . ...
ROW 29 : E-5 0A . ... : ... .. . ... : ... .. . ... : 2-# 04 . ... : ... .. . ...
ROW 2A : G-5 0A . ... : ... .. . ... : ... .. . ... : 0-# 05 . ... : ... .. . ...
ROW 2B : E-5 0B . ... : ... .. . ... : ... .. . ... : 4-# 06 . ... : ... .. . ...
ROW 2C : G-5 0B . ... : B-3 0C . ... : ... .. . ... : 0-# 04 . ... : ... .. . ...
ROW 2D : ... .. . ... : ... .. . ... : ... .. . ... : 7-# 06 . ... : ... .. . ...
ROW 2E : ... .. . ... : ... .. . ... : ... .. . ... : 9-# 06 . ... : ... .. . ...
ROW 2F : ... .. . ... : ... .. . ... : ... .. . ... : B-# 06 . ... : ... .. . ...
ROW 30 : A-4 07 . ... : A-3 0C . ... : A-2 00 . ... : 0-# 05 . ... : ... .. . ...
ROW 31 : C#5 07 . ... : ... .. . ... : ... .. . ... : 7-# 06 . ... : ... .. . ...
ROW 32 : E-5 07 . ... : G-3 0C . ... : ... .. . ... : 0-# 05 . ... : ... .. . ...
ROW 33 : C#5 0A . ... : ... .. . ... : ... .. . ... : 5-# 06 . ... : ... .. . ...
ROW 34 : E-5 0A . ... : ... .. . ... : C#2 00 . ... : 4-# 04 . ... : ... .. . ...
ROW 35 : C#5 0B . ... : ... .. . ... : ... .. . ... : 5-# 06 . ... : ... .. . ...
ROW 36 : A-4 07 . ... : E-3 0C . ... : A-1 00 . ... : 0-# 05 . ... : ... .. . ...
ROW 37 : C#5 07 . ... : ... .. . ... : ... .. . ... : 2-# 04 . ... : ... .. . ...
ROW 38 : F#5 07 . ... : ... .. . ... : ... .. . ... : 0-# 05 . ... : ... .. . ...
ROW 39 : C#5 0A . ... : ... .. . ... : ... .. . ... : 2-# 04 . ... : ... .. . ...
ROW 3A : F#5 0A . ... : G-3 0C . ... : ... .. . ... : 0-# 05 . ... : ... .. . ...
ROW 3B : C#5 0B . ... : ... .. . ... : ... .. . ... : 4-# 06 . ... : ... .. . ...
ROW 3C : F#5 0B . ... : E-3 0C . ... : ... .. . ... : 0-# 04 . ... : ... .. . ...
ROW 3D : ... .. . ... : ... .. . ... : ... .. . ... : 7-# 06 . ... : ... .. . ...
ROW 3E : ... .. . ... : G-3 0C . ... : A-2 00 . ... : 9-# 06 . ... : ... .. . ...
ROW 3F : ... .. . ... : ... .. . ... : ... .. . ... : B-# 06 . ... : ... .. . ...

PATTERN 02
ROW 00 : A-4 07 . ... : A-3 0D . ... : A-1 00 . ... : 0-# 05 . ... : ... .. . ...
ROW 01 : C#5 07 . ... : ... .. . ... : ... .. . ... : 7-# 06 . ... : ... .. . ...
ROW 02 : E-5 07 . ... : E-3 0D . ... : E-2 00 . ... : 0-# 05 . ... : ... .. . ...
ROW 03 : C#5 0A . ... : ... .. . ... : ... .. . ... : 5-# 06 . ... : ... .. . ...
ROW 04 : E-5 0A . ... : G#3 0D . ... : C#2 00 . ... : 4-# 04 . ... : ... .. . ...
ROW 05 : C#5 0B . ... : ... .. . ... : ... .. . ... : 5-# 06 . ... : ... .. . ...
ROW 06 : A-4 07 . ... : A-3 0D . ... : A-1 00 . ... : 0-# 05 . ... : ... .. . ...
ROW 07 : C#5 07 . ... : ... .. . ... : ... .. . ... : 2-# 04 . ... : ... .. . ...
ROW 08 : F#5 07 . ... : ... .. . ... : E-2 00 . ... : 0-# 05 . ... : ... .. . ...
ROW 09 : C#5 0A . ... : ... .. . ... : ... .. . ... : 2-# 04 . ... : ... .. . ...
ROW 0A : F#5 0A . ... : ... .. . ... : C#2 00 . ... : 0-# 05 . ... : ... .. . ...
ROW 0B : C#5 0B . ... : ... .. . ... : ... .. . ... : 4-# 06 . ... : ... .. . ...
ROW 0C : F#5 0B . ... : ... .. . ... : A-1 00 . ... : 0-# 04 . ... : ... .. . ...
ROW 0D : ... .. . ... : ... .. . ... : ... .. . ... : 7-# 06 . ... : ... .. . ...
ROW 0E : ... .. . ... : ... .. . ... : ... .. . ... : 9-# 06 . ... : ... .. . ...
ROW 0F : ... .. . ... : ... .. . ... : ... .. . ... : B-# 06 . ... : ... .. . ...
ROW 10 : F#4 07 . ... : E-4 0D . ... : F#1 00 . ... : 0-# 05 . ... : ... .. . ...
ROW 11 : A-4 07 . ... : ... .. . ... : ... .. . ... : 7-# 06 . ... : ... .. . ...
ROW 12 : E-5 07 . ... : ... .. . ... : A-1 00 . ... : 0-# 05 . ... : ... .. . ...
ROW 13 : A-4 0A . ... : ... .. . ... : ... .. . ... : 5-# 06 . ... : ... .. . ...
ROW 14 : E-5 0A . ... : D-4 0D . ... : C#2 00 . ... : 4-# 04 . ... : ... .. . ...
ROW 15 : A-4 0B . ... : ... .. . ... : ... .. . ... : 5-# 06 . ... : ... .. . ...
ROW 16 : F#4 07 . ... : ... .. . ... : F#1 00 . ... : 0-# 05 . ... : ... .. . ...
ROW 17 : A-4 07 . ... : ... .. . ... : ... .. . ... : 2-# 04 . ... : ... .. . ...
ROW 18 : C#5 07 . ... : C#4 0D . ... : A-1 00 . ... : 0-# 05 . ... : ... .. . ...
ROW 19 : A-4 0A . ... : ... .. . ... : ... .. . ... : 2-# 04 . ... : ... .. . ...
ROW 1A : C#5 0A . ... : B-3 0D . ... : C#2 00 . ... : 0-# 05 . ... : ... .. . ...
ROW 1B : A-4 0B . ... : ... .. . ... : ... .. . ... : 4-# 06 . ... : ... .. . ...
ROW 1C : C#5 0B . ... : A-3 0D . ... : E-2 00 . ... : 0-# 04 . ... : ... .. . ...
ROW 1D : ... .. . ... : ... .. . ... : ... .. . ... : 4-# 04 . ... : ... .. . ...
ROW 1E : ... .. . ... : B-3 0D . ... : F#2 00 . ... : 0-# 04 . ... : ... .. . ...
ROW 1F : ... .. . ... : ... .. . ... : ... .. . ... : 4-# 04 . ... : ... .. . ...
ROW 20 : A-4 07 . ... : A-3 0D . ... : A-1 00 . ... : 0-# 05 . ... : ... .. . ...
ROW 21 : C#5 07 . ... : ... .. . ... : ... .. . ... : 7-# 06 . ... : ... .. . ...
ROW 22 : E-5 07 . ... : E-3 0D . ... : E-2 00 . ... : 0-# 05 . ... : ... .. . ...
ROW 23 : C#5 0A . ... : ... .. . ... : ... .. . ... : 5-# 06 . ... : ... .. . ...
ROW 24 : E-5 0A . ... : G#3 0D . ... : C#2 00 . ... : 4-# 04 . ... : ... .. . ...
ROW 25 : C#5 0B . ... : ... .. . ... : ... .. . ... : 5-# 06 . ... : ... .. . ...
ROW 26 : A-4 07 . ... : A-3 0D . ... : A-1 00 . ... : 0-# 05 . ... : ... .. . ...
ROW 27 : C#5 07 . ... : ... .. . ... : ... .. . ... : 2-# 04 . ... : ... .. . ...
ROW 28 : F#5 07 . ... : ... .. . ... : E-2 00 . ... : 0-# 05 . ... : ... .. . ...
ROW 29 : C#5 0A . ... : ... .. . ... : ... .. . ... : 2-# 04 . ... : ... .. . ...
ROW 2A : F#5 0A . ... : ... .. . ... : C#2 00 . ... : 0-# 05 . ... : ... .. . ...
ROW 2B : C#5 0B . ... : ... .. . ... : ... .. . ... : 4-# 06 . ... : ... .. . ...
ROW 2C : F#5 0B . ... : ... .. . ... : A-1 00 . ... : 0-# 04 . ... : ... .. . ...
ROW 2D : ... .. . ... : ... .. . ... : ... .. . ... : 7-# 06 . ... : ... .. . ...
ROW 2E : ... .. . ... : ... .. . ... : ... .. . ... : 9-# 06 . ... : ... .. . ...
ROW 2F : ... .. . ... : ... .. . ... : ... .. . ... : B-# 06 . ... : ... .. . ...
ROW 30 : F#4 07 . ... : E-4 0D . ... : F#1 00 . ... : 0-# 05 . ... : ... .. . ...
ROW 31 : A-4 07 . ... : ... .. . ... : ... .. . ... : 7-# 06 . ... : ... .. . ...
ROW 32 : E-5 07 . ... : ... .. . ... : A-1 00 . ... : 0-# 05 . ... : ... .. . ...
ROW 33 : A-4 0A . ... : ... .. . ... : ... .. . ... : 5-# 06 . ... : ... .. . ...
ROW 34 : E-5 0A . ... : D-4 0D . ... : C#2 00 . ... : 4-# 04 . ... : ... .. . ...
ROW 35 : A-4 0B . ... : ... .. . ... : ... .. . ... : 5-# 06 . ... : ... .. . ...
ROW 36 : F#4 07 . ... : ... .. . ... : F#1 00 . ... : 0-# 05 . ... : ... .. . ...
ROW 37 : A-4 07 . ... : ... .. . ... : ... .. . ... : 2-# 04 . ... : ... .. . ...
ROW 38 : C#5 07 . ... : F#4 0D . ... : A-1 00 . ... : 0-# 04 . ... : ... .. . ...
ROW 39 : A-4 0A . ... : ... .. . ... : ... .. . ... : ... .. . ... : ... .. . ...
ROW 3A : C#5 0A . ... : ... .. . ... : C#2 00 . ... : ... .. . ... : ... .. . ...
ROW 3B : A-4 0B . ... : ... .. . ... : ... .. . ... : ... .. . ... : ... .. . ...
ROW 3C : C#5 0B . ... : E-4 0D . ... : E-2 00 . ... : 7-# 06 . ... : ... .. . ...
ROW 3D : ... .. . ... : ... .. . ... : ... .. . ... : ... .. . ... : ... .. . ...
ROW 3E : ... .. . ... : ... .. . ... : F#2 00 . ... : 7-# 06 . ... : ... .. . ...
ROW 3F : ... .. . ... : ... .. . ... : ... .. . ... : ... .. . ... : ... .. . ...

PATTERN 03
ROW 00 : --- .. . ... : --- .. . ... : ... .. . ... : ... .. . ... : ... .. . ...
ROW 01 : ... .. . ... : ... .. . ... : ... .. . ... : ... .. . ... : ... .. . ...
ROW 02 : ... .. . ... : ... .. . ... : ... .. . ... : ... .. . ... : ... .. . ...
ROW 03 : ... .. . ... : ... .. . ... : ... .. . ... : ... .. . ... : ... .. . ...
ROW 04 : ... .. . ... : ... .. . ... : ... .. . ... : ... .. . ... : ... .. . ...
ROW 05 : ... .. . ... : ... .. . ... : ... .. . ... : ... .. . ... : ... .. . ...
ROW 06 : ... .. . ... : ... .. . ... : ... .. . ... : ... .. . ... : ... .. . ...
ROW 07 : ... .. . ... : ... .. . ... : ... .. . ... : ... .. . ... : ... .. . ...
ROW 08 : ... .. . ... : ... .. . ... : ... .. . ... : ... .. . ... : ... .. . ...
ROW 09 : ... .. . ... : ... .. . ... : ... .. . ... : ... .. . ... : ... .. . ...
ROW 0A : ... .. . ... : ... .. . ... : ... .. . ... : ... .. . ... : ... .. . ...
ROW 0B : ... .. . ... : ... .. . ... : ... .. . ... : ... .. . ... : ... .. . ...
ROW 0C : ... .. . ... : ... .. . ... : ... .. . ... : ... .. . ... : ... .. . ...
ROW 0D : ... .. . ... : ... .. . ... : ... .. . ... : ... .. . ... : ... .. . ...
ROW 0E : ... .. . ... : ... .. . ... : ... .. . ... : ... .. . ... : ... .. . ...
ROW 0F : ... .. . ... : ... .. . ... : ... .. . ... : ... .. . ... : ... .. . ...
ROW 10 : ... .. . ... : ... .. . ... : ... .. . ... : ... .. . ... : ... .. . ...
ROW 11 : ... .. . ... : ... .. . ... : ... .. . ... : ... .. . ... : ... .. . ...
ROW 12 : ... .. . ... : ... .. . ... : ... .. . ... : ... .. . ... : ... .. . ...
ROW 13 : ... .. . ... : ... .. . ... : ... .. . ... : ... .. . ... : ... .. . ...
ROW 14 : ... .. . ... : ... .. . ... : ... .. . ... : ... .. . ... : ... .. . ...
ROW 15 : ... .. . ... : ... .. . ... : ... .. . ... : ... .. . ... : ... .. . ...
ROW 16 : ... .. . ... : ... .. . ... : ... .. . ... : ... .. . ... : ... .. . ...
ROW 17 : ... .. . ... : ... .. . ... : ... .. . ... : ... .. . ... : ... .. . ...
ROW 18 : ... .. . ... : ... .. . ... : ... .. . ... : ... .. . ... : ... .. . ...
ROW 19 : ... .. . ... : ... .. . ... : ... .. . ... : ... .. . ... : ... .. . ...
ROW 1A : ... .. . ... : ... .. . ... : ... .. . ... : ... .. . ... : ... .. . ...
ROW 1B : ... .. . ... : ... .. . ... : ... .. . ... : ... .. . ... : ... .. . ...
ROW 1C : ... .. . ... : ... .. . ... : ... .. . ... : ... .. . ... : ... .. . ...
ROW 1D : ... .. . ... : ... .. . ... : ... .. . ... : ... .. . ... : ... .. . ...
ROW 1E : ... .. . ... : ... .. . ... : ... .. . ... : ... .. . ... : ... .. . ...
ROW 1F : ... .. . ... : ... .. . ... : ... .. . ... : ... .. . ... : ... .. . ...
ROW 20 : ... .. . ... : ... .. . ... : ... .. . ... : ... .. . ... : ... .. . ...
ROW 21 : ... .. . ... : ... .. . ... : ... .. . ... : ... .. . ... : ... .. . ...
ROW 22 : ... .. . ... : ... .. . ... : ... .. . ... : ... .. . ... : ... .. . ...
ROW 23 : ... .. . ... : ... .. . ... : ... .. . ... : ... .. . ... : ... .. . ...
ROW 24 : ... .. . ... : ... .. . ... : ... .. . ... : ... .. . ... : ... .. . ...
ROW 25 : ... .. . ... : ... .. . ... : ... .. . ... : ... .. . ... : ... .. . ...
ROW 26 : ... .. . ... : ... .. . ... : ... .. . ... : ... .. . ... : ... .. . ...
ROW 27 : ... .. . ... : ... .. . ... : ... .. . ... : ... .. . ... : ... .. . ...
ROW 28 : ... .. . ... : ... .. . ... : ... .. . ... : ... .. . ... : ... .. . ...
ROW 29 : ... .. . ... : ... .. . ... : ... .. . ... : ... .. . ... : ... .. . ...
ROW 2A : ... .. . ... : ... .. . ... : ... .. . ... : ... .. . ... : ... .. . ...
ROW 2B : ... .. . ... : ... .. . ... : ... .. . ... : ... .. . ... : ... .. . ...
ROW 2C : ... .. . ... : ... .. . ... : ... .. . ... : ... .. . ... : ... .. . ...
ROW 2D : ... .. . ... : ... .. . ... : ... .. . ... : ... .. . ... : ... .. . ...
ROW 2E : ... .. . ... : ... .. . ... : ... .. . ... : ... .. . ... : ... .. . ...
ROW 2F : ... .. . ... : ... .. . ... : ... .. . ... : ... .. . ... : ... .. . ...
ROW 30 : ... .. . ... : ... .. . ... : ... .. . ... : ... .. . ... : ... .. . ...
ROW 31 : ... .. . ... : ... .. . ... : ... .. . ... : ... .. . ... : ... .. . ...
ROW 32 : ... .. . ... : ... .. . ... : ... .. . ... : ... .. . ... : ... .. . ...
ROW 33 : ... .. . ... : ... .. . ... : ... .. . ... : ... .. . ... : ... .. . ...
ROW 34 : ... .. . ... : ... .. . ... : ... .. . ... : ... .. . ... : ... .. . ...
ROW 35 : ... .. . ... : ... .. . ... : ... .. . ... : ... .. . ... : ... .. . ...
ROW 36 : ... .. . ... : ... .. . ... : ... .. . ... : ... .. . ... : ... .. . ...
ROW 37 : ... .. . ... : ... .. . ... : ... .. . ... : ... .. . ... : ... .. . ...
ROW 38 : A-3 07 . ... : ... .. . ... : ... .. . ... : ... .. . ... : ... .. . ...
ROW 39 : A-3 0A . ... : ... .. . ... : ... .. . ... : ... .. . ... : ... .. . ...
ROW 3A : A-3 0B . ... : ... .. . ... : ... .. . ... : ... .. . ... : ... .. . ...
ROW 3B : ... .. . ... : ... .. . ... : ... .. . ... : ... .. . ... : ... .. . ...
ROW 3C : ... .. . ... : ... .. . ... : ... .. . ... : ... .. . ... : ... .. . ...
ROW 3D : ... .. . ... : ... .. . ... : ... .. . ... : ... .. . ... : ... .. . ...
ROW 3E : A-4 0B . ... : ... .. . ... : ... .. . ... : ... .. . ... : ... .. . ...
ROW 3F : A-4 0A . B01 : ... .. . ... : ... .. . ... : ... .. . ... : ... .. . ...

TRACK  64  11 150 "Ingame 3"
COLUMNS : 1 1 1 1 1

ORDER 00 : 03 01 01 01 00
ORDER 01 : 00 00 00 00 00
ORDER 02 : 00 00 00 00 00
ORDER 03 : 01 01 01 00 01
ORDER 04 : 01 01 01 00 01
ORDER 05 : 02 02 02 00 02
ORDER 06 : 02 02 02 00 02
ORDER 07 : 01 01 01 00 03
ORDER 08 : 04 01 01 00 03

PATTERN 00
ROW 00 : C-4 07 . ... : G-4 07 . ... : C-2 00 . ... : 4-# 05 . ... : ... .. . ...
ROW 01 : ... .. . ... : ... .. . ... : ... .. . ... : ... .. . ... : ... .. . ...
ROW 02 : ... .. . ... : ... .. . ... : ... .. . ... : D-# 06 . ... : ... .. . ...
ROW 03 : ... .. . ... : ... .. . ... : ... .. . ... : D-# 06 . ... : ... .. . ...
ROW 04 : ... .. . ... : ... .. . ... : C-3 00 . ... : 5-# 07 . ... : ... .. . ...
ROW 05 : ... .. . ... : ... .. . ... : ... .. . ... : ... .. . ... : ... .. . ...
ROW 06 : ... .. . ... : ... .. . ... : ... .. . ... : D-# 06 . ... : ... .. . ...
ROW 07 : ... .. . ... : ... .. . ... : ... .. . ... : D-# 06 . ... : ... .. . ...
ROW 08 : ... .. . ... : ... .. . ... : C-2 00 . ... : 4-# 05 . ... : ... .. . ...
ROW 09 : C#4 07 . ... : ... .. . ... : ... .. . ... : D-# 06 . ... : ... .. . ...
ROW 0A : E-4 07 . ... : ... .. . ... : ... .. . ... : D-# 06 . ... : ... .. . ...
ROW 0B : C#4 07 . ... : ... .. . ... : ... .. . ... : D-# 06 . ... : ... .. . ...
ROW 0C : C-4 07 . ... : ... .. . ... : C-3 00 . ... : 5-# 07 . ... : ... .. . ...
ROW 0D : ... .. . ... : ... .. . ... : ... .. . ... : ... .. . ... : ... .. . ...
ROW 0E : A#3 07 . ... : ... .. . ... : A#2 00 . ... : 4-# 05 . ... : ... .. . ...
ROW 0F : ... .. . ... : ... .. . ... : ... .. . ... : ... .. . ... : ... .. . ...
ROW 10 : C-4 07 . ... : E-4 07 . ... : C-2 00 . ... : 4-# 05 . ... : ... .. . ...
ROW 11 : ... .. . ... : ... .. . ... : ... .. . ... : ... .. . ... : ... .. . ...
ROW 12 : ... .. . ... : ... .. . ... : ... .. . ... : D-# 06 . ... : ... .. . ...
ROW 13 : ... .. . ... : ... .. . ... : ... .. . ... : D-# 06 . ... : ... .. . ...
ROW 14 : ... .. . ... : ... .. . ... : C-3 00 . ... : 5-# 07 . ... : ... .. . ...
ROW 15 : ... .. . ... : ... .. . ... : ... .. . ... : ... .. . ... : ... .. . ...
ROW 16 : ... .. . ... : ... .. . ... : ... .. . ... : D-# 06 . ... : ... .. . ...
ROW 17 : ... .. . ... : ... .. . ... : ... .. . ... : D-# 06 . ... : ... .. . ...
ROW 18 : ... .. . ... : ... .. . ... : C-2 00 . ... : 4-# 05 . ... : ... .. . ...
ROW 19 : C#4 07 . ... : ... .. . ... : ... .. . ... : D-# 06 . ... : ... .. . ...
ROW 1A : E-4 07 . ... : ... .. . ... : ... .. . ... : D-# 06 . ... : ... .. . ...
ROW 1B : C#4 07 . ... : ... .. . ... : ... .. . ... : D-# 06 . ... : ... .. . ...
ROW 1C : C-4 07 . ... : ... .. . ... : C-3 00 . ... : 4-# 05 . ... : ... .. . ...
ROW 1D : ... .. . ... : ... .. . ... : ... .. . ... : ... .. . ... : ... .. . ...
ROW 1E : E-4 07 . ... : ... .. . ... : C-2 00 . ... : 4-# 05 . ... : ... .. . ...
ROW 1F : ... .. . ... : ... .. . ... : ... .. . ... : ... .. . ... : ... .. . ...
ROW 20 : F-4 07 . ... : G#3 07 . ... : F-2 00 . ... : 4-# 05 . ... : ... .. . ...
ROW 21 : ... .. . ... : ... .. . ... : ... .. . ... : ... .. . ... : ... .. . ...
ROW 22 : ... .. . ... : ... .. . ... : ... .. . ... : D-# 06 . ... : ... .. . ...
ROW 23 : ... .. . ... : ... .. . ... : ... .. . ... : D-# 06 . ... : ... .. . ...
ROW 24 : ... .. . ... : ... .. . ... : F-3 00 . ... : 5-# 07 . ... : ... .. . ...
ROW 25 : ... .. . ... : ... .. . ... : ... .. . ... : ... .. . ... : ... .. . ...
ROW 26 : ... .. . ... : ... .. . ... : ... .. . ... : D-# 06 . ... : ... .. . ...
ROW 27 : ... .. . ... : ... .. . ... : ... .. . ... : D-# 06 . ... : ... .. . ...
ROW 28 : ... .. . ... : ... .. . ... : F-2 00 . ... : 4-# 05 . ... : ... .. . ...
ROW 29 : F-4 07 . ... : ... .. . ... : ... .. . ... : D-# 06 . ... : ... .. . ...
ROW 2A : G#4 07 . ... : ... .. . ... : ... .. . ... : D-# 06 . ... : ... .. . ...
ROW 2B : F-4 07 . ... : ... .. . ... : ... .. . ... : D-# 06 . ... : ... .. . ...
ROW 2C : E-4 07 . ... : G-3 07 . ... : F-3 00 . ... : 5-# 07 . ... : ... .. . ...
ROW 2D : ... .. . ... : ... .. . ... : ... .. . ... : ... .. . ... : ... .. . ...
ROW 2E : D-4 07 . ... : ... .. . ... : ... .. . ... : 4-# 05 . ... : ... .. . ...
ROW 2F : ... .. . ... : ... .. . ... : ... .. . ... : ... .. . ... : ... .. . ...
ROW 30 : E-4 07 . ... : ... .. . ... : C-2 00 . ... : 4-# 05 . ... : ... .. . ...
ROW 31 : ... .. . ... : ... .. . ... : ... .. . ... : ... .. . ... : ... .. . ...
ROW 32 : ... .. . ... : ... .. . ... : ... .. . ... : D-# 06 . ... : ... .. . ...
ROW 33 : ... .. . ... : ... .. . ... : ... .. . ... : D-# 06 . ... : ... .. . ...
ROW 34 : ... .. . ... : ... .. . ... : C-3 00 . ... : 5-# 07 . ... : ... .. . ...
ROW 35 : ... .. . ... : ... .. . ... : ... .. . ... : ... .. . ... : ... .. . ...
ROW 36 : ... .. . ... : ... .. . ... : ... .. . ... : D-# 06 . ... : ... .. . ...
ROW 37 : ... .. . ... : ... .. . ... : ... .. . ... : D-# 06 . ... : ... .. . ...
ROW 38 : C-4 07 . ... : ... .. . ... : C-2 00 . ... : 4-# 05 . ... : ... .. . ...
ROW 39 : ... .. . ... : ... .. . ... : ... .. . ... : D-# 06 . ... : ... .. . ...
ROW 3A : ... .. . ... : ... .. . ... : C-3 00 . ... : D-# 06 . ... : ... .. . ...
ROW 3B : ... .. . ... : ... .. . ... : ... .. . ... : D-# 06 . ... : ... .. . ...
ROW 3C : ... .. . ... : ... .. . ... : C-2 00 . ... : 4-# 05 . ... : ... .. . ...
ROW 3D : ... .. . ... : ... .. . ... : ... .. . ... : ... .. . ... : ... .. . ...
ROW 3E : A#3 07 . ... : ... .. . ... : A#2 00 . ... : 4-# 05 . ... : ... .. . ...
ROW 3F : ... .. . ... : ... .. . ... : ... .. . ... : ... .. . ... : ... .. . ...

PATTERN 01
ROW 00 : C-3 07 . ... : C-2 07 . ... : --- .. . ... : ... .. . ... : ... .. . ...
ROW 01 : C#3 07 . ... : ... .. . ... : ... .. . ... : ... .. . ... : ... .. . ...
ROW 02 : C-3 07 . ... : ... .. . ... : ... .. . ... : ... .. . ... : ... .. . ...
ROW 03 : C#3 07 . ... : ... .. . ... : ... .. . ... : ... .. . ... : ... .. . ...
ROW 04 : C-3 07 . ... : ... .. . ... : ... .. . ... : ... .. . ... : ... .. . ...
ROW 05 : ... .. . ... : ... .. . ... : ... .. . ... : ... .. . ... : ... .. . ...
ROW 06 : C#3 07 . ... : ... .. . ... : ... .. . ... : ... .. . ... : ... .. . ...
ROW 07 : ... .. . ... : ... .. . ... : ... .. . ... : ... .. . ... : ... .. . ...
ROW 08 : E-3 07 . ... : ... .. . ... : ... .. . ... : ... .. . ... : ... .. . ...
ROW 09 : ... .. . ... : ... .. . ... : ... .. . ... : ... .. . ... : ... .. . ...
ROW 0A : C#3 07 . ... : ... .. . ... : ... .. . ... : ... .. . ... : ... .. . ...
ROW 0B : ... .. . ... : ... .. . ... : ... .. . ... : ... .. . ... : ... .. . ...
ROW 0C : C-3 07 . ... : ... .. . ... : ... .. . ... : ... .. . ... : ... .. . ...
ROW 0D : ... .. . ... : ... .. . ... : ... .. . ... : ... .. . ... : ... .. . ...
ROW 0E : A#2 07 . ... : ... .. . ... : ... .. . ... : ... .. . ... : ... .. . ...
ROW 0F : ... .. . ... : ... .. . ... : ... .. . ... : ... .. . ... : ... .. . ...
ROW 10 : C-3 07 . ... : ... .. . ... : ... .. . ... : ... .. . ... : ... .. . ...
ROW 11 : ... .. . ... : ... .. . ... : ... .. . ... : ... .. . ... : ... .. . ...
ROW 12 : ... .. . ... : ... .. . ... : ... .. . ... : ... .. . ... : ... .. . ...
ROW 13 : ... .. . ... : ... .. . ... : ... .. . ... : ... .. . ... : ... .. . ...
ROW 14 : ... .. . ... : ... .. . ... : ... .. . ... : ... .. . ... : ... .. . ...
ROW 15 : ... .. . ... : ... .. . ... : ... .. . ... : ... .. . ... : ... .. . ...
ROW 16 : ... .. . ... : ... .. . ... : ... .. . ... : ... .. . ... : ... .. . ...
ROW 17 : ... .. . ... : ... .. . ... : ... .. . ... : ... .. . ... : ... .. . ...
ROW 18 : ... .. . ... : ... .. . ... : ... .. . ... : ... .. . ... : ... .. . ...
ROW 19 : ... .. . ... : ... .. . ... : ... .. . ... : ... .. . ... : ... .. . ...
ROW 1A : G#2 07 . ... : ... .. . ... : ... .. . ... : ... .. . ... : ... .. . ...
ROW 1B : ... .. . ... : ... .. . ... : ... .. . ... : ... .. . ... : ... .. . ...
ROW 1C : G-2 07 . ... : ... .. . ... : ... .. . ... : ... .. . ... : ... .. . ...
ROW 1D : ... .. . ... : ... .. . ... : ... .. . ... : ... .. . ... : ... .. . ...
ROW 1E : F-2 07 . ... : ... .. . ... : ... .. . ... : ... .. . ... : ... .. . ...
ROW 1F : ... .. . ... : ... .. . ... : ... .. . ... : ... .. . ... : ... .. . ...
ROW 20 : G-2 07 . ... : ... .. . ... : ... .. . ... : ... .. . ... : ... .. . ...
ROW 21 : ... .. . ... : ... .. . ... : ... .. . ... : ... .. . ... : ... .. . ...
ROW 22 : ... .. . ... : ... .. . ... : ... .. . ... : ... .. . ... : ... .. . ...
ROW 23 : ... .. . ... : ... .. . ... : ... .. . ... : ... .. . ... : ... .. . ...
ROW 24 : ... .. . ... : ... .. . ... : ... .. . ... : ... .. . ... : ... .. . ...
ROW 25 : ... .. . ... : ... .. . ... : ... .. . ... : ... .. . ... : ... .. . ...
ROW 26 : ... .. . ... : ... .. . ... : ... .. . ... : ... .. . ... : ... .. . ...
ROW 27 : ... .. . ... : ... .. . ... : ... .. . ... : ... .. . ... : ... .. . ...
ROW 28 : ... .. . ... : ... .. . ... : ... .. . ... : ... .. . ... : ... .. . ...
ROW 29 : ... .. . ... : ... .. . ... : ... .. . ... : ... .. . ... : ... .. . ...
ROW 2A : G#2 07 . ... : ... .. . ... : ... .. . ... : ... .. . ... : ... .. . ...
ROW 2B : ... .. . ... : ... .. . ... : ... .. . ... : ... .. . ... : ... .. . ...
ROW 2C : C-3 07 . ... : ... .. . ... : ... .. . ... : ... .. . ... : ... .. . ...
ROW 2D : ... .. . ... : ... .. . ... : ... .. . ... : ... .. . ... : ... .. . ...
ROW 2E : G#2 07 . ... : ... .. . ... : ... .. . ... : ... .. . ... : ... .. . ...
ROW 2F : ... .. . ... : ... .. . ... : ... .. . ... : ... .. . ... : ... .. . ...
ROW 30 : G-2 07 . ... : ... .. . ... : ... .. . ... : ... .. . ... : ... .. . ...
ROW 31 : ... .. . ... : ... .. . ... : ... .. . ... : ... .. . ... : ... .. . ...
ROW 32 : ... .. . ... : ... .. . ... : ... .. . ... : ... .. . ... : ... .. . ...
ROW 33 : ... .. . ... : ... .. . ... : ... .. . ... : ... .. . ... : ... .. . ...
ROW 34 : ... .. . ... : ... .. . ... : ... .. . ... : ... .. . ... : ... .. . ...
ROW 35 : ... .. . ... : ... .. . ... : ... .. . ... : ... .. . ... : ... .. . ...
ROW 36 : ... .. . ... : ... .. . ... : ... .. . ... : ... .. . ... : ... .. . ...
ROW 37 : ... .. . ... : ... .. . ... : ... .. . ... : ... .. . ... : ... .. . ...
ROW 38 : ... .. . ... : ... .. . ... : ... .. . ... : ... .. . ... : ... .. . ...
ROW 39 : ... .. . ... : ... .. . ... : ... .. . ... : ... .. . ... : ... .. . ...
ROW 3A : ... .. . ... : ... .. . ... : ... .. . ... : ... .. . ... : ... .. . ...
ROW 3B : ... .. . ... : ... .. . ... : ... .. . ... : ... .. . ... : ... .. . ...
ROW 3C : ... .. . ... : ... .. . ... : ... .. . ... : ... .. . ... : ... .. . ...
ROW 3D : ... .. . ... : ... .. . ... : ... .. . ... : ... .. . ... : ... .. . ...
ROW 3E : ... .. . ... : ... .. . ... : ... .. . ... : ... .. . ... : ... .. . ...
ROW 3F : ... .. . ... : ... .. . ... : ... .. . ... : ... .. . ... : ... .. . ...

PATTERN 02
ROW 00 : G-4 09 . ... : C-4 01 . ... : C-2 00 . ... : ... .. . ... : ... .. . ...
ROW 01 : ... .. . ... : ... .. . ... : ... .. . ... : ... .. . ... : ... .. . ...
ROW 02 : ... .. . ... : ... .. . ... : ... .. . ... : ... .. . ... : ... .. . ...
ROW 03 : ... .. . ... : ... .. . ... : ... .. . ... : ... .. . ... : ... .. . ...
ROW 04 : F-4 09 . ... : C#4 01 . ... : C-3 00 . ... : ... .. . ... : ... .. . ...
ROW 05 : ... .. . ... : ... .. . ... : ... .. . ... : ... .. . ... : ... .. . ...
ROW 06 : C-4 09 . ... : E-4 01 . ... : ... .. . ... : ... .. . ... : ... .. . ...
ROW 07 : ... .. . ... : ... .. . ... : ... .. . ... : ... .. . ... : ... .. . ...
ROW 08 : G-4 09 . ... : C-4 01 . ... : C-2 00 . ... : ... .. . ... : ... .. . ...
ROW 09 : ... .. . ... : ... .. . ... : ... .. . ... : ... .. . ... : ... .. . ...
ROW 0A : G#4 09 . ... : F-4 01 . ... : ... .. . ... : ... .. . ... : ... .. . ...
ROW 0B : ... .. . ... : ... .. . ... : ... .. . ... : ... .. . ... : ... .. . ...
ROW 0C : B-4 09 . ... : E-4 01 . ... : C-3 00 . ... : ... .. . ... : ... .. . ...
ROW 0D : ... .. . ... : ... .. . ... : ... .. . ... : ... .. . ... : ... .. . ...
ROW 0E : G#4 09 . ... : C#4 01 . ... : A#2 00 . ... : ... .. . ... : ... .. . ...
ROW 0F : ... .. . ... : ... .. . ... : ... .. . ... : ... .. . ... : ... .. . ...
ROW 10 : G-4 09 . ... : C-4 01 . ... : C-2 00 . ... : ... .. . ... : ... .. . ...
ROW 11 : ... .. . ... : ... .. . ... : ... .. . ... : ... .. . ... : ... .. . ...
ROW 12 : ... .. . ... : ... .. . ... : ... .. . ... : ... .. . ... : ... .. . ...
ROW 13 : ... .. . ... : ... .. . ... : ... .. . ... : ... .. . ... : ... .. . ...
ROW 14 : F-4 09 . ... : C#4 01 . ... : C-3 00 . ... : ... .. . ... : ... .. . ...
ROW 15 : ... .. . ... : ... .. . ... : ... .. . ... : ... .. . ... : ... .. . ...
ROW 16 : C-4 09 . ... : E-4 01 . ... : ... .. . ... : ... .. . ... : ... .. . ...
ROW 17 : ... .. . ... : ... .. . ... : ... .. . ... : ... .. . ... : ... .. . ...
ROW 18 : G-4 09 . ... : C-4 01 . ... : C-2 00 . ... : ... .. . ... : ... .. . ...
ROW 19 : G#4 09 . ... : ... .. . ... : ... .. . ... : ... .. . ... : ... .. . ...
ROW 1A : G-4 09 . ... : F-4 01 . ... : ... .. . ... : ... .. . ... : ... .. . ...
ROW 1B : G#4 09 . ... : ... .. . ... : ... .. . ... : ... .. . ... : ... .. . ...
ROW 1C : B-4 09 . ... : E-4 01 . ... : C-3 00 . ... : ... .. . ... : ... .. . ...
ROW 1D : ... .. . ... : ... .. . ... : ... .. . ... : ... .. . ... : ... .. . ...
ROW 1E : G#4 09 . ... : C#4 01 . ... : C-2 00 . ... : ... .. . ... : ... .. . ...
ROW 1F : ... .. . ... : ... .. . ... : ... .. . ... : ... .. . ... : ... .. . ...
ROW 20 : C-5 09 . ... : F-4 01 . ... : F-2 00 . ... : ... .. . ... : ... .. . ...
ROW 21 : ... .. . ... : ... .. . ... : ... .. . ... : ... .. . ... : ... .. . ...
ROW 22 : ... .. . ... : ... .. . ... : ... .. . ... : ... .. . ... : ... .. . ...
ROW 23 : ... .. . ... : ... .. . ... : ... .. . ... : ... .. . ... : ... .. . ...
ROW 24 : B-4 09 . ... : D-4 01 . ... : F-3 00 . ... : ... .. . ... : ... .. . ...
ROW 25 : ... .. . ... : ... .. . ... : ... .. . ... : ... .. . ... : ... .. . ...
ROW 26 : G-4 09 . ... : E-4 01 . ... : ... .. . ... : ... .. . ... : ... .. . ...
ROW 27 : ... .. . ... : ... .. . ... : ... .. . ... : ... .. . ... : ... .. . ...
ROW 28 : C-5 09 . ... : F-4 01 . ... : F-2 00 . ... : ... .. . ... : ... .. . ...
ROW 29 : ... .. . ... : ... .. . ... : ... .. . ... : ... .. . ... : ... .. . ...
ROW 2A : ... .. . ... : ... .. . ... : ... .. . ... : ... .. . ... : ... .. . ...
ROW 2B : ... .. . ... : ... .. . ... : ... .. . ... : ... .. . ... : ... .. . ...
ROW 2C : B-4 09 . ... : D-4 01 . ... : F-3 00 . ... : ... .. . ... : ... .. . ...
ROW 2D : ... .. . ... : ... .. . ... : ... .. . ... : ... .. . ... : ... .. . ...
ROW 2E : G-4 09 . ... : E-4 01 . ... : ... .. . ... : ... .. . ... : ... .. . ...
ROW 2F : ... .. . ... : ... .. . ... : ... .. . ... : ... .. . ... : ... .. . ...
ROW 30 : G-4 09 . ... : C-4 01 . ... : C-2 00 . ... : ... .. . ... : ... .. . ...
ROW 31 : ... .. . ... : ... .. . ... : ... .. . ... : ... .. . ... : ... .. . ...
ROW 32 : G#4 09 . ... : C#4 01 . ... : ... .. . ... : ... .. . ... : ... .. . ...
ROW 33 : ... .. . ... : ... .. . ... : ... .. . ... : ... .. . ... : ... .. . ...
ROW 34 : G-4 09 . ... : C-4 01 . ... : C-3 00 . ... : ... .. . ... : ... .. . ...
ROW 35 : ... .. . ... : ... .. . ... : ... .. . ... : ... .. . ... : ... .. . ...
ROW 36 : G#4 09 . ... : C#4 01 . ... : ... .. . ... : ... .. . ... : ... .. . ...
ROW 37 : ... .. . ... : ... .. . ... : ... .. . ... : ... .. . ... : ... .. . ...
ROW 38 : B-4 09 . ... : D#4 01 . ... : B-2 00 . ... : ... .. . ... : ... .. . ...
ROW 39 : ... .. . ... : ... .. . ... : ... .. . ... : ... .. . ... : ... .. . ...
ROW 3A : G#4 09 . ... : C#4 01 . ... : C#3 00 . ... : ... .. . ... : ... .. . ...
ROW 3B : ... .. . ... : ... .. . ... : ... .. . ... : ... .. . ... : ... .. . ...
ROW 3C : G-4 09 . ... : C-4 01 . ... : C-2 00 . ... : ... .. . ... : ... .. . ...
ROW 3D : ... .. . ... : ... .. . ... : ... .. . ... : ... .. . ... : ... .. . ...
ROW 3E : F-4 09 . ... : C-4 01 . ... : A#2 00 . ... : ... .. . ... : ... .. . ...
ROW 3F : ... .. . ... : ... .. . ... : ... .. . ... : ... .. . ... : ... .. . ...

PATTERN 03
ROW 00 : C-3 07 . ... : ... .. . ... : ... .. . ... : ... .. . ... : ... .. . ...
ROW 01 : C#3 07 . ... : ... .. . ... : ... .. . ... : ... .. . ... : ... .. . ...
ROW 02 : C-3 07 . ... : ... .. . ... : ... .. . ... : ... .. . ... : ... .. . ...
ROW 03 : C#3 07 . ... : ... .. . ... : ... .. . ... : ... .. . ... : ... .. . ...
ROW 04 : C-3 07 . ... : ... .. . ... : ... .. . ... : ... .. . ... : ... .. . ...
ROW 05 : ... .. . ... : ... .. . ... : ... .. . ... : ... .. . ... : ... .. . ...
ROW 06 : C#3 07 . ... : ... .. . ... : ... .. . ... : ... .. . ... : ... .. . ...
ROW 07 : ... .. . ... : ... .. . ... : ... .. . ... : ... .. . ... : ... .. . ...
ROW 08 : E-3 07 . ... : ... .. . ... : ... .. . ... : ... .. . ... : ... .. . ...
ROW 09 : ... .. . ... : ... .. . ... : ... .. . ... : ... .. . ... : ... .. . ...
ROW 0A : C#3 07 . ... : ... .. . ... : ... .. . ... : ... .. . ... : ... .. . ...
ROW 0B : ... .. . ... : ... .. . ... : ... .. . ... : ... .. . ... : ... .. . ...
ROW 0C : C-3 07 . ... : ... .. . ... : ... .. . ... : ... .. . ... : ... .. . ...
ROW 0D : ... .. . ... : ... .. . ... : ... .. . ... : ... .. . ... : ... .. . ...
ROW 0E : A#2 07 . ... : ... .. . ... : ... .. . ... : ... .. . ... : ... .. . ...
ROW 0F : ... .. . D00 : ... .. . ... : ... .. . ... : ... .. . ... : ... .. . ...
ROW 10 : ... .. . ... : ... .. . ... : ... .. . ... : ... .. . ... : ... .. . ...
ROW 11 : ... .. . ... : ... .. . ... : ... .. . ... : ... .. . ... : ... .. . ...
ROW 12 : ... .. . ... : ... .. . ... : ... .. . ... : ... .. . ... : ... .. . ...
ROW 13 : ... .. . ... : ... .. . ... : ... .. . ... : ... .. . ... : ... .. . ...
ROW 14 : ... .. . ... : ... .. . ... : ... .. . ... : ... .. . ... : ... .. . ...
ROW 15 : ... .. . ... : ... .. . ... : ... .. . ... : ... .. . ... : ... .. . ...
ROW 16 : ... .. . ... : ... .. . ... : ... .. . ... : ... .. . ... : ... .. . ...
ROW 17 : ... .. . ... : ... .. . ... : ... .. . ... : ... .. . ... : ... .. . ...
ROW 18 : ... .. . ... : ... .. . ... : ... .. . ... : ... .. . ... : ... .. . ...
ROW 19 : ... .. . ... : ... .. . ... : ... .. . ... : ... .. . ... : ... .. . ...
ROW 1A : ... .. . ... : ... .. . ... : ... .. . ... : ... .. . ... : ... .. . ...
ROW 1B : ... .. . ... : ... .. . ... : ... .. . ... : ... .. . ... : ... .. . ...
ROW 1C : ... .. . ... : ... .. . ... : ... .. . ... : ... .. . ... : ... .. . ...
ROW 1D : ... .. . ... : ... .. . ... : ... .. . ... : ... .. . ... : ... .. . ...
ROW 1E : ... .. . ... : ... .. . ... : ... .. . ... : ... .. . ... : ... .. . ...
ROW 1F : ... .. . ... : ... .. . ... : ... .. . ... : ... .. . ... : ... .. . ...
ROW 20 : ... .. . ... : ... .. . ... : ... .. . ... : ... .. . ... : ... .. . ...
ROW 21 : ... .. . ... : ... .. . ... : ... .. . ... : ... .. . ... : ... .. . ...
ROW 22 : ... .. . ... : ... .. . ... : ... .. . ... : ... .. . ... : ... .. . ...
ROW 23 : ... .. . ... : ... .. . ... : ... .. . ... : ... .. . ... : ... .. . ...
ROW 24 : ... .. . ... : ... .. . ... : ... .. . ... : ... .. . ... : ... .. . ...
ROW 25 : ... .. . ... : ... .. . ... : ... .. . ... : ... .. . ... : ... .. . ...
ROW 26 : ... .. . ... : ... .. . ... : ... .. . ... : ... .. . ... : ... .. . ...
ROW 27 : ... .. . ... : ... .. . ... : ... .. . ... : ... .. . ... : ... .. . ...
ROW 28 : ... .. . ... : ... .. . ... : ... .. . ... : ... .. . ... : ... .. . ...
ROW 29 : ... .. . ... : ... .. . ... : ... .. . ... : ... .. . ... : ... .. . ...
ROW 2A : ... .. . ... : ... .. . ... : ... .. . ... : ... .. . ... : ... .. . ...
ROW 2B : ... .. . ... : ... .. . ... : ... .. . ... : ... .. . ... : ... .. . ...
ROW 2C : ... .. . ... : ... .. . ... : ... .. . ... : ... .. . ... : ... .. . ...
ROW 2D : ... .. . ... : ... .. . ... : ... .. . ... : ... .. . ... : ... .. . ...
ROW 2E : ... .. . ... : ... .. . ... : ... .. . ... : ... .. . ... : ... .. . ...
ROW 2F : ... .. . ... : ... .. . ... : ... .. . ... : ... .. . ... : ... .. . ...
ROW 30 : ... .. . ... : ... .. . ... : ... .. . ... : ... .. . ... : ... .. . ...
ROW 31 : ... .. . ... : ... .. . ... : ... .. . ... : ... .. . ... : ... .. . ...
ROW 32 : ... .. . ... : ... .. . ... : ... .. . ... : ... .. . ... : ... .. . ...
ROW 33 : ... .. . ... : ... .. . ... : ... .. . ... : ... .. . ... : ... .. . ...
ROW 34 : ... .. . ... : ... .. . ... : ... .. . ... : ... .. . ... : ... .. . ...
ROW 35 : ... .. . ... : ... .. . ... : ... .. . ... : ... .. . ... : ... .. . ...
ROW 36 : ... .. . ... : ... .. . ... : ... .. . ... : ... .. . ... : ... .. . ...
ROW 37 : ... .. . ... : ... .. . ... : ... .. . ... : ... .. . ... : ... .. . ...
ROW 38 : ... .. . ... : ... .. . ... : ... .. . ... : ... .. . ... : ... .. . ...
ROW 39 : ... .. . ... : ... .. . ... : ... .. . ... : ... .. . ... : ... .. . ...
ROW 3A : ... .. . ... : ... .. . ... : ... .. . ... : ... .. . ... : ... .. . ...
ROW 3B : ... .. . ... : ... .. . ... : ... .. . ... : ... .. . ... : ... .. . ...
ROW 3C : ... .. . ... : ... .. . ... : ... .. . ... : ... .. . ... : ... .. . ...
ROW 3D : ... .. . ... : ... .. . ... : ... .. . ... : ... .. . ... : ... .. . ...
ROW 3E : ... .. . ... : ... .. . ... : ... .. . ... : ... .. . ... : ... .. . ...
ROW 3F : ... .. . ... : ... .. . ... : ... .. . ... : ... .. . ... : ... .. . ...

PATTERN 04
ROW 00 : C-3 07 . ... : ... .. . ... : ... .. . ... : ... .. . ... : ... .. . ...
ROW 01 : C#3 07 . ... : ... .. . ... : ... .. . ... : ... .. . ... : ... .. . ...
ROW 02 : C-3 07 . ... : ... .. . ... : ... .. . ... : ... .. . ... : ... .. . ...
ROW 03 : C#3 07 . ... : ... .. . ... : ... .. . ... : ... .. . ... : ... .. . ...
ROW 04 : C-3 07 . ... : ... .. . ... : ... .. . ... : ... .. . ... : ... .. . ...
ROW 05 : ... .. . ... : ... .. . ... : ... .. . ... : ... .. . ... : ... .. . ...
ROW 06 : C#3 07 . ... : ... .. . ... : ... .. . ... : ... .. . ... : ... .. . ...
ROW 07 : ... .. . ... : ... .. . ... : ... .. . ... : ... .. . ... : ... .. . ...
ROW 08 : E-3 07 . ... : ... .. . ... : ... .. . ... : ... .. . ... : ... .. . ...
ROW 09 : ... .. . ... : ... .. . ... : ... .. . ... : ... .. . ... : ... .. . ...
ROW 0A : C#3 07 . ... : ... .. . ... : ... .. . ... : ... .. . ... : ... .. . ...
ROW 0B : ... .. . ... : ... .. . ... : ... .. . ... : ... .. . ... : ... .. . ...
ROW 0C : C-3 07 . ... : ... .. . ... : ... .. . ... : ... .. . ... : ... .. . ...
ROW 0D : ... .. . ... : ... .. . ... : ... .. . ... : ... .. . ... : ... .. . ...
ROW 0E : A#2 07 . ... : ... .. . ... : ... .. . ... : ... .. . ... : ... .. . ...
ROW 0F : ... .. . ... : ... .. . ... : ... .. . ... : ... .. . ... : ... .. . ...
ROW 10 : C-3 07 . ... : ... .. . ... : ... .. . ... : ... .. . ... : ... .. . ...
ROW 11 : ... .. . ... : ... .. . ... : ... .. . ... : ... .. . ... : ... .. . ...
ROW 12 : ... .. . ... : ... .. . ... : ... .. . ... : ... .. . ... : ... .. . ...
ROW 13 : ... .. . ... : ... .. . ... : ... .. . ... : ... .. . ... : ... .. . ...
ROW 14 : ... .. . ... : ... .. . ... : ... .. . ... : ... .. . ... : ... .. . ...
ROW 15 : ... .. . ... : ... .. . ... : ... .. . ... : ... .. . ... : ... .. . ...
ROW 16 : ... .. . ... : ... .. . ... : ... .. . ... : ... .. . ... : ... .. . ...
ROW 17 : ... .. . ... : ... .. . ... : ... .. . ... : ... .. . ... : ... .. . ...
ROW 18 : ... .. . ... : ... .. . ... : ... .. . ... : ... .. . ... : ... .. . ...
ROW 19 : ... .. . ... : ... .. . ... : ... .. . ... : ... .. . ... : ... .. . ...
ROW 1A : G#2 07 . ... : ... .. . ... : ... .. . ... : ... .. . ... : ... .. . ...
ROW 1B : ... .. . ... : ... .. . ... : ... .. . ... : ... .. . ... : ... .. . ...
ROW 1C : G-2 07 . ... : ... .. . ... : ... .. . ... : ... .. . ... : ... .. . ...
ROW 1D : ... .. . ... : ... .. . ... : ... .. . ... : ... .. . ... : ... .. . ...
ROW 1E : F-2 07 . ... : ... .. . ... : ... .. . ... : ... .. . ... : ... .. . ...
ROW 1F : ... .. . ... : ... .. . ... : ... .. . ... : ... .. . ... : ... .. . ...
ROW 20 : G-2 07 . ... : ... .. . ... : ... .. . ... : ... .. . ... : ... .. . ...
ROW 21 : ... .. . ... : ... .. . ... : ... .. . ... : ... .. . ... : ... .. . ...
ROW 22 : ... .. . ... : ... .. . ... : ... .. . ... : ... .. . ... : ... .. . ...
ROW 23 : ... .. . ... : ... .. . ... : ... .. . ... : ... .. . ... : ... .. . ...
ROW 24 : ... .. . ... : ... .. . ... : ... .. . ... : ... .. . ... : ... .. . ...
ROW 25 : ... .. . ... : ... .. . ... : ... .. . ... : ... .. . ... : ... .. . ...
ROW 26 : ... .. . ... : ... .. . ... : ... .. . ... : ... .. . ... : ... .. . ...
ROW 27 : ... .. . ... : ... .. . ... : ... .. . ... : ... .. . ... : ... .. . ...
ROW 28 : ... .. . ... : ... .. . ... : ... .. . ... : ... .. . ... : ... .. . ...
ROW 29 : ... .. . ... : ... .. . ... : ... .. . ... : ... .. . ... : ... .. . ...
ROW 2A : G#2 07 . ... : ... .. . ... : ... .. . ... : ... .. . ... : ... .. . ...
ROW 2B : ... .. . ... : ... .. . ... : ... .. . ... : ... .. . ... : ... .. . ...
ROW 2C : C-3 07 . ... : ... .. . ... : ... .. . ... : ... .. . ... : ... .. . ...
ROW 2D : ... .. . ... : ... .. . ... : ... .. . ... : ... .. . ... : ... .. . ...
ROW 2E : G#2 07 . ... : ... .. . ... : ... .. . ... : ... .. . ... : ... .. . ...
ROW 2F : ... .. . ... : ... .. . ... : ... .. . ... : ... .. . ... : ... .. . ...
ROW 30 : G-2 07 . ... : ... .. . ... : ... .. . ... : ... .. . ... : ... .. . ...
ROW 31 : ... .. . ... : ... .. . ... : ... .. . ... : ... .. . ... : ... .. . ...
ROW 32 : ... .. . ... : ... .. . ... : ... .. . ... : ... .. . ... : ... .. . ...
ROW 33 : ... .. . ... : ... .. . ... : ... .. . ... : ... .. . ... : ... .. . ...
ROW 34 : ... .. . ... : ... .. . ... : ... .. . ... : ... .. . ... : ... .. . ...
ROW 35 : ... .. . ... : ... .. . ... : ... .. . ... : ... .. . ... : ... .. . ...
ROW 36 : ... .. . ... : ... .. . ... : ... .. . ... : ... .. . ... : ... .. . ...
ROW 37 : ... .. . ... : ... .. . ... : ... .. . ... : ... .. . ... : ... .. . ...
ROW 38 : ... .. . ... : ... .. . ... : ... .. . ... : ... .. . ... : ... .. . ...
ROW 39 : ... .. . ... : ... .. . ... : ... .. . ... : ... .. . ... : ... .. . ...
ROW 3A : ... .. . ... : ... .. . ... : ... .. . ... : ... .. . ... : ... .. . ...
ROW 3B : ... .. . ... : ... .. . ... : ... .. . ... : ... .. . ... : ... .. . ...
ROW 3C : ... .. . ... : ... .. . ... : ... .. . ... : ... .. . ... : ... .. . ...
ROW 3D : ... .. . ... : ... .. . ... : ... .. . ... : ... .. . ... : ... .. . ...
ROW 3E : ... .. . ... : ... .. . ... : ... .. . ... : ... .. . ... : ... .. . ...
ROW 3F : ... .. . B01 : ... .. . ... : ... .. . ... : ... .. . ... : ... .. . ...

TRACK  64   6 150 "cuts"
COLUMNS : 1 1 1 1 1

ORDER 00 : 00 00 00 00 00

PATTERN 00
ROW 00 : ... .. . ... : ... .. . ... : C-4 02 . ... : 0-# 15 . ... : ... .. . ...
ROW 01 : ... .. . ... : ... .. . ... : ... .. . ... : ... .. . ... : ... .. . ...
ROW 02 : ... .. . ... : ... .. . ... : E-4 02 . ... : ... .. . ... : ... .. . ...
ROW 03 : ... .. . ... : ... .. . ... : ... .. . ... : ... .. . ... : ... .. . ...
ROW 04 : ... .. . ... : ... .. . ... : G-4 02 . ... : ... .. . ... : ... .. . ...
ROW 05 : ... .. . ... : ... .. . ... : ... .. . ... : ... .. . ... : ... .. . ...
ROW 06 : ... .. . ... : ... .. . ... : B-4 02 . ... : ... .. . ... : ... .. . ...
ROW 07 : ... .. . ... : ... .. . ... : ... .. . ... : ... .. . ... : ... .. . ...
ROW 08 : ... .. . ... : ... .. . ... : C-5 02 . ... : ... .. . ... : ... .. . ...
ROW 09 : ... .. . ... : ... .. . ... : ... .. . ... : ... .. . ... : ... .. . ...
ROW 0A : ... .. . ... : ... .. . ... : B-4 02 . ... : ... .. . ... : ... .. . ...
ROW 0B : ... .. . ... : ... .. . ... : ... .. . ... : ... .. . ... : ... .. . ...
ROW 0C : ... .. . ... : ... .. . ... : G-4 02 . ... : ... .. . ... : ... .. . ...
ROW 0D : ... .. . ... : ... .. . ... : ... .. . ... : ... .. . ... : ... .. . ...
ROW 0E : ... .. . ... : ... .. . ... : E-4 02 . ... : 0-# 15 . ... : ... .. . ...
ROW 0F : ... .. . ... : ... .. . ... : ... .. . ... : ... .. . ... : ... .. . ...
ROW 10 : ... .. . ... : ... .. . ... : C-4 02 . ... : 0-# 15 . ... : ... .. . ...
ROW 11 : ... .. . ... : ... .. . ... : ... .. . ... : ... .. . ... : ... .. . ...
ROW 12 : ... .. . ... : ... .. . ... : E-4 02 . ... : ... .. . ... : ... .. . ...
ROW 13 : ... .. . ... : ... .. . ... : ... .. . ... : ... .. . ... : ... .. . ...
ROW 14 : ... .. . ... : ... .. . ... : G-4 02 . ... : ... .. . ... : ... .. . ...
ROW 15 : ... .. . ... : ... .. . ... : ... .. . ... : ... .. . ... : ... .. . ...
ROW 16 : ... .. . ... : ... .. . ... : B-4 02 . ... : ... .. . ... : ... .. . ...
ROW 17 : ... .. . ... : ... .. . ... : ... .. . ... : ... .. . ... : ... .. . ...
ROW 18 : ... .. . ... : ... .. . ... : C-5 02 . ... : ... .. . ... : ... .. . ...
ROW 19 : ... .. . ... : ... .. . ... : ... .. . ... : ... .. . ... : ... .. . ...
ROW 1A : ... .. . ... : ... .. . ... : B-4 02 . ... : ... .. . ... : ... .. . ...
ROW 1B : ... .. . ... : ... .. . ... : ... .. . ... : ... .. . ... : ... .. . ...
ROW 1C : ... .. . ... : ... .. . ... : E-5 02 . ... : ... .. . ... : ... .. . ...
ROW 1D : ... .. . ... : ... .. . ... : ... .. . ... : ... .. . ... : ... .. . ...
ROW 1E : ... .. . ... : ... .. . ... : C-5 02 . ... : ... .. . ... : ... .. . ...
ROW 1F : ... .. . ... : ... .. . ... : ... .. . ... : ... .. . ... : ... .. . ...
ROW 20 : ... .. . ... : ... .. . ... : G-3 02 . ... : 0-# 15 . ... : ... .. . ...
ROW 21 : ... .. . ... : ... .. . ... : ... .. . ... : ... .. . ... : ... .. . ...
ROW 22 : ... .. . ... : ... .. . ... : B-3 02 . ... : ... .. . ... : ... .. . ...
ROW 23 : ... .. . ... : ... .. . ... : ... .. . ... : ... .. . ... : ... .. . ...
ROW 24 : ... .. . ... : ... .. . ... : D-4 02 . ... : ... .. . ... : ... .. . ...
ROW 25 : ... .. . ... : ... .. . ... : ... .. . ... : ... .. . ... : ... .. . ...
ROW 26 : ... .. . ... : ... .. . ... : F#4 02 . ... : ... .. . ... : ... .. . ...
ROW 27 : ... .. . ... : ... .. . ... : ... .. . ... : ... .. . ... : ... .. . ...
ROW 28 : ... .. . ... : ... .. . ... : G-4 02 . ... : ... .. . ... : ... .. . ...
ROW 29 : ... .. . ... : ... .. . ... : ... .. . ... : ... .. . ... : ... .. . ...
ROW 2A : ... .. . ... : ... .. . ... : F#4 02 . ... : ... .. . ... : ... .. . ...
ROW 2B : ... .. . ... : ... .. . ... : ... .. . ... : ... .. . ... : ... .. . ...
ROW 2C : ... .. . ... : ... .. . ... : D-4 02 . ... : ... .. . ... : ... .. . ...
ROW 2D : ... .. . ... : ... .. . ... : ... .. . ... : ... .. . ... : ... .. . ...
ROW 2E : ... .. . ... : ... .. . ... : B-3 02 . ... : 0-# 15 . ... : ... .. . ...
ROW 2F : ... .. . ... : ... .. . ... : ... .. . ... : ... .. . ... : ... .. . ...
ROW 30 : ... .. . ... : ... .. . ... : G-3 02 . ... : 0-# 15 . ... : ... .. . ...
ROW 31 : ... .. . ... : ... .. . ... : ... .. . ... : ... .. . ... : ... .. . ...
ROW 32 : ... .. . ... : ... .. . ... : B-3 02 . ... : ... .. . ... : ... .. . ...
ROW 33 : ... .. . ... : ... .. . ... : ... .. . ... : ... .. . ... : ... .. . ...
ROW 34 : ... .. . ... : ... .. . ... : D-4 02 . ... : ... .. . ... : ... .. . ...
ROW 35 : ... .. . ... : ... .. . ... : ... .. . ... : ... .. . ... : ... .. . ...
ROW 36 : ... .. . ... : ... .. . ... : F#4 02 . ... : ... .. . ... : ... .. . ...
ROW 37 : ... .. . ... : ... .. . ... : ... .. . ... : ... .. . ... : ... .. . ...
ROW 38 : ... .. . ... : ... .. . ... : G-4 02 . ... : ... .. . ... : ... .. . ...
ROW 39 : ... .. . ... : ... .. . ... : ... .. . ... : ... .. . ... : ... .. . ...
ROW 3A : ... .. . ... : ... .. . ... : B-4 02 . ... : ... .. . ... : ... .. . ...
ROW 3B : ... .. . ... : ... .. . ... : ... .. . ... : ... .. . ... : ... .. . ...
ROW 3C : ... .. . ... : ... .. . ... : D-5 02 . ... : ... .. . ... : ... .. . ...
ROW 3D : ... .. . ... : ... .. . ... : ... .. . ... : ... .. . ... : ... .. . ...
ROW 3E : ... .. . ... : ... .. . ... : B-4 02 . ... : ... .. . ... : ... .. . ...
ROW 3F : ... .. . B00 : ... .. . ... : ... .. . ... : ... .. . ... : ... .. . ...

TRACK  64  16 150 "Ingame 4"
COLUMNS : 1 1 1 1 1

ORDER 00 : 00 00 00 00 00
ORDER 01 : 00 00 00 00 00
ORDER 02 : 01 01 01 00 00
ORDER 03 : 00 00 00 00 00
ORDER 04 : 00 00 00 00 00
ORDER 05 : 01 01 01 00 00
ORDER 06 : 02 02 02 00 00
ORDER 07 : 03 02 02 00 00
ORDER 08 : 04 03 03 00 01
ORDER 09 : 04 03 03 00 01

PATTERN 00
ROW 00 : G-4 0F . ... : --- .. . ... : G-2 02 . ... : D-# 15 . ... : ... .. . ...
ROW 01 : ... .. . ... : ... .. . ... : ... .. . ... : ... .. . ... : ... .. . ...
ROW 02 : ... .. . ... : ... .. . ... : ... .. . ... : 4-# 15 . ... : ... .. . ...
ROW 03 : D-4 0F . ... : ... .. . ... : G-3 02 . ... : D-# 15 . ... : ... .. . ...
ROW 04 : ... .. . ... : ... .. . ... : ... .. . ... : ... .. . ... : ... .. . ...
ROW 05 : ... .. . ... : ... .. . ... : ... .. . ... : ... .. . ... : ... .. . ...
ROW 06 : E-4 0F . ... : ... .. . ... : E-2 02 . ... : 4-# 15 . ... : ... .. . ...
ROW 07 : ... .. . ... : ... .. . ... : ... .. . ... : ... .. . ... : ... .. . ...
ROW 08 : ... .. . ... : ... .. . ... : ... .. . ... : D-# 15 . ... : ... .. . ...
ROW 09 : ... .. . ... : ... .. . ... : ... .. . ... : ... .. . ... : ... .. . ...
ROW 0A : ... .. . ... : ... .. . ... : E-3 02 . ... : 4-# 15 . ... : ... .. . ...
ROW 0B : ... .. . ... : ... .. . ... : E-2 02 . ... : D-# 15 . ... : ... .. . ...
ROW 0C : ... .. . ... : ... .. . ... : E-3 02 . ... : ... .. . ... : ... .. . ...
ROW 0D : ... .. . ... : ... .. . ... : ... .. . ... : ... .. . ... : ... .. . ...
ROW 0E : ... .. . ... : ... .. . ... : ... .. . ... : 4-# 15 . ... : ... .. . ...
ROW 0F : ... .. . ... : ... .. . ... : ... .. . ... : ... .. . ... : ... .. . ...
ROW 10 : B-4 0F . ... : ... .. . ... : G-2 02 . ... : D-# 15 . ... : ... .. . ...
ROW 11 : ... .. . ... : ... .. . ... : ... .. . ... : ... .. . ... : ... .. . ...
ROW 12 : ... .. . ... : ... .. . ... : ... .. . ... : 4-# 15 . ... : ... .. . ...
ROW 13 : A-4 0F . ... : ... .. . ... : G-3 02 . ... : D-# 15 . ... : ... .. . ...
ROW 14 : ... .. . ... : ... .. . ... : ... .. . ... : ... .. . ... : ... .. . ...
ROW 15 : ... .. . ... : ... .. . ... : ... .. . ... : ... .. . ... : ... .. . ...
ROW 16 : G-4 0F . ... : ... .. . ... : E-2 02 . ... : 4-# 15 . ... : ... .. . ...
ROW 17 : ... .. . ... : ... .. . ... : ... .. . ... : ... .. . ... : ... .. . ...
ROW 18 : ... .. . ... : ... .. . ... : ... .. . ... : D-# 15 . ... : ... .. . ...
ROW 19 : ... .. . ... : ... .. . ... : ... .. . ... : ... .. . ... : ... .. . ...
ROW 1A : ... .. . ... : ... .. . ... : E-3 02 . ... : 4-# 15 . ... : ... .. . ...
ROW 1B : ... .. . ... : ... .. . ... : E-2 02 . ... : D-# 15 . ... : ... .. . ...
ROW 1C : ... .. . ... : ... .. . ... : E-3 02 . ... : ... .. . ... : ... .. . ...
ROW 1D : ... .. . ... : ... .. . ... : ... .. . ... : 4-# 15 . ... : ... .. . ...
ROW 1E : ... .. . ... : ... .. . ... : ... .. . ... : 4-# 15 . ... : ... .. . ...
ROW 1F : ... .. . ... : ... .. . ... : ... .. . ... : ... .. . ... : ... .. . ...
ROW 20 : D-4 0F . ... : ... .. . ... : G-2 02 . ... : D-# 15 . ... : ... .. . ...
ROW 21 : ... .. . ... : ... .. . ... : ... .. . ... : ... .. . ... : ... .. . ...
ROW 22 : ... .. . ... : ... .. . ... : ... .. . ... : 4-# 15 . ... : ... .. . ...
ROW 23 : B-4 0F . ... : ... .. . ... : G-3 02 . ... : D-# 15 . ... : ... .. . ...
ROW 24 : ... .. . ... : ... .. . ... : ... .. . ... : ... .. . ... : ... .. . ...
ROW 25 : ... .. . ... : ... .. . ... : ... .. . ... : ... .. . ... : ... .. . ...
ROW 26 : D-4 0F . ... : ... .. . ... : E-2 02 . ... : 4-# 15 . ... : ... .. . ...
ROW 27 : ... .. . ... : ... .. . ... : ... .. . ... : ... .. . ... : ... .. . ...
ROW 28 : E-4 0F . ... : ... .. . ... : ... .. . ... : D-# 15 . ... : ... .. . ...
ROW 29 : ... .. . ... : ... .. . ... : ... .. . ... : ... .. . ... : ... .. . ...
ROW 2A : ... .. . ... : ... .. . ... : E-3 02 . ... : 4-# 15 . ... : ... .. . ...
ROW 2B : ... .. . ... : ... .. . ... : E-2 02 . ... : D-# 15 . ... : ... .. . ...
ROW 2C : ... .. . ... : ... .. . ... : E-3 02 . ... : ... .. . ... : ... .. . ...
ROW 2D : ... .. . ... : ... .. . ... : ... .. . ... : ... .. . ... : ... .. . ...
ROW 2E : ... .. . ... : ... .. . ... : ... .. . ... : 4-# 15 . ... : ... .. . ...
ROW 2F : ... .. . ... : ... .. . ... : ... .. . ... : ... .. . ... : ... .. . ...
ROW 30 : G-4 0F . ... : ... .. . ... : G-2 02 . ... : D-# 15 . ... : ... .. . ...
ROW 31 : ... .. . ... : ... .. . ... : ... .. . ... : ... .. . ... : ... .. . ...
ROW 32 : ... .. . ... : ... .. . ... : ... .. . ... : 4-# 15 . ... : ... .. . ...
ROW 33 : D-4 0F . ... : ... .. . ... : G-3 02 . ... : D-# 15 . ... : ... .. . ...
ROW 34 : ... .. . ... : ... .. . ... : ... .. . ... : ... .. . ... : ... .. . ...
ROW 35 : ... .. . ... : ... .. . ... : ... .. . ... : ... .. . ... : ... .. . ...
ROW 36 : E-4 0F . ... : ... .. . ... : E-2 02 . ... : 4-# 15 . ... : ... .. . ...
ROW 37 : ... .. . ... : ... .. . ... : ... .. . ... : ... .. . ... : ... .. . ...
ROW 38 : ... .. . ... : ... .. . ... : ... .. . ... : D-# 15 . ... : ... .. . ...
ROW 39 : ... .. . ... : ... .. . ... : ... .. . ... : ... .. . ... : ... .. . ...
ROW 3A : ... .. . ... : ... .. . ... : E-3 02 . ... : 4-# 15 . ... : ... .. . ...
ROW 3B : ... .. . ... : ... .. . ... : G-3 02 . ... : D-# 15 . ... : ... .. . ...
ROW 3C : ... .. . ... : ... .. . ... : E-3 02 . ... : ... .. . ... : ... .. . ...
ROW 3D : ... .. . ... : ... .. . ... : ... .. . ... : 4-# 15 . ... : ... .. . ...
ROW 3E : ... .. . ... : ... .. . ... : ... .. . ... : 4-# 15 . ... : ... .. . ...
ROW 3F : ... .. . ... : ... .. . ... : ... .. . ... : 4-# 15 . ... : ... .. . ...

PATTERN 01
ROW 00 : G-4 0F . ... : D-5 0F . ... : G-2 02 . ... : ... .. . ... : ... .. . ...
ROW 01 : ... .. . ... : ... .. . ... : ... .. . ... : ... .. . ... : ... .. . ...
ROW 02 : ... .. . ... : ... .. . ... : B-2 02 . ... : ... .. . ... : ... .. . ...
ROW 03 : ... .. . ... : ... .. . ... : ... .. . ... : ... .. . ... : ... .. . ...
ROW 04 : ... .. . ... : ... .. . ... : D-3 02 . ... : ... .. . ... : ... .. . ...
ROW 05 : ... .. . ... : ... .. . ... : ... .. . ... : ... .. . ... : ... .. . ...
ROW 06 : A-4 0F . ... : E-5 0F . ... : G-3 02 . ... : ... .. . ... : ... .. . ...
ROW 07 : E-4 0F . ... : B-4 0F . ... : E-3 02 . ... : ... .. . ... : ... .. . ...
ROW 08 : ... .. . ... : ... .. . ... : ... .. . ... : ... .. . ... : ... .. . ...
ROW 09 : ... .. . ... : ... .. . ... : ... .. . ... : ... .. . ... : ... .. . ...
ROW 0A : ... .. . ... : ... .. . ... : D-3 02 . ... : ... .. . ... : ... .. . ...
ROW 0B : ... .. . ... : ... .. . ... : ... .. . ... : ... .. . ... : ... .. . ...
ROW 0C : ... .. . ... : ... .. . ... : B-2 02 . ... : ... .. . ... : ... .. . ...
ROW 0D : ... .. . ... : ... .. . ... : ... .. . ... : ... .. . ... : ... .. . ...
ROW 0E : ... .. . ... : ... .. . ... : G-2 02 . ... : ... .. . ... : ... .. . ...
ROW 0F : ... .. . ... : ... .. . ... : ... .. . ... : ... .. . ... : ... .. . ...
ROW 10 : C-5 0F . ... : E-5 0F . ... : A-2 02 . ... : ... .. . ... : ... .. . ...
ROW 11 : ... .. . ... : ... .. . ... : ... .. . ... : ... .. . ... : ... .. . ...
ROW 12 : ... .. . ... : ... .. . ... : C-3 02 . ... : ... .. . ... : ... .. . ...
ROW 13 : ... .. . ... : ... .. . ... : ... .. . ... : ... .. . ... : ... .. . ...
ROW 14 : ... .. . ... : ... .. . ... : E-3 02 . ... : ... .. . ... : ... .. . ...
ROW 15 : ... .. . ... : ... .. . ... : ... .. . ... : ... .. . ... : ... .. . ...
ROW 16 : B-4 0F . ... : D-5 0F . ... : A-3 02 . ... : ... .. . ... : ... .. . ...
ROW 17 : A-4 0F . ... : D-5 0F . ... : F#3 02 . ... : ... .. . ... : ... .. . ...
ROW 18 : ... .. . ... : ... .. . ... : ... .. . ... : ... .. . ... : ... .. . ...
ROW 19 : ... .. . ... : ... .. . ... : ... .. . ... : ... .. . ... : ... .. . ...
ROW 1A : B-4 0F . ... : ... .. . ... : D-3 02 . ... : ... .. . ... : ... .. . ...
ROW 1B : ... .. . ... : ... .. . ... : ... .. . ... : ... .. . ... : ... .. . ...
ROW 1C : C-5 0F . ... : ... .. . ... : B-3 02 . ... : ... .. . ... : ... .. . ...
ROW 1D : ... .. . ... : ... .. . ... : ... .. . ... : ... .. . ... : ... .. . ...
ROW 1E : D-5 0F . ... : ... .. . ... : A-3 02 . ... : ... .. . ... : ... .. . ...
ROW 1F : ... .. . ... : ... .. . ... : ... .. . ... : ... .. . ... : ... .. . ...
ROW 20 : B-4 0F . ... : D-5 0F . ... : G-2 02 . ... : ... .. . ... : ... .. . ...
ROW 21 : ... .. . ... : ... .. . ... : ... .. . ... : ... .. . ... : ... .. . ...
ROW 22 : ... .. . ... : ... .. . ... : B-2 02 . ... : ... .. . ... : ... .. . ...
ROW 23 : ... .. . ... : ... .. . ... : ... .. . ... : ... .. . ... : ... .. . ...
ROW 24 : ... .. . ... : ... .. . ... : D-3 02 . ... : ... .. . ... : ... .. . ...
ROW 25 : ... .. . ... : ... .. . ... : ... .. . ... : ... .. . ... : ... .. . ...
ROW 26 : D-4 0F . ... : D-4 0F . ... : G-3 02 . ... : ... .. . ... : ... .. . ...
ROW 27 : E-4 0F . ... : B-4 0F . ... : E-3 02 . ... : ... .. . ... : ... .. . ...
ROW 28 : ... .. . ... : ... .. . ... : ... .. . ... : ... .. . ... : ... .. . ...
ROW 29 : ... .. . ... : ... .. . ... : ... .. . ... : ... .. . ... : ... .. . ...
ROW 2A : ... .. . ... : ... .. . ... : D-3 02 . ... : ... .. . ... : ... .. . ...
ROW 2B : ... .. . ... : ... .. . ... : ... .. . ... : ... .. . ... : ... .. . ...
ROW 2C : ... .. . ... : ... .. . ... : B-2 02 . ... : ... .. . ... : ... .. . ...
ROW 2D : ... .. . ... : ... .. . ... : ... .. . ... : ... .. . ... : ... .. . ...
ROW 2E : ... .. . ... : ... .. . ... : G-2 02 . ... : ... .. . ... : ... .. . ...
ROW 2F : D-4 0F . ... : A-4 0F . ... : ... .. . ... : ... .. . ... : ... .. . ...
ROW 30 : E-4 0F . ... : A-4 0F . ... : A-2 02 . ... : ... .. . ... : ... .. . ...
ROW 31 : ... .. . ... : ... .. . ... : ... .. . ... : ... .. . ... : ... .. . ...
ROW 32 : E-4 0F . ... : B-4 0F . ... : C-3 02 . ... : ... .. . ... : ... .. . ...
ROW 33 : ... .. . ... : ... .. . ... : ... .. . ... : ... .. . ... : ... .. . ...
ROW 34 : G-4 0F . ... : C-5 0F . ... : E-3 02 . ... : ... .. . ... : ... .. . ...
ROW 35 : ... .. . ... : ... .. . ... : ... .. . ... : ... .. . ... : ... .. . ...
ROW 36 : B-4 0F . ... : D-5 0F . ... : A-3 02 . ... : ... .. . ... : ... .. . ...
ROW 37 : D-4 0F . ... : A-4 0F . ... : F#3 02 . ... : ... .. . ... : ... .. . ...
ROW 38 : ... .. . ... : ... .. . ... : ... .. . ... : ... .. . ... : ... .. . ...
ROW 39 : ... .. . ... : ... .. . ... : ... .. . ... : ... .. . ... : ... .. . ...
ROW 3A : ... .. . ... : ... .. . ... : D-3 02 . ... : ... .. . ... : ... .. . ...
ROW 3B : ... .. . ... : ... .. . ... : ... .. . ... : ... .. . ... : ... .. . ...
ROW 3C : ... .. . ... : ... .. . ... : B-3 02 . ... : ... .. . ... : ... .. . ...
ROW 3D : ... .. . ... : ... .. . ... : ... .. . ... : ... .. . ... : ... .. . ...
ROW 3E : ... .. . ... : ... .. . ... : A-3 02 . ... : ... .. . ... : ... .. . ...
ROW 3F : ... .. . ... : ... .. . ... : ... .. . ... : ... .. . ... : ... .. . ...

PATTERN 02
ROW 00 : --- .. . ... : D-4 10 . ... : D-3 02 . ... : ... .. . ... : ... .. . ...
ROW 01 : ... .. . ... : ... .. . ... : ... .. . ... : ... .. . ... : ... .. . ...
ROW 02 : ... .. . ... : D-4 10 . ... : ... .. . ... : ... .. . ... : ... .. . ...
ROW 03 : ... .. . ... : D-4 10 . ... : ... .. . ... : ... .. . ... : ... .. . ...
ROW 04 : ... .. . ... : ... .. . ... : ... .. . ... : ... .. . ... : ... .. . ...
ROW 05 : ... .. . ... : ... .. . ... : ... .. . ... : ... .. . ... : ... .. . ...
ROW 06 : ... .. . ... : D-3 10 . ... : F-3 02 . ... : ... .. . ... : ... .. . ...
ROW 07 : ... .. . ... : ... .. . ... : ... .. . ... : ... .. . ... : ... .. . ...
ROW 08 : ... .. . ... : D-4 10 . ... : D-3 02 . ... : ... .. . ... : ... .. . ...
ROW 09 : ... .. . ... : ... .. . ... : ... .. . ... : ... .. . ... : ... .. . ...
ROW 0A : ... .. . ... : D-4 10 . ... : ... .. . ... : ... .. . ... : ... .. . ...
ROW 0B : ... .. . ... : D-4 10 . ... : ... .. . ... : ... .. . ... : ... .. . ...
ROW 0C : ... .. . ... : ... .. . ... : ... .. . ... : ... .. . ... : ... .. . ...
ROW 0D : ... .. . ... : ... .. . ... : ... .. . ... : ... .. . ... : ... .. . ...
ROW 0E : ... .. . ... : D-3 10 . ... : F-3 02 . ... : ... .. . ... : ... .. . ...
ROW 0F : ... .. . ... : ... .. . ... : ... .. . ... : ... .. . ... : ... .. . ...
ROW 10 : ... .. . ... : D-4 11 . ... : A#3 02 . ... : ... .. . ... : ... .. . ...
ROW 11 : ... .. . ... : ... .. . ... : ... .. . ... : ... .. . ... : ... .. . ...
ROW 12 : ... .. . ... : D-4 11 . ... : ... .. . ... : ... .. . ... : ... .. . ...
ROW 13 : ... .. . ... : D-4 11 . ... : ... .. . ... : ... .. . ... : ... .. . ...
ROW 14 : ... .. . ... : ... .. . ... : ... .. . ... : ... .. . ... : ... .. . ...
ROW 15 : ... .. . ... : ... .. . ... : ... .. . ... : ... .. . ... : ... .. . ...
ROW 16 : ... .. . ... : D-3 11 . ... : F-3 02 . ... : ... .. . ... : ... .. . ...
ROW 17 : ... .. . ... : ... .. . ... : ... .. . ... : ... .. . ... : ... .. . ...
ROW 18 : ... .. . ... : D-4 10 . ... : D-3 02 . ... : ... .. . ... : ... .. . ...
ROW 19 : ... .. . ... : ... .. . ... : ... .. . ... : ... .. . ... : ... .. . ...
ROW 1A : ... .. . ... : D-4 10 . ... : ... .. . ... : ... .. . ... : ... .. . ...
ROW 1B : ... .. . ... : D-4 10 . ... : ... .. . ... : ... .. . ... : ... .. . ...
ROW 1C : ... .. . ... : ... .. . ... : ... .. . ... : ... .. . ... : ... .. . ...
ROW 1D : ... .. . ... : ... .. . ... : ... .. . ... : ... .. . ... : ... .. . ...
ROW 1E : ... .. . ... : D-3 10 . ... : C-3 02 . ... : ... .. . ... : ... .. . ...
ROW 1F : ... .. . D00 : ... .. . ... : ... .. . ... : ... .. . ... : ... .. . ...
ROW 20 : ... .. . ... : ... .. . ... : ... .. . ... : ... .. . ... : ... .. . ...
ROW 21 : ... .. . ... : ... .. . ... : ... .. . ... : ... .. . ... : ... .. . ...
ROW 22 : ... .. . ... : ... .. . ... : ... .. . ... : ... .. . ... : ... .. . ...
ROW 23 : ... .. . ... : ... .. . ... : ... .. . ... : ... .. . ... : ... .. . ...
ROW 24 : ... .. . ... : ... .. . ... : ... .. . ... : ... .. . ... : ... .. . ...
ROW 25 : ... .. . ... : ... .. . ... : ... .. . ... : ... .. . ... : ... .. . ...
ROW 26 : ... .. . ... : ... .. . ... : ... .. . ... : ... .. . ... : ... .. . ...
ROW 27 : ... .. . ... : ... .. . ... : ... .. . ... : ... .. . ... : ... .. . ...
ROW 28 : ... .. . ... : ... .. . ... : ... .. . ... : ... .. . ... : ... .. . ...
ROW 29 : ... .. . ... : ... .. . ... : ... .. . ... : ... .. . ... : ... .. . ...
ROW 2A : ... .. . ... : ... .. . ... : ... .. . ... : ... .. . ... : ... .. . ...
ROW 2B : ... .. . ... : ... .. . ... : ... .. . ... : ... .. . ... : ... .. . ...
ROW 2C : ... .. . ... : ... .. . ... : ... .. . ... : ... .. . ... : ... .. . ...
ROW 2D : ... .. . ... : ... .. . ... : ... .. . ... : ... .. . ... : ... .. . ...
ROW 2E : ... .. . ... : ... .. . ... : ... .. . ... : ... .. . ... : ... .. . ...
ROW 2F : ... .. . ... : ... .. . ... : ... .. . ... : ... .. . ... : ... .. . ...
ROW 30 : ... .. . ... : ... .. . ... : ... .. . ... : ... .. . ... : ... .. . ...
ROW 31 : ... .. . ... : ... .. . ... : ... .. . ... : ... .. . ... : ... .. . ...
ROW 32 : ... .. . ... : ... .. . ... : ... .. . ... : ... .. . ... : ... .. . ...
ROW 33 : ... .. . ... : ... .. . ... : ... .. . ... : ... .. . ... : ... .. . ...
ROW 34 : ... .. . ... : ... .. . ... : ... .. . ... : ... .. . ... : ... .. . ...
ROW 35 : ... .. . ... : ... .. . ... : ... .. . ... : ... .. . ... : ... .. . ...
ROW 36 : ... .. . ... : ... .. . ... : ... .. . ... : ... .. . ... : ... .. . ...
ROW 37 : ... .. . ... : ... .. . ... : ... .. . ... : ... .. . ... : ... .. . ...
ROW 38 : ... .. . ... : ... .. . ... : ... .. . ... : ... .. . ... : ... .. . ...
ROW 39 : ... .. . ... : ... .. . ... : ... .. . ... : ... .. . ... : ... .. . ...
ROW 3A : ... .. . ... : ... .. . ... : ... .. . ... : ... .. . ... : ... .. . ...
ROW 3B : ... .. . ... : ... .. . ... : ... .. . ... : ... .. . ... : ... .. . ...
ROW 3C : ... .. . ... : ... .. . ... : ... .. . ... : ... .. . ... : ... .. . ...
ROW 3D : ... .. . ... : ... .. . ... : ... .. . ... : ... .. . ... : ... .. . ...
ROW 3E : ... .. . ... : ... .. . ... : ... .. . ... : ... .. . ... : ... .. . ...
ROW 3F : ... .. . ... : ... .. . ... : ... .. . ... : ... .. . ... : ... .. . ...

PATTERN 03
ROW 00 : D-4 13 . ... : D#4 0E . ... : D#3 02 . ... : ... .. . ... : ... .. . ...
ROW 01 : D-4 13 . ... : ... .. . ... : ... .. . ... : ... .. . ... : ... .. . ...
ROW 02 : C-4 13 . ... : D#4 0E . ... : ... .. . ... : ... .. . ... : ... .. . ...
ROW 03 : C-4 13 . ... : D#4 0E . ... : ... .. . ... : ... .. . ... : ... .. . ...
ROW 04 : D-4 13 . ... : ... .. . ... : ... .. . ... : ... .. . ... : ... .. . ...
ROW 05 : E-4 13 . ... : D#3 0E . ... : ... .. . ... : ... .. . ... : ... .. . ...
ROW 06 : F-4 13 . ... : D#4 0E . ... : G-2 02 . ... : ... .. . ... : ... .. . ...
ROW 07 : E-4 13 . ... : ... .. . ... : A#2 02 . ... : ... .. . ... : ... .. . ...
ROW 08 : D-4 13 . ... : D-4 10 . ... : D-3 02 . ... : ... .. . ... : ... .. . ...
ROW 09 : D-4 13 . ... : ... .. . ... : ... .. . ... : ... .. . ... : ... .. . ...
ROW 0A : C-4 13 . ... : D-4 10 . ... : ... .. . ... : ... .. . ... : ... .. . ...
ROW 0B : C-4 13 . ... : D-4 10 . ... : ... .. . ... : ... .. . ... : ... .. . ...
ROW 0C : D-4 13 . ... : ... .. . ... : ... .. . ... : ... .. . ... : ... .. . ...
ROW 0D : E-4 13 . ... : D-3 10 . ... : ... .. . ... : ... .. . ... : ... .. . ...
ROW 0E : A-4 13 . ... : D-4 10 . ... : F-2 02 . ... : ... .. . ... : ... .. . ...
ROW 0F : A#4 13 . ... : ... .. . ... : A-2 02 . ... : ... .. . ... : ... .. . ...
ROW 10 : D-4 13 . ... : A#3 0E . ... : A#2 02 . ... : ... .. . ... : ... .. . ...
ROW 11 : D-4 13 . ... : ... .. . ... : ... .. . ... : ... .. . ... : ... .. . ...
ROW 12 : C-4 13 . ... : A#3 0E . ... : ... .. . ... : ... .. . ... : ... .. . ...
ROW 13 : C-4 13 . ... : A#3 0E . ... : ... .. . ... : ... .. . ... : ... .. . ...
ROW 14 : D-4 13 . ... : ... .. . ... : ... .. . ... : ... .. . ... : ... .. . ...
ROW 15 : F-4 13 . ... : A#4 0E . ... : ... .. . ... : ... .. . ... : ... .. . ...
ROW 16 : E-4 13 . ... : A#3 0E . ... : F-2 02 . ... : ... .. . ... : ... .. . ...
ROW 17 : D#4 13 . ... : ... .. . ... : A#2 02 . ... : ... .. . ... : ... .. . ...
ROW 18 : D-4 13 . ... : D-4 0E . ... : D-3 02 . ... : ... .. . ... : ... .. . ...
ROW 19 : D-4 13 . ... : ... .. . ... : ... .. . ... : ... .. . ... : ... .. . ...
ROW 1A : C-4 13 . ... : D-4 0E . ... : ... .. . ... : ... .. . ... : ... .. . ...
ROW 1B : C-4 13 . ... : D-4 0E . ... : ... .. . ... : ... .. . ... : ... .. . ...
ROW 1C : D-4 13 . ... : ... .. . ... : ... .. . ... : ... .. . ... : ... .. . ...
ROW 1D : E-4 13 . ... : D-3 0E . ... : ... .. . ... : ... .. . ... : ... .. . ...
ROW 1E : A-4 13 . ... : D-4 0E . ... : ... .. . ... : ... .. . ... : ... .. . ...
ROW 1F : A#4 13 . D00 : ... .. . ... : ... .. . ... : ... .. . ... : ... .. . ...
ROW 20 : ... .. . ... : G-4 10 . ... : G-2 02 . ... : ... .. . ... : ... .. . ...
ROW 21 : ... .. . ... : ... .. . ... : ... .. . ... : ... .. . ... : ... .. . ...
ROW 22 : ... .. . ... : G-4 10 . ... : ... .. . ... : ... .. . ... : ... .. . ...
ROW 23 : ... .. . ... : G-4 10 . ... : D-2 02 . ... : ... .. . ... : ... .. . ...
ROW 24 : ... .. . ... : ... .. . ... : G-2 02 . ... : ... .. . ... : ... .. . ...
ROW 25 : ... .. . ... : G-3 10 . ... : D-2 02 . ... : ... .. . ... : ... .. . ...
ROW 26 : ... .. . ... : G-4 10 . ... : A#2 02 . ... : ... .. . ... : ... .. . ...
ROW 27 : ... .. . ... : ... .. . ... : G-2 02 . ... : ... .. . ... : ... .. . ...
ROW 28 : ... .. . ... : D-4 10 . ... : F-2 02 . ... : ... .. . ... : ... .. . ...
ROW 29 : ... .. . ... : ... .. . ... : ... .. . ... : ... .. . ... : ... .. . ...
ROW 2A : ... .. . ... : D-4 10 . ... : ... .. . ... : ... .. . ... : ... .. . ...
ROW 2B : ... .. . ... : D-4 10 . ... : D-2 02 . ... : ... .. . ... : ... .. . ...
ROW 2C : ... .. . ... : ... .. . ... : F-2 02 . ... : ... .. . ... : ... .. . ...
ROW 2D : ... .. . ... : D-3 10 . ... : D-2 02 . ... : ... .. . ... : ... .. . ...
ROW 2E : ... .. . ... : D-4 10 . ... : A-2 02 . ... : ... .. . ... : ... .. . ...
ROW 2F : ... .. . ... : ... .. . ... : F-2 02 . ... : ... .. . ... : ... .. . ...
ROW 30 : ... .. . ... : A-3 0E . ... : E-2 02 . ... : ... .. . ... : ... .. . ...
ROW 31 : ... .. . ... : ... .. . ... : ... .. . ... : ... .. . ... : ... .. . ...
ROW 32 : ... .. . ... : A-3 0E . ... : ... .. . ... : ... .. . ... : ... .. . ...
ROW 33 : ... .. . ... : A-3 0E . ... : A-2 02 . ... : ... .. . ... : ... .. . ...
ROW 34 : ... .. . ... : ... .. . ... : C#3 02 . ... : ... .. . ... : ... .. . ...
ROW 35 : ... .. . ... : A-4 0E . ... : A-2 02 . ... : ... .. . ... : ... .. . ...
ROW 36 : ... .. . ... : A-3 0E . ... : E-2 02 . ... : ... .. . ... : ... .. . ...
ROW 37 : ... .. . ... : ... .. . ... : C#2 02 . ... : ... .. . ... : ... .. . ...
ROW 38 : ... .. . ... : D-4 10 . ... : D-2 02 . ... : ... .. . ... : ... .. . ...
ROW 39 : ... .. . ... : ... .. . ... : ... .. . ... : ... .. . ... : ... .. . ...
ROW 3A : ... .. . ... : D-3 10 . ... : ... .. . ... : ... .. . ... : ... .. . ...
ROW 3B : ... .. . ... : D-4 10 . ... : A-2 02 . ... : ... .. . ... : ... .. . ...
ROW 3C : ... .. . ... : ... .. . ... : ... .. . ... : ... .. . ... : ... .. . ...
ROW 3D : ... .. . ... : D-3 10 . ... : D-2 02 . ... : ... .. . ... : ... .. . ...
ROW 3E : ... .. . ... : D-4 10 . ... : ... .. . ... : ... .. . ... : ... .. . ...
ROW 3F : ... .. . ... : D-3 10 . ... : ... .. . ... : ... .. . ... : ... .. . ...

PATTERN 04
ROW 00 : G-4 0F . ... : ... .. . ... : ... .. . ... : ... .. . ... : ... .. . ...
ROW 01 : ... .. . ... : ... .. . ... : ... .. . ... : ... .. . ... : ... .. . ...
ROW 02 : ... .. . ... : ... .. . ... : ... .. . ... : ... .. . ... : ... .. . ...
ROW 03 : G-4 0F . ... : ... .. . ... : ... .. . ... : ... .. . ... : ... .. . ...
ROW 04 : ... .. . ... : ... .. . ... : ... .. . ... : ... .. . ... : ... .. . ...
ROW 05 : A#4 0F . ... : ... .. . ... : ... .. . ... : ... .. . ... : ... .. . ...
ROW 06 : A-4 0F . ... : ... .. . ... : ... .. . ... : ... .. . ... : ... .. . ...
ROW 07 : G-4 0F . ... : ... .. . ... : ... .. . ... : ... .. . ... : ... .. . ...
ROW 08 : F-4 0F . ... : ... .. . ... : ... .. . ... : ... .. . ... : ... .. . ...
ROW 09 : ... .. . ... : ... .. . ... : ... .. . ... : ... .. . ... : ... .. . ...
ROW 0A : ... .. . ... : ... .. . ... : ... .. . ... : ... .. . ... : ... .. . ...
ROW 0B : F-4 0F . ... : ... .. . ... : ... .. . ... : ... .. . ... : ... .. . ...
ROW 0C : ... .. . ... : ... .. . ... : ... .. . ... : ... .. . ... : ... .. . ...
ROW 0D : ... .. . ... : ... .. . ... : ... .. . ... : ... .. . ... : ... .. . ...
ROW 0E : D-4 0F . ... : ... .. . ... : ... .. . ... : ... .. . ... : ... .. . ...
ROW 0F : ... .. . ... : ... .. . ... : ... .. . ... : ... .. . ... : ... .. . ...
ROW 10 : A#4 0F . ... : ... .. . ... : ... .. . ... : ... .. . ... : ... .. . ...
ROW 11 : ... .. . ... : ... .. . ... : ... .. . ... : ... .. . ... : ... .. . ...
ROW 12 : ... .. . ... : ... .. . ... : ... .. . ... : ... .. . ... : ... .. . ...
ROW 13 : A#4 0F . ... : ... .. . ... : ... .. . ... : ... .. . ... : ... .. . ...
ROW 14 : ... .. . ... : ... .. . ... : ... .. . ... : ... .. . ... : ... .. . ...
ROW 15 : ... .. . ... : ... .. . ... : ... .. . ... : ... .. . ... : ... .. . ...
ROW 16 : D-4 0F . ... : ... .. . ... : ... .. . ... : ... .. . ... : ... .. . ...
ROW 17 : ... .. . ... : ... .. . ... : ... .. . ... : ... .. . ... : ... .. . ...
ROW 18 : A-4 0F . ... : ... .. . ... : ... .. . ... : ... .. . ... : ... .. . ...
ROW 19 : ... .. . ... : ... .. . ... : ... .. . ... : ... .. . ... : ... .. . ...
ROW 1A : ... .. . ... : ... .. . ... : ... .. . ... : ... .. . ... : ... .. . ...
ROW 1B : A-4 0F . ... : ... .. . ... : ... .. . ... : ... .. . ... : ... .. . ...
ROW 1C : ... .. . ... : ... .. . ... : ... .. . ... : ... .. . ... : ... .. . ...
ROW 1D : ... .. . ... : ... .. . ... : ... .. . ... : ... .. . ... : ... .. . ...
ROW 1E : D-4 0F . ... : ... .. . ... : ... .. . ... : ... .. . ... : ... .. . ...
ROW 1F : ... .. . ... : ... .. . ... : ... .. . ... : ... .. . ... : ... .. . ...
ROW 20 : G-4 0F . ... : ... .. . ... : ... .. . ... : ... .. . ... : ... .. . ...
ROW 21 : ... .. . ... : ... .. . ... : ... .. . ... : ... .. . ... : ... .. . ...
ROW 22 : ... .. . ... : ... .. . ... : ... .. . ... : ... .. . ... : ... .. . ...
ROW 23 : G-4 0F . ... : ... .. . ... : ... .. . ... : ... .. . ... : ... .. . ...
ROW 24 : ... .. . ... : ... .. . ... : ... .. . ... : ... .. . ... : ... .. . ...
ROW 25 : ... .. . ... : ... .. . ... : ... .. . ... : ... .. . ... : ... .. . ...
ROW 26 : E-4 0F . ... : ... .. . ... : ... .. . ... : ... .. . ... : ... .. . ...
ROW 27 : ... .. . ... : ... .. . ... : ... .. . ... : ... .. . ... : ... .. . ...
ROW 28 : F-4 0F . ... : ... .. . ... : ... .. . ... : ... .. . ... : ... .. . ...
ROW 29 : ... .. . ... : ... .. . ... : ... .. . ... : ... .. . ... : ... .. . ...
ROW 2A : ... .. . ... : ... .. . ... : ... .. . ... : ... .. . ... : ... .. . ...
ROW 2B : F-4 0F . ... : ... .. . ... : ... .. . ... : ... .. . ... : ... .. . ...
ROW 2C : ... .. . ... : ... .. . ... : ... .. . ... : ... .. . ... : ... .. . ...
ROW 2D : ... .. . ... : ... .. . ... : ... .. . ... : ... .. . ... : ... .. . ...
ROW 2E : D-4 0F . ... : ... .. . ... : ... .. . ... : ... .. . ... : ... .. . ...
ROW 2F : ... .. . ... : ... .. . ... : ... .. . ... : ... .. . ... : ... .. . ...
ROW 30 : E-4 0F . ... : ... .. . ... : ... .. . ... : ... .. . ... : ... .. . ...
ROW 31 : ... .. . ... : ... .. . ... : ... .. . ... : ... .. . ... : ... .. . ...
ROW 32 : ... .. . ... : ... .. . ... : ... .. . ... : ... .. . ... : ... .. . ...
ROW 33 : E-4 0F . ... : ... .. . ... : ... .. . ... : ... .. . ... : ... .. . ...
ROW 34 : ... .. . ... : ... .. . ... : ... .. . ... : ... .. . ... : ... .. . ...
ROW 35 : ... .. . ... : ... .. . ... : ... .. . ... : ... .. . ... : ... .. . ...
ROW 36 : C#4 0F . ... : ... .. . ... : ... .. . ... : ... .. . ... : ... .. . ...
ROW 37 : ... .. . ... : ... .. . ... : ... .. . ... : ... .. . ... : ... .. . ...
ROW 38 : D-4 0F . ... : ... .. . ... : ... .. . ... : ... .. . ... : ... .. . ...
ROW 39 : ... .. . ... : ... .. . ... : ... .. . ... : ... .. . ... : ... .. . ...
ROW 3A : ... .. . ... : ... .. . ... : ... .. . ... : ... .. . ... : ... .. . ...
ROW 3B : D-4 0F . ... : ... .. . ... : ... .. . ... : ... .. . ... : ... .. . ...
ROW 3C : ... .. . ... : ... .. . ... : ... .. . ... : ... .. . ... : ... .. . ...
ROW 3D : ... .. . ... : ... .. . ... : ... .. . ... : ... .. . ... : ... .. . ...
ROW 3E : A#3 0F . ... : ... .. . ... : ... .. . ... : ... .. . ... : ... .. . ...
ROW 3F : G-3 0F . ... : ... .. . ... : ... .. . ... : ... .. . ... : ... .. . ...

TRACK  64  10 150 "Ingame 5"
COLUMNS : 1 1 1 1 1

ORDER 00 : 01 01 00 01 00
ORDER 01 : 01 00 00 01 00
ORDER 02 : 00 01 00 00 00
ORDER 03 : 00 00 00 00 00
ORDER 04 : 01 01 00 01 00
ORDER 05 : 00 00 00 00 00
ORDER 06 : 00 00 00 00 00
ORDER 07 : 02 02 01 00 01
ORDER 08 : 03 03 02 01 02
ORDER 09 : 00 00 00 00 00
ORDER 0A : 00 00 00 00 00

PATTERN 00
ROW 00 : C-4 12 . ... : F-3 13 . ... : F-2 02 . ... : 1-# 14 . ... : ... .. . ...
ROW 01 : ... .. . ... : ... .. . ... : ... .. . ... : ... .. . ... : ... .. . ...
ROW 02 : F-4 12 . ... : ... .. . ... : --- .. . ... : ... .. . ... : ... .. . ...
ROW 03 : ... .. . ... : ... .. . ... : ... .. . ... : ... .. . ... : ... .. . ...
ROW 04 : F-4 12 . ... : A-3 13 . ... : C-3 02 . ... : 9-# 14 . ... : ... .. . ...
ROW 05 : ... .. . ... : ... .. . ... : ... .. . ... : ... .. . ... : ... .. . ...
ROW 06 : F-4 12 . ... : ... .. . ... : ... .. . ... : ... .. . ... : ... .. . ...
ROW 07 : ... .. . ... : ... .. . ... : ... .. . ... : ... .. . ... : ... .. . ...
ROW 08 : D-4 12 . ... : A#3 13 . ... : A#2 02 . ... : 1-# 14 . ... : ... .. . ...
ROW 09 : ... .. . ... : ... .. . ... : ... .. . ... : ... .. . ... : ... .. . ...
ROW 0A : A#3 12 . ... : ... .. . ... : --- .. . ... : ... .. . ... : ... .. . ...
ROW 0B : ... .. . ... : ... .. . ... : ... .. . ... : ... .. . ... : ... .. . ...
ROW 0C : A#3 12 . ... : D-4 13 . ... : F-2 02 . ... : 9-# 14 . ... : ... .. . ...
ROW 0D : ... .. . ... : ... .. . ... : ... .. . ... : ... .. . ... : ... .. . ...
ROW 0E : --- .. . ... : ... .. . ... : ... .. . ... : 1-# 14 . ... : ... .. . ...
ROW 0F : ... .. . ... : ... .. . ... : ... .. . ... : ... .. . ... : ... .. . ...
ROW 10 : A-3 12 . ... : C-4 13 . ... : A-2 02 . ... : 1-# 14 . ... : ... .. . ...
ROW 11 : ... .. . ... : ... .. . ... : --- .. . ... : ... .. . ... : ... .. . ...
ROW 12 : C-4 12 . ... : ... .. . ... : F-2 02 . ... : ... .. . ... : ... .. . ...
ROW 13 : ... .. . ... : ... .. . ... : --- .. . ... : ... .. . ... : ... .. . ...
ROW 14 : A-3 12 . ... : A-3 13 . ... : C-3 02 . ... : 9-# 14 . ... : ... .. . ...
ROW 15 : ... .. . ... : ... .. . ... : ... .. . ... : ... .. . ... : ... .. . ...
ROW 16 : F-3 12 . ... : ... .. . ... : ... .. . ... : ... .. . ... : ... .. . ...
ROW 17 : ... .. . ... : ... .. . ... : ... .. . ... : ... .. . ... : ... .. . ...
ROW 18 : G-3 12 . ... : G-3 13 . ... : G-2 02 . ... : 1-# 14 . ... : ... .. . ...
ROW 19 : A-3 12 . ... : ... .. . ... : ... .. . ... : ... .. . ... : ... .. . ...
ROW 1A : G-3 12 . ... : F-3 13 . ... : C-2 02 . ... : 9-# 14 . ... : ... .. . ...
ROW 1B : F-3 12 . ... : ... .. . ... : ... .. . ... : ... .. . ... : ... .. . ...
ROW 1C : G-3 12 . ... : E-3 13 . ... : D-2 02 . ... : 1-# 14 . ... : ... .. . ...
ROW 1D : ... .. . ... : ... .. . ... : ... .. . ... : ... .. . ... : ... .. . ...
ROW 1E : --- .. . ... : G-3 13 . ... : E-2 02 . ... : 1-# 14 . ... : ... .. . ...
ROW 1F : ... .. . ... : ... .. . ... : --- .. . ... : ... .. . ... : ... .. . ...
ROW 20 : C-4 12 . ... : F-3 13 . ... : F-2 02 . ... : 1-# 14 . ... : ... .. . ...
ROW 21 : ... .. . ... : ... .. . ... : ... .. . ... : ... .. . ... : ... .. . ...
ROW 22 : F-4 12 . ... : ... .. . ... : --- .. . ... : ... .. . ... : ... .. . ...
ROW 23 : ... .. . ... : ... .. . ... : ... .. . ... : ... .. . ... : ... .. . ...
ROW 24 : F-4 12 . ... : A-3 13 . ... : C-3 02 . ... : 9-# 14 . ... : ... .. . ...
ROW 25 : ... .. . ... : ... .. . ... : ... .. . ... : ... .. . ... : ... .. . ...
ROW 26 : F-4 12 . ... : ... .. . ... : ... .. . ... : ... .. . ... : ... .. . ...
ROW 27 : ... .. . ... : ... .. . ... : ... .. . ... : ... .. . ... : ... .. . ...
ROW 28 : D-4 12 . ... : A#3 13 . ... : A#2 02 . ... : 1-# 14 . ... : ... .. . ...
ROW 29 : ... .. . ... : ... .. . ... : ... .. . ... : ... .. . ... : ... .. . ...
ROW 2A : A#3 12 . ... : ... .. . ... : --- .. . ... : ... .. . ... : ... .. . ...
ROW 2B : ... .. . ... : ... .. . ... : ... .. . ... : ... .. . ... : ... .. . ...
ROW 2C : A#3 12 . ... : D-4 13 . ... : F-2 02 . ... : 9-# 14 . ... : ... .. . ...
ROW 2D : ... .. . ... : ... .. . ... : ... .. . ... : ... .. . ... : ... .. . ...
ROW 2E : --- .. . ... : ... .. . ... : ... .. . ... : 1-# 14 . ... : ... .. . ...
ROW 2F : ... .. . ... : ... .. . ... : ... .. . ... : ... .. . ... : ... .. . ...
ROW 30 : A-3 12 . ... : C-4 13 . ... : F-2 02 . ... : 1-# 14 . ... : ... .. . ...
ROW 31 : C-4 12 . ... : ... .. . ... : --- .. . ... : ... .. . ... : ... .. . ...
ROW 32 : A-3 12 . ... : F-3 13 . ... : C-2 02 . ... : 9-# 14 . ... : ... .. . ...
ROW 33 : F-3 12 . ... : ... .. . ... : --- .. . ... : ... .. . ... : ... .. . ...
ROW 34 : G-3 12 . ... : G-3 13 . ... : E-2 02 . ... : 1-# 14 . ... : ... .. . ...
ROW 35 : ... .. . ... : ... .. . ... : --- .. . ... : ... .. . ... : ... .. . ...
ROW 36 : G-3 12 . ... : C-3 13 . ... : C-2 02 . ... : 9-# 14 . ... : ... .. . ...
ROW 37 : ... .. . ... : ... .. . ... : --- .. . ... : ... .. . ... : ... .. . ...
ROW 38 : F-3 12 . ... : F-3 13 . ... : F-2 02 . ... : 1-# 14 . ... : ... .. . ...
ROW 39 : ... .. . ... : ... .. . ... : ... .. . ... : ... .. . ... : ... .. . ...
ROW 3A : ... .. . ... : ... .. . ... : ... .. . ... : ... .. . ... : ... .. . ...
ROW 3B : ... .. . ... : ... .. . ... : ... .. . ... : ... .. . ... : ... .. . ...
ROW 3C : --- .. . ... : ... .. . ... : C-2 02 . ... : 9-# 14 . ... : ... .. . ...
ROW 3D : ... .. . ... : ... .. . ... : ... .. . ... : ... .. . ... : ... .. . ...
ROW 3E : ... .. . ... : ... .. . ... : ... .. . ... : ... .. . ... : ... .. . ...
ROW 3F : ... .. . ... : ... .. . ... : ... .. . ... : ... .. . ... : ... .. . ...

PATTERN 01
ROW 00 : --- .. . ... : --- .. . ... : D-2 12 . ... : F-# 14 . ... : ... .. . ...
ROW 01 : ... .. . ... : ... .. . ... : ... .. . ... : ... .. . ... : ... .. . ...
ROW 02 : ... .. . ... : ... .. . ... : --- .. . ... : ... .. . ... : ... .. . ...
ROW 03 : ... .. . ... : ... .. . ... : ... .. . ... : ... .. . ... : ... .. . ...
ROW 04 : ... .. . ... : ... .. . ... : F-2 12 . ... : F-# 14 . ... : ... .. . ...
ROW 05 : ... .. . ... : ... .. . ... : ... .. . ... : ... .. . ... : ... .. . ...
ROW 06 : ... .. . ... : ... .. . ... : --- .. . ... : ... .. . ... : ... .. . ...
ROW 07 : ... .. . ... : ... .. . ... : ... .. . ... : ... .. . ... : ... .. . ...
ROW 08 : ... .. . ... : ... .. . ... : D-2 12 . ... : F-# 14 . ... : ... .. . ...
ROW 09 : ... .. . ... : ... .. . ... : ... .. . ... : ... .. . ... : ... .. . ...
ROW 0A : ... .. . ... : ... .. . ... : --- .. . ... : ... .. . ... : ... .. . ...
ROW 0B : ... .. . ... : ... .. . ... : ... .. . ... : ... .. . ... : ... .. . ...
ROW 0C : ... .. . ... : ... .. . ... : F-2 12 . ... : F-# 14 . ... : ... .. . ...
ROW 0D : ... .. . ... : ... .. . ... : ... .. . ... : ... .. . ... : ... .. . ...
ROW 0E : ... .. . ... : ... .. . ... : --- .. . ... : ... .. . ... : ... .. . ...
ROW 0F : ... .. . ... : ... .. . ... : ... .. . ... : ... .. . ... : ... .. . ...
ROW 10 : ... .. . ... : ... .. . ... : E-2 12 . ... : F-# 14 . ... : ... .. . ...
ROW 11 : ... .. . ... : ... .. . ... : ... .. . ... : ... .. . ... : ... .. . ...
ROW 12 : ... .. . ... : ... .. . ... : --- .. . ... : ... .. . ... : ... .. . ...
ROW 13 : ... .. . ... : ... .. . ... : ... .. . ... : ... .. . ... : ... .. . ...
ROW 14 : ... .. . ... : ... .. . ... : G-2 12 . ... : F-# 14 . ... : ... .. . ...
ROW 15 : ... .. . ... : ... .. . ... : ... .. . ... : ... .. . ... : ... .. . ...
ROW 16 : ... .. . ... : ... .. . ... : --- .. . ... : ... .. . ... : ... .. . ...
ROW 17 : ... .. . ... : ... .. . ... : ... .. . ... : ... .. . ... : ... .. . ...
ROW 18 : ... .. . ... : ... .. . ... : E-2 12 . ... : F-# 14 . ... : ... .. . ...
ROW 19 : ... .. . ... : ... .. . ... : ... .. . ... : ... .. . ... : ... .. . ...
ROW 1A : ... .. . ... : ... .. . ... : --- .. . ... : ... .. . ... : ... .. . ...
ROW 1B : ... .. . ... : ... .. . ... : ... .. . ... : ... .. . ... : ... .. . ...
ROW 1C : ... .. . ... : ... .. . ... : C-2 12 . ... : F-# 14 . ... : ... .. . ...
ROW 1D : ... .. . ... : ... .. . ... : ... .. . ... : ... .. . ... : ... .. . ...
ROW 1E : ... .. . ... : ... .. . ... : --- .. . ... : ... .. . ... : ... .. . ...
ROW 1F : ... .. . ... : ... .. . ... : ... .. . ... : ... .. . ... : ... .. . ...
ROW 20 : ... .. . ... : ... .. . ... : D-2 12 . ... : F-# 14 . ... : ... .. . ...
ROW 21 : ... .. . ... : ... .. . ... : ... .. . ... : ... .. . ... : ... .. . ...
ROW 22 : ... .. . ... : ... .. . ... : --- .. . ... : ... .. . ... : ... .. . ...
ROW 23 : ... .. . ... : ... .. . ... : ... .. . ... : ... .. . ... : ... .. . ...
ROW 24 : ... .. . ... : ... .. . ... : F-2 12 . ... : F-# 14 . ... : ... .. . ...
ROW 25 : ... .. . ... : ... .. . ... : ... .. . ... : ... .. . ... : ... .. . ...
ROW 26 : ... .. . ... : ... .. . ... : --- .. . ... : ... .. . ... : ... .. . ...
ROW 27 : ... .. . ... : ... .. . ... : ... .. . ... : ... .. . ... : ... .. . ...
ROW 28 : ... .. . ... : ... .. . ... : D-2 12 . ... : F-# 14 . ... : ... .. . ...
ROW 29 : ... .. . ... : ... .. . ... : ... .. . ... : ... .. . ... : ... .. . ...
ROW 2A : ... .. . ... : ... .. . ... : --- .. . ... : ... .. . ... : ... .. . ...
ROW 2B : ... .. . ... : ... .. . ... : ... .. . ... : ... .. . ... : ... .. . ...
ROW 2C : ... .. . ... : ... .. . ... : F-2 12 . ... : F-# 14 . ... : ... .. . ...
ROW 2D : ... .. . ... : ... .. . ... : ... .. . ... : ... .. . ... : ... .. . ...
ROW 2E : ... .. . ... : ... .. . ... : --- .. . ... : ... .. . ... : ... .. . ...
ROW 2F : ... .. . ... : ... .. . ... : ... .. . ... : ... .. . ... : ... .. . ...
ROW 30 : ... .. . ... : ... .. . ... : G-2 12 . ... : F-# 14 . ... : ... .. . ...
ROW 31 : ... .. . ... : ... .. . ... : ... .. . ... : ... .. . ... : ... .. . ...
ROW 32 : ... .. . ... : ... .. . ... : ... .. . ... : ... .. . ... : ... .. . ...
ROW 33 : ... .. . ... : ... .. . ... : ... .. . ... : ... .. . ... : ... .. . ...
ROW 34 : ... .. . ... : ... .. . ... : E-2 12 . ... : F-# 14 . ... : ... .. . ...
ROW 35 : ... .. . ... : ... .. . ... : ... .. . ... : ... .. . ... : ... .. . ...
ROW 36 : ... .. . ... : ... .. . ... : ... .. . ... : ... .. . ... : ... .. . ...
ROW 37 : ... .. . ... : ... .. . ... : ... .. . ... : ... .. . ... : ... .. . ...
ROW 38 : ... .. . ... : ... .. . ... : C-2 12 . ... : F-# 14 . ... : ... .. . ...
ROW 39 : ... .. . ... : ... .. . ... : ... .. . ... : ... .. . ... : ... .. . ...
ROW 3A : ... .. . ... : ... .. . ... : ... .. . ... : ... .. . ... : ... .. . ...
ROW 3B : ... .. . ... : ... .. . ... : ... .. . ... : ... .. . ... : ... .. . ...
ROW 3C : ... .. . ... : ... .. . ... : ... .. . ... : F-# 14 . ... : ... .. . ...
ROW 3D : ... .. . ... : ... .. . ... : ... .. . ... : ... .. . ... : ... .. . ...
ROW 3E : ... .. . ... : ... .. . ... : C-2 13 . ... : ... .. . ... : ... .. . ...
ROW 3F : ... .. . ... : ... .. . ... : ... .. . ... : ... .. . ... : ... .. . ...

PATTERN 02
ROW 00 : F-4 12 . ... : F-3 13 . ... : C-3 13 . ... : ... .. . ... : ... .. . ...
ROW 01 : ... .. . ... : ... .. . ... : ... .. . ... : ... .. . ... : ... .. . ...
ROW 02 : F-4 12 . ... : D-3 13 . ... : ... .. . ... : ... .. . ... : ... .. . ...
ROW 03 : ... .. . ... : ... .. . ... : ... .. . ... : ... .. . ... : ... .. . ...
ROW 04 : D-4 12 . ... : A-3 13 . ... : ... .. . ... : ... .. . ... : ... .. . ...
ROW 05 : ... .. . ... : ... .. . ... : ... .. . ... : ... .. . ... : ... .. . ...
ROW 06 : D-4 12 . ... : ... .. . ... : C-2 13 . ... : ... .. . ... : ... .. . ...
ROW 07 : ... .. . ... : ... .. . ... : ... .. . ... : ... .. . ... : ... .. . ...
ROW 08 : F-4 12 . ... : F-3 13 . ... : C-3 13 . ... : ... .. . ... : ... .. . ...
ROW 09 : ... .. . ... : ... .. . ... : ... .. . ... : ... .. . ... : ... .. . ...
ROW 0A : F-4 12 . ... : D-3 13 . ... : ... .. . ... : ... .. . ... : ... .. . ...
ROW 0B : ... .. . ... : ... .. . ... : ... .. . ... : ... .. . ... : ... .. . ...
ROW 0C : D-4 12 . ... : A-3 13 . ... : ... .. . ... : ... .. . ... : ... .. . ...
ROW 0D : ... .. . ... : ... .. . ... : ... .. . ... : ... .. . ... : ... .. . ...
ROW 0E : --- .. . ... : ... .. . ... : ... .. . ... : ... .. . ... : ... .. . ...
ROW 0F : ... .. . ... : ... .. . ... : ... .. . ... : ... .. . ... : ... .. . ...
ROW 10 : E-4 12 . ... : E-3 13 . ... : --- .. . ... : ... .. . ... : ... .. . ...
ROW 11 : ... .. . ... : ... .. . ... : ... .. . ... : ... .. . ... : ... .. . ...
ROW 12 : E-4 12 . ... : C-3 13 . ... : ... .. . ... : ... .. . ... : ... .. . ...
ROW 13 : ... .. . ... : ... .. . ... : ... .. . ... : ... .. . ... : ... .. . ...
ROW 14 : C-4 12 . ... : G-3 13 . ... : ... .. . ... : ... .. . ... : ... .. . ...
ROW 15 : ... .. . ... : ... .. . ... : ... .. . ... : ... .. . ... : ... .. . ...
ROW 16 : C-4 12 . ... : ... .. . ... : ... .. . ... : ... .. . ... : ... .. . ...
ROW 17 : ... .. . ... : ... .. . ... : ... .. . ... : ... .. . ... : ... .. . ...
ROW 18 : E-4 12 . ... : E-3 13 . ... : ... .. . ... : ... .. . ... : ... .. . ...
ROW 19 : ... .. . ... : ... .. . ... : ... .. . ... : ... .. . ... : ... .. . ...
ROW 1A : E-4 12 . ... : C-3 13 . ... : ... .. . ... : ... .. . ... : ... .. . ...
ROW 1B : ... .. . ... : ... .. . ... : ... .. . ... : ... .. . ... : ... .. . ...
ROW 1C : C-4 12 . ... : A#3 13 . ... : ... .. . ... : ... .. . ... : ... .. . ...
ROW 1D : ... .. . ... : ... .. . ... : ... .. . ... : ... .. . ... : ... .. . ...
ROW 1E : --- .. . ... : ... .. . ... : ... .. . ... : ... .. . ... : ... .. . ...
ROW 1F : ... .. . ... : ... .. . ... : ... .. . ... : ... .. . ... : ... .. . ...
ROW 20 : F-4 12 . ... : F-3 13 . ... : ... .. . ... : ... .. . ... : ... .. . ...
ROW 21 : ... .. . ... : ... .. . ... : ... .. . ... : ... .. . ... : ... .. . ...
ROW 22 : F-4 12 . ... : D-3 13 . ... : ... .. . ... : ... .. . ... : ... .. . ...
ROW 23 : ... .. . ... : ... .. . ... : ... .. . ... : ... .. . ... : ... .. . ...
ROW 24 : D-4 12 . ... : A-3 13 . ... : ... .. . ... : ... .. . ... : ... .. . ...
ROW 25 : ... .. . ... : ... .. . ... : ... .. . ... : ... .. . ... : ... .. . ...
ROW 26 : D-4 12 . ... : C-4 13 . ... : ... .. . ... : ... .. . ... : ... .. . ...
ROW 27 : ... .. . ... : ... .. . ... : ... .. . ... : ... .. . ... : ... .. . ...
ROW 28 : F-4 12 . ... : F-3 13 . ... : ... .. . ... : ... .. . ... : ... .. . ...
ROW 29 : ... .. . ... : ... .. . ... : ... .. . ... : ... .. . ... : ... .. . ...
ROW 2A : F-4 12 . ... : D-3 13 . ... : ... .. . ... : ... .. . ... : ... .. . ...
ROW 2B : ... .. . ... : ... .. . ... : ... .. . ... : ... .. . ... : ... .. . ...
ROW 2C : D-4 12 . ... : A-3 13 . ... : ... .. . ... : ... .. . ... : ... .. . ...
ROW 2D : ... .. . ... : ... .. . ... : ... .. . ... : ... .. . ... : ... .. . ...
ROW 2E : ... .. . ... : C-4 13 . ... : ... .. . ... : ... .. . ... : ... .. . ...
ROW 2F : D-4 12 . ... : ... .. . ... : ... .. . ... : ... .. . ... : ... .. . ...
ROW 30 : E-4 12 . ... : C-3 13 . ... : ... .. . ... : ... .. . ... : ... .. . ...
ROW 31 : ... .. . ... : ... .. . ... : ... .. . ... : ... .. . ... : ... .. . ...
ROW 32 : D-4 12 . ... : E-3 13 . ... : ... .. . ... : ... .. . ... : ... .. . ...
ROW 33 : C-4 12 . ... : ... .. . ... : ... .. . ... : ... .. . ... : ... .. . ...
ROW 34 : D-4 12 . ... : G-3 13 . ... : ... .. . ... : ... .. . ... : ... .. . ...
ROW 35 : ... .. . ... : ... .. . ... : ... .. . ... : ... .. . ... : ... .. . ...
ROW 36 : C-4 12 . ... : B-3 13 . ... : ... .. . ... : ... .. . ... : ... .. . ...
ROW 37 : B-3 12 . ... : ... .. . ... : ... .. . ... : ... .. . ... : ... .. . ...
ROW 38 : C-4 12 . ... : C-4 13 . ... : ... .. . ... : ... .. . ... : ... .. . ...
ROW 39 : ... .. . ... : ... .. . ... : ... .. . ... : ... .. . ... : ... .. . ...
ROW 3A : ... .. . ... : ... .. . ... : ... .. . ... : ... .. . ... : ... .. . ...
ROW 3B : ... .. . ... : ... .. . ... : ... .. . ... : ... .. . ... : ... .. . ...
ROW 3C : C-3 12 . ... : --- .. . ... : ... .. . ... : ... .. . ... : ... .. . ...
ROW 3D : ... .. . ... : ... .. . ... : ... .. . ... : ... .. . ... : ... .. . ...
ROW 3E : --- .. . ... : ... .. . ... : ... .. . ... : ... .. . ... : ... .. . ...
ROW 3F : ... .. . ... : ... .. . ... : ... .. . ... : ... .. . ... : ... .. . ...

PATTERN 03
ROW 00 : ... .. . ... : ... .. . ... : ... .. . ... : ... .. . ... : ... .. . ...
ROW 01 : ... .. . ... : ... .. . ... : ... .. . ... : ... .. . ... : ... .. . ...
ROW 02 : ... .. . ... : ... .. . ... : ... .. . ... : ... .. . ... : ... .. . ...
ROW 03 : ... .. . ... : ... .. . ... : ... .. . ... : ... .. . ... : ... .. . ...
ROW 04 : ... .. . ... : ... .. . ... : ... .. . ... : ... .. . ... : ... .. . ...
ROW 05 : ... .. . ... : ... .. . ... : ... .. . ... : ... .. . ... : ... .. . ...
ROW 06 : ... .. . ... : ... .. . ... : ... .. . ... : ... .. . ... : ... .. . ...
ROW 07 : ... .. . ... : ... .. . ... : ... .. . ... : ... .. . ... : ... .. . ...
ROW 08 : ... .. . ... : ... .. . ... : ... .. . ... : ... .. . ... : ... .. . ...
ROW 09 : ... .. . ... : ... .. . ... : ... .. . ... : ... .. . ... : ... .. . ...
ROW 0A : ... .. . ... : ... .. . ... : ... .. . ... : ... .. . ... : ... .. . ...
ROW 0B : ... .. . ... : ... .. . ... : ... .. . ... : ... .. . ... : ... .. . ...
ROW 0C : ... .. . ... : ... .. . ... : ... .. . ... : ... .. . ... : ... .. . ...
ROW 0D : ... .. . ... : ... .. . ... : ... .. . ... : ... .. . ... : ... .. . ...
ROW 0E : ... .. . ... : ... .. . ... : ... .. . ... : ... .. . ... : ... .. . ...
ROW 0F : ... .. . ... : ... .. . ... : ... .. . ... : ... .. . ... : ... .. . ...
ROW 10 : ... .. . ... : ... .. . ... : ... .. . ... : ... .. . ... : ... .. . ...
ROW 11 : ... .. . ... : ... .. . ... : ... .. . ... : ... .. . ... : ... .. . ...
ROW 12 : ... .. . ... : ... .. . ... : ... .. . ... : ... .. . ... : ... .. . ...
ROW 13 : ... .. . ... : ... .. . ... : ... .. . ... : ... .. . ... : ... .. . ...
ROW 14 : ... .. . ... : ... .. . ... : ... .. . ... : ... .. . ... : ... .. . ...
ROW 15 : ... .. . ... : ... .. . ... : ... .. . ... : ... .. . ... : ... .. . ...
ROW 16 : ... .. . ... : ... .. . ... : ... .. . ... : ... .. . ... : ... .. . ...
ROW 17 : ... .. . ... : ... .. . ... : ... .. . ... : ... .. . ... : ... .. . ...
ROW 18 : ... .. . ... : ... .. . ... : ... .. . ... : ... .. . ... : ... .. . ...
ROW 19 : ... .. . ... : ... .. . ... : ... .. . ... : ... .. . ... : ... .. . ...
ROW 1A : ... .. . ... : ... .. . ... : ... .. . ... : ... .. . ... : ... .. . ...
ROW 1B : ... .. . ... : ... .. . ... : ... .. . ... : ... .. . ... : ... .. . ...
ROW 1C : ... .. . ... : ... .. . ... : ... .. . ... : ... .. . ... : ... .. . ...
ROW 1D : ... .. . ... : C-3 13 . ... : ... .. . ... : ... .. . ... : ... .. . ...
ROW 1E : ... .. . ... : D-3 13 . ... : ... .. . ... : ... .. . ... : ... .. . ...
ROW 1F : ... .. . D00 : E-3 13 . ... : ... .. . ... : ... .. . ... : ... .. . ...
ROW 20 : ... .. . ... : ... .. . ... : ... .. . ... : ... .. . ... : ... .. . ...
ROW 21 : ... .. . ... : ... .. . ... : ... .. . ... : ... .. . ... : ... .. . ...
ROW 22 : ... .. . ... : ... .. . ... : ... .. . ... : ... .. . ... : ... .. . ...
ROW 23 : ... .. . ... : ... .. . ... : ... .. . ... : ... .. . ... : ... .. . ...
ROW 24 : ... .. . ... : ... .. . ... : ... .. . ... : ... .. . ... : ... .. . ...
ROW 25 : ... .. . ... : ... .. . ... : ... .. . ... : ... .. . ... : ... .. . ...
ROW 26 : ... .. . ... : ... .. . ... : ... .. . ... : ... .. . ... : ... .. . ...
ROW 27 : ... .. . ... : ... .. . ... : ... .. . ... : ... .. . ... : ... .. . ...
ROW 28 : ... .. . ... : ... .. . ... : ... .. . ... : ... .. . ... : ... .. . ...
ROW 29 : ... .. . ... : ... .. . ... : ... .. . ... : ... .. . ... : ... .. . ...
ROW 2A : ... .. . ... : ... .. . ... : ... .. . ... : ... .. . ... : ... .. . ...
ROW 2B : ... .. . ... : ... .. . ... : ... .. . ... : ... .. . ... : ... .. . ...
ROW 2C : ... .. . ... : ... .. . ... : ... .. . ... : ... .. . ... : ... .. . ...
ROW 2D : ... .. . ... : ... .. . ... : ... .. . ... : ... .. . ... : ... .. . ...
ROW 2E : ... .. . ... : ... .. . ... : ... .. . ... : ... .. . ... : ... .. . ...
ROW 2F : ... .. . ... : ... .. . ... : ... .. . ... : ... .. . ... : ... .. . ...
ROW 30 : ... .. . ... : ... .. . ... : ... .. . ... : ... .. . ... : ... .. . ...
ROW 31 : ... .. . ... : ... .. . ... : ... .. . ... : ... .. . ... : ... .. . ...
ROW 32 : ... .. . ... : ... .. . ... : ... .. . ... : ... .. . ... : ... .. . ...
ROW 33 : ... .. . ... : ... .. . ... : ... .. . ... : ... .. . ... : ... .. . ...
ROW 34 : ... .. . ... : ... .. . ... : ... .. . ... : ... .. . ... : ... .. . ...
ROW 35 : ... .. . ... : ... .. . ... : ... .. . ... : ... .. . ... : ... .. . ...
ROW 36 : ... .. . ... : ... .. . ... : ... .. . ... : ... .. . ... : ... .. . ...
ROW 37 : ... .. . ... : ... .. . ... : ... .. . ... : ... .. . ... : ... .. . ...
ROW 38 : ... .. . ... : ... .. . ... : ... .. . ... : ... .. . ... : ... .. . ...
ROW 39 : ... .. . ... : ... .. . ... : ... .. . ... : ... .. . ... : ... .. . ...
ROW 3A : ... .. . ... : ... .. . ... : ... .. . ... : ... .. . ... : ... .. . ...
ROW 3B : ... .. . ... : ... .. . ... : ... .. . ... : ... .. . ... : ... .. . ...
ROW 3C : ... .. . ... : ... .. . ... : ... .. . ... : ... .. . ... : ... .. . ...
ROW 3D : ... .. . ... : ... .. . ... : ... .. . ... : ... .. . ... : ... .. . ...
ROW 3E : ... .. . ... : ... .. . ... : ... .. . ... : ... .. . ... : ... .. . ...
ROW 3F : ... .. . ... : ... .. . ... : ... .. . ... : ... .. . ... : ... .. . ...

TRACK  32  14 150 "Ingame 6"
COLUMNS : 1 1 1 1 1

ORDER 00 : 00 00 00 00 00
ORDER 01 : 00 01 01 01 00
ORDER 02 : 00 01 01 01 00
ORDER 03 : 01 02 02 02 00
ORDER 04 : 02 03 02 02 00
ORDER 05 : 03 03 02 02 00
ORDER 06 : 03 03 02 02 00
ORDER 07 : 04 03 02 02 00
ORDER 08 : 05 03 02 02 00
ORDER 09 : 06 04 03 03 00
ORDER 0A : 00 01 01 01 00
ORDER 0B : 00 01 01 01 00
ORDER 0C : 07 05 04 02 00
ORDER 0D : 08 06 05 02 00
ORDER 0E : 03 03 02 02 00
ORDER 0F : 03 03 02 02 00
ORDER 10 : 04 03 02 02 00
ORDER 11 : 05 03 02 02 00
ORDER 12 : 06 07 03 03 00

PATTERN 00
ROW 00 : C-3 21 . ... : --- .. . ... : --- .. . ... : --- .. . ... : ... .. . ...
ROW 01 : D-3 21 . ... : ... .. . ... : ... .. . ... : ... .. . ... : ... .. . ...
ROW 02 : E-3 21 . ... : ... .. . ... : ... .. . ... : ... .. . ... : ... .. . ...
ROW 03 : A-3 21 . ... : ... .. . ... : ... .. . ... : ... .. . ... : ... .. . ...
ROW 04 : ... .. . ... : ... .. . ... : ... .. . ... : ... .. . ... : ... .. . ...
ROW 05 : G-3 21 . ... : ... .. . ... : ... .. . ... : ... .. . ... : ... .. . ...
ROW 06 : G-3 21 . ... : ... .. . ... : ... .. . ... : ... .. . ... : ... .. . ...
ROW 07 : F-3 21 . ... : ... .. . ... : ... .. . ... : ... .. . ... : ... .. . ...
ROW 08 : C-3 21 . ... : ... .. . ... : ... .. . ... : ... .. . ... : ... .. . ...
ROW 09 : D-3 21 . ... : ... .. . ... : ... .. . ... : ... .. . ... : ... .. . ...
ROW 0A : D#3 21 . ... : ... .. . ... : ... .. . ... : ... .. . ... : ... .. . ...
ROW 0B : G#3 21 . ... : ... .. . ... : ... .. . ... : ... .. . ... : ... .. . ...
ROW 0C : ... .. . ... : ... .. . ... : ... .. . ... : ... .. . ... : ... .. . ...
ROW 0D : G-3 21 . ... : ... .. . ... : ... .. . ... : ... .. . ... : ... .. . ...
ROW 0E : G-3 21 . ... : ... .. . ... : ... .. . ... : ... .. . ... : ... .. . ...
ROW 0F : D#3 21 . ... : ... .. . ... : ... .. . ... : ... .. . ... : ... .. . ...
ROW 10 : B-2 21 . ... : ... .. . ... : ... .. . ... : ... .. . ... : ... .. . ...
ROW 11 : C-3 21 . ... : ... .. . ... : ... .. . ... : ... .. . ... : ... .. . ...
ROW 12 : D-3 21 . ... : ... .. . ... : ... .. . ... : ... .. . ... : ... .. . ...
ROW 13 : F-3 21 . ... : ... .. . ... : ... .. . ... : ... .. . ... : ... .. . ...
ROW 14 : ... .. . ... : ... .. . ... : ... .. . ... : ... .. . ... : ... .. . ...
ROW 15 : D#3 21 . ... : ... .. . ... : ... .. . ... : ... .. . ... : ... .. . ...
ROW 16 : D#3 21 . ... : ... .. . ... : ... .. . ... : ... .. . ... : ... .. . ...
ROW 17 : D-3 21 . ... : ... .. . ... : ... .. . ... : ... .. . ... : ... .. . ...
ROW 18 : C-3 21 . ... : ... .. . ... : ... .. . ... : ... .. . ... : ... .. . ...
ROW 19 : ... .. . ... : ... .. . ... : ... .. . ... : ... .. . ... : ... .. . ...
ROW 1A : ... .. . ... : ... .. . ... : ... .. . ... : ... .. . ... : ... .. . ...
ROW 1B : ... .. . ... : ... .. . ... : ... .. . ... : ... .. . ... : ... .. . ...
ROW 1C : C-4 21 . ... : ... .. . ... : ... .. . ... : ... .. . ... : ... .. . ...
ROW 1D : C-4 21 . ... : ... .. . ... : ... .. . ... : ... .. . ... : ... .. . ...
ROW 1E : C-4 21 . ... : C-5 21 . ... : ... .. . ... : ... .. . ... : ... .. . ...
ROW 1F : ... .. . ... : ... .. . ... : ... .. . ... : ... .. . ... : ... .. . ...

PATTERN 01
ROW 00 : --- .. . ... : E-4 1D . ... : C-2 1D . ... : 1-# 1B . ... : ... .. . ...
ROW 01 : ... .. . ... : F-4 1D . ... : C-2 1D . ... : F-# 1E . ... : ... .. . ...
ROW 02 : ... .. . ... : E-4 1D . ... : G-2 1D . ... : 8-# 1B . ... : ... .. . ...
ROW 03 : ... .. . ... : A-4 1D . ... : C-2 1D . ... : 1-# 1B . ... : ... .. . ...
ROW 04 : ... .. . ... : ... .. . ... : --- .. . ... : ... .. . ... : ... .. . ...
ROW 05 : ... .. . ... : G-4 1D . ... : G-2 1D . ... : F-# 1E . ... : ... .. . ...
ROW 06 : ... .. . ... : G-4 1D . ... : E-2 1D . ... : 8-# 1B . ... : ... .. . ...
ROW 07 : ... .. . ... : F-4 1D . ... : C-2 1D . ... : F-# 1E . ... : ... .. . ...
ROW 08 : ... .. . ... : C-4 1D . ... : C-2 1D . ... : 1-# 1B . ... : ... .. . ...
ROW 09 : ... .. . ... : D-4 1D . ... : C-2 1D . ... : F-# 1E . ... : ... .. . ...
ROW 0A : ... .. . ... : D#4 1D . ... : D#2 1D . ... : 8-# 1B . ... : ... .. . ...
ROW 0B : ... .. . ... : G#4 1D . ... : C-2 1D . ... : 1-# 1B . ... : ... .. . ...
ROW 0C : ... .. . ... : ... .. . ... : --- .. . ... : ... .. . ... : ... .. . ...
ROW 0D : ... .. . ... : G-4 1D . ... : D#2 1D . ... : F-# 1E . ... : ... .. . ...
ROW 0E : ... .. . ... : G-4 1D . ... : G-2 1D . ... : 8-# 1B . ... : ... .. . ...
ROW 0F : ... .. . ... : G#4 1D . ... : D#2 1D . ... : F-# 1E . ... : ... .. . ...
ROW 10 : ... .. . ... : D-4 1D . ... : B-1 1D . ... : 1-# 1B . ... : ... .. . ...
ROW 11 : ... .. . ... : D#4 1D . ... : B-1 1D . ... : F-# 1E . ... : ... .. . ...
ROW 12 : ... .. . ... : D-4 1D . ... : D-2 1D . ... : 8-# 1B . ... : ... .. . ...
ROW 13 : ... .. . ... : F-4 1D . ... : B-1 1D . ... : 1-# 1B . ... : ... .. . ...
ROW 14 : ... .. . ... : ... .. . ... : --- .. . ... : ... .. . ... : ... .. . ...
ROW 15 : ... .. . ... : D#4 1D . ... : D#2 1D . ... : F-# 1E . ... : ... .. . ...
ROW 16 : ... .. . ... : D#4 1D . ... : B-1 1D . ... : 8-# 1B . ... : ... .. . ...
ROW 17 : ... .. . ... : D-4 1D . ... : D-2 1D . ... : F-# 1E . ... : ... .. . ...
ROW 18 : ... .. . ... : C-4 1D . ... : C-2 1D . ... : 1-# 1B . ... : ... .. . ...
ROW 19 : ... .. . ... : ... .. . ... : --- .. . ... : F-# 1E . ... : ... .. . ...
ROW 1A : ... .. . ... : ... .. . ... : ... .. . ... : 8-# 1B . ... : ... .. . ...
ROW 1B : ... .. . ... : ... .. . ... : ... .. . ... : F-# 1E . ... : ... .. . ...
ROW 1C : ... .. . ... : C-5 1D . ... : C-2 1D . ... : 1-# 1B . ... : ... .. . ...
ROW 1D : ... .. . ... : C-5 1D . ... : --- .. . ... : 1-# 1B . ... : ... .. . ...
ROW 1E : ... .. . ... : C-5 1D . ... : C-2 1D . ... : 8-# 1B . ... : ... .. . ...
ROW 1F : ... .. . ... : G-4 1D . ... : --- .. . ... : F-# 1E . ... : ... .. . ...

PATTERN 02
ROW 00 : C-3 22 . ... : --- .. . ... : C-2 1D . ... : 1-# 1B . ... : ... .. . ...
ROW 01 : ... .. . ... : ... .. . ... : ... .. . ... : 1-# 1B . ... : ... .. . ...
ROW 02 : ... .. . ... : ... .. . ... : ... .. . ... : 8-# 1B . ... : ... .. . ...
ROW 03 : ... .. . ... : ... .. . ... : ... .. . ... : F-# 1E . ... : ... .. . ...
ROW 04 : ... .. . ... : ... .. . ... : B-1 1B . ... : 1-# 1B . ... : ... .. . ...
ROW 05 : ... .. . ... : ... .. . ... : C-2 1B . ... : 1-# 1B . ... : ... .. . ...
ROW 06 : ... .. . ... : ... .. . ... : D#2 1B . ... : 8-# 1B . ... : ... .. . ...
ROW 07 : ... .. . ... : ... .. . ... : D-2 1B . ... : F-# 1E . ... : ... .. . ...
ROW 08 : C-3 22 . ... : ... .. . ... : C-2 1D . ... : 1-# 1B . ... : ... .. . ...
ROW 09 : ... .. . ... : ... .. . ... : ... .. . ... : 1-# 1B . ... : ... .. . ...
ROW 0A : ... .. . ... : ... .. . ... : ... .. . ... : 8-# 1B . ... : ... .. . ...
ROW 0B : ... .. . ... : ... .. . ... : ... .. . ... : F-# 1E . ... : ... .. . ...
ROW 0C : ... .. . ... : ... .. . ... : G-2 1B . ... : 1-# 1B . ... : ... .. . ...
ROW 0D : ... .. . ... : ... .. . ... : F-2 1B . ... : F-# 1E . ... : ... .. . ...
ROW 0E : ... .. . ... : ... .. . ... : D#2 1B . ... : 8-# 1B . ... : ... .. . ...
ROW 0F : ... .. . ... : ... .. . ... : D-2 1B . ... : F-# 1E . ... : ... .. . ...
ROW 10 : C-3 22 . ... : ... .. . ... : C-2 1D . ... : 1-# 1B . ... : ... .. . ...
ROW 11 : ... .. . ... : ... .. . ... : ... .. . ... : 1-# 1B . ... : ... .. . ...
ROW 12 : ... .. . ... : ... .. . ... : ... .. . ... : 8-# 1B . ... : ... .. . ...
ROW 13 : ... .. . ... : ... .. . ... : ... .. . ... : F-# 1E . ... : ... .. . ...
ROW 14 : ... .. . ... : ... .. . ... : B-1 1B . ... : 1-# 1B . ... : ... .. . ...
ROW 15 : ... .. . ... : ... .. . ... : C-2 1B . ... : 1-# 1B . ... : ... .. . ...
ROW 16 : ... .. . ... : ... .. . ... : D#2 1B . ... : 8-# 1B . ... : ... .. . ...
ROW 17 : ... .. . ... : ... .. . ... : G-2 1B . ... : F-# 1E . ... : ... .. . ...
ROW 18 : C-3 22 . ... : ... .. . ... : F-2 1D . ... : 1-# 1B . ... : ... .. . ...
ROW 19 : ... .. . ... : ... .. . ... : ... .. . ... : 1-# 1B . ... : ... .. . ...
ROW 1A : ... .. . ... : ... .. . ... : ... .. . ... : 8-# 1B . ... : ... .. . ...
ROW 1B : ... .. . ... : ... .. . ... : ... .. . ... : F-# 1E . ... : ... .. . ...
ROW 1C : ... .. . ... : ... .. . ... : F-2 1B . ... : 1-# 1B . ... : ... .. . ...
ROW 1D : ... .. . ... : ... .. . ... : D#2 1B . ... : F-# 1E . ... : ... .. . ...
ROW 1E : ... .. . ... : ... .. . ... : D-2 1B . ... : 8-# 1B . ... : ... .. . ...
ROW 1F : ... .. . ... : ... .. . ... : C-2 1B . ... : F-# 1E . ... : ... .. . ...

PATTERN 03
ROW 00 : C-4 28 . ... : D#3 22 . ... : C-2 1B . ... : 1-# 1B . ... : ... .. . ...
ROW 01 : C-4 28 . ... : ... .. . ... : C-2 1B . ... : 1-# 1B . ... : ... .. . ...
ROW 02 : --- .. . ... : ... .. . ... : C-2 1B . ... : 8-# 1B . ... : ... .. . ...
ROW 03 : C-4 28 . ... : ... .. . ... : C-2 1B . ... : F-# 1E . ... : ... .. . ...
ROW 04 : D#4 28 . ... : ... .. . ... : C-2 1B . ... : 1-# 1B . ... : ... .. . ...
ROW 05 : C-4 28 . ... : ... .. . ... : C-2 1B . ... : 1-# 1B . ... : ... .. . ...
ROW 06 : --- .. . ... : ... .. . ... : C-2 1B . ... : 8-# 1B . ... : ... .. . ...
ROW 07 : C-4 28 . ... : ... .. . ... : C-2 1B . ... : F-# 1E . ... : ... .. . ...
ROW 08 : G-3 28 . ... : B-3 22 . ... : D-2 1B . ... : 1-# 1B . ... : ... .. . ...
ROW 09 : G#3 28 . ... : ... .. . ... : D-2 1B . ... : 1-# 1B . ... : ... .. . ...
ROW 0A : B-3 28 . ... : ... .. . ... : D-2 1B . ... : 8-# 1B . ... : ... .. . ...
ROW 0B : C-4 28 . ... : ... .. . ... : D-2 1B . ... : F-# 1E . ... : ... .. . ...
ROW 0C : B-3 28 . ... : ... .. . ... : D-2 1B . ... : 1-# 1B . ... : ... .. . ...
ROW 0D : G#3 28 . ... : ... .. . ... : D-2 1B . ... : F-# 1E . ... : ... .. . ...
ROW 0E : G-3 28 . ... : ... .. . ... : D-2 1B . ... : 8-# 1B . ... : ... .. . ...
ROW 0F : F-3 28 . ... : ... .. . ... : D-2 1B . ... : F-# 1E . ... : ... .. . ...
ROW 10 : G-3 28 . ... : G-3 22 . ... : D#2 1B . ... : 1-# 1B . ... : ... .. . ...
ROW 11 : G-3 28 . ... : ... .. . ... : D#2 1B . ... : 1-# 1B . ... : ... .. . ...
ROW 12 : --- .. . ... : ... .. . ... : D#2 1B . ... : 8-# 1B . ... : ... .. . ...
ROW 13 : C-3 28 . ... : ... .. . ... : D#2 1B . ... : F-# 1E . ... : ... .. . ...
ROW 14 : G-3 28 . ... : ... .. . ... : C-2 1B . ... : 1-# 1B . ... : ... .. . ...
ROW 15 : G-3 28 . ... : ... .. . ... : C-2 1B . ... : 1-# 1B . ... : ... .. . ...
ROW 16 : --- .. . ... : ... .. . ... : C-2 1B . ... : 8-# 1B . ... : ... .. . ...
ROW 17 : G-3 28 . ... : ... .. . ... : C-2 1B . ... : F-# 1E . ... : ... .. . ...
ROW 18 : F-3 28 . ... : F-3 22 . ... : G-2 1B . ... : 1-# 1B . ... : ... .. . ...
ROW 19 : G-3 28 . ... : ... .. . ... : G#2 1B . ... : ... .. . ... : ... .. . ...
ROW 1A : F-3 28 . ... : ... .. . ... : B-2 1B . ... : ... .. . ... : ... .. . ...
ROW 1B : D#3 28 . ... : ... .. . ... : C-3 1B . ... : ... .. . ... : ... .. . ...
ROW 1C : D-3 28 . ... : ... .. . ... : B-2 1B . ... : ... .. . ... : ... .. . ...
ROW 1D : D#3 28 . ... : ... .. . ... : G#2 1B . ... : ... .. . ... : ... .. . ...
ROW 1E : D-3 28 . ... : ... .. . ... : G-2 1B . ... : ... .. . ... : ... .. . ...
ROW 1F : C-3 28 . ... : ... .. . ... : --- .. . ... : ... .. . ... : ... .. . ...

PATTERN 04
ROW 00 : C-4 28 . ... : C-3 22 . ... : C-2 1B . ... : ... .. . ... : ... .. . ...
ROW 01 : C-4 28 . ... : ... .. . ... : C-2 1B . ... : ... .. . ... : ... .. . ...
ROW 02 : --- .. . ... : ... .. . ... : G-1 1B . ... : ... .. . ... : ... .. . ...
ROW 03 : C-4 28 . ... : ... .. . ... : C-2 1B . ... : ... .. . ... : ... .. . ...
ROW 04 : D#4 28 . ... : ... .. . ... : --- .. . ... : ... .. . ... : ... .. . ...
ROW 05 : C-4 28 . ... : ... .. . ... : D#2 1B . ... : ... .. . ... : ... .. . ...
ROW 06 : --- .. . ... : ... .. . ... : D#2 1B . ... : ... .. . ... : ... .. . ...
ROW 07 : C-4 28 . ... : ... .. . ... : D#2 1B . ... : ... .. . ... : ... .. . ...
ROW 08 : G-3 28 . ... : B-2 22 . ... : C-2 1B . ... : ... .. . ... : ... .. . ...
ROW 09 : G#3 28 . ... : ... .. . ... : C-2 1B . ... : ... .. . ... : ... .. . ...
ROW 0A : B-3 28 . ... : ... .. . ... : G-1 1B . ... : ... .. . ... : ... .. . ...
ROW 0B : C-4 28 . ... : ... .. . ... : C-2 1B . ... : ... .. . ... : ... .. . ...
ROW 0C : B-3 28 . ... : ... .. . ... : --- .. . ... : ... .. . ... : ... .. . ...
ROW 0D : G#3 28 . ... : ... .. . ... : C-2 1B . ... : ... .. . ... : ... .. . ...
ROW 0E : G-3 28 . ... : ... .. . ... : C-2 1B . ... : ... .. . ... : ... .. . ...
ROW 0F : F-3 28 . ... : ... .. . ... : C-2 1B . ... : ... .. . ... : ... .. . ...
ROW 10 : G-3 28 . ... : C-3 22 . ... : G-2 1B . ... : ... .. . ... : ... .. . ...
ROW 11 : G-3 28 . ... : ... .. . ... : G-2 1B . ... : ... .. . ... : ... .. . ...
ROW 12 : G-3 28 . ... : ... .. . ... : D-2 1B . ... : ... .. . ... : ... .. . ...
ROW 13 : G-3 28 . ... : ... .. . ... : G-2 1B . ... : ... .. . ... : ... .. . ...
ROW 14 : G#3 28 . ... : ... .. . ... : --- .. . ... : ... .. . ... : ... .. . ...
ROW 15 : B-3 28 . ... : ... .. . ... : D-2 1B . ... : ... .. . ... : ... .. . ...
ROW 16 : C-4 28 . ... : ... .. . ... : D-2 1B . ... : ... .. . ... : ... .. . ...
ROW 17 : D-4 28 . ... : --- .. . ... : D-2 1B . ... : ... .. . ... : ... .. . ...
ROW 18 : D#4 28 . ... : ... .. . ... : C-2 1B . ... : ... .. . ... : ... .. . ...
ROW 19 : F-4 28 . ... : ... .. . ... : C-2 1B . ... : ... .. . ... : ... .. . ...
ROW 1A : G-4 28 . ... : ... .. . ... : C-2 1B . ... : ... .. . ... : ... .. . ...
ROW 1B : F-4 28 . ... : ... .. . ... : C-2 1B . ... : ... .. . ... : ... .. . ...
ROW 1C : C-4 28 . ... : ... .. . ... : C-2 1B . ... : ... .. . ... : ... .. . ...
ROW 1D : --- .. . ... : ... .. . ... : G-2 1B . ... : ... .. . ... : ... .. . ...
ROW 1E : F-4 28 . ... : ... .. . ... : B-2 1B . ... : ... .. . ... : ... .. . ...
ROW 1F : F-4 28 . ... : ... .. . ... : G-2 1B . ... : ... .. . ... : ... .. . ...

PATTERN 05
ROW 00 : D#4 28 . ... : C-3 22 . ... : C-2 1B . ... : ... .. . ... : ... .. . ...
ROW 01 : D#4 28 . ... : ... .. . ... : C-2 1B . ... : ... .. . ... : ... .. . ...
ROW 02 : --- .. . ... : ... .. . ... : G-1 1B . ... : ... .. . ... : ... .. . ...
ROW 03 : D#4 28 . ... : ... .. . ... : C-2 1B . ... : ... .. . ... : ... .. . ...
ROW 04 : F-4 28 . ... : ... .. . ... : --- .. . ... : ... .. . ... : ... .. . ...
ROW 05 : D#4 28 . ... : ... .. . ... : D#2 1B . ... : ... .. . ... : ... .. . ...
ROW 06 : --- .. . ... : ... .. . ... : D#2 1B . ... : ... .. . ... : ... .. . ...
ROW 07 : D#4 28 . ... : ... .. . ... : D#2 1B . ... : ... .. . ... : ... .. . ...
ROW 08 : D-4 28 . ... : D#3 22 . ... : C-2 1B . ... : ... .. . ... : ... .. . ...
ROW 09 : D#4 28 . ... : ... .. . ... : C-2 1B . ... : ... .. . ... : ... .. . ...
ROW 0A : D-4 28 . ... : ... .. . ... : G-1 1B . ... : ... .. . ... : ... .. . ...
ROW 0B : C-4 28 . ... : ... .. . ... : C-2 1B . ... : ... .. . ... : ... .. . ...
ROW 0C : B-3 28 . ... : ... .. . ... : --- .. . ... : ... .. . ... : ... .. . ...
ROW 0D : G#3 28 . ... : ... .. . ... : C-2 1B . ... : ... .. . ... : ... .. . ...
ROW 0E : G-3 28 . ... : ... .. . ... : C-2 1B . ... : ... .. . ... : ... .. . ...
ROW 0F : F-3 28 . ... : ... .. . ... : C-2 1B . ... : ... .. . ... : ... .. . ...
ROW 10 : G-3 28 . ... : D-3 22 . ... : G-2 1B . ... : ... .. . ... : ... .. . ...
ROW 11 : G-3 28 . ... : ... .. . ... : G-2 1B . ... : ... .. . ... : ... .. . ...
ROW 12 : --- .. . ... : ... .. . ... : D-2 1B . ... : ... .. . ... : ... .. . ...
ROW 13 : C-3 28 . ... : ... .. . ... : G-2 1B . ... : ... .. . ... : ... .. . ...
ROW 14 : G-3 28 . ... : ... .. . ... : --- .. . ... : ... .. . ... : ... .. . ...
ROW 15 : G-3 28 . ... : ... .. . ... : D-2 1B . ... : ... .. . ... : ... .. . ...
ROW 16 : --- .. . ... : ... .. . ... : D-2 1B . ... : ... .. . ... : ... .. . ...
ROW 17 : G-3 28 . ... : ... .. . ... : D-2 1B . ... : ... .. . ... : ... .. . ...
ROW 18 : F-3 28 . ... : C-3 22 . ... : C-2 1B . ... : ... .. . ... : ... .. . ...
ROW 19 : G-3 28 . ... : ... .. . ... : C-2 1B . ... : ... .. . ... : ... .. . ...
ROW 1A : F-3 28 . ... : ... .. . ... : C-2 1B . ... : ... .. . ... : ... .. . ...
ROW 1B : D#3 28 . ... : ... .. . ... : C-2 1B . ... : ... .. . ... : ... .. . ...
ROW 1C : D-3 28 . ... : ... .. . ... : G-2 22 . ... : ... .. . ... : ... .. . ...
ROW 1D : D#3 28 . ... : ... .. . ... : F-2 22 . ... : ... .. . ... : ... .. . ...
ROW 1E : D-3 28 . ... : ... .. . ... : D#2 22 . ... : ... .. . ... : ... .. . ...
ROW 1F : B-2 28 . ... : ... .. . ... : D-2 22 . ... : ... .. . ... : ... .. . ...

PATTERN 06
ROW 00 : D#3 22 . ... : C-3 22 . ... : ... .. . ... : ... .. . ... : ... .. . ...
ROW 01 : D#3 22 . ... : ... .. . ... : ... .. . ... : ... .. . ... : ... .. . ...
ROW 02 : --- .. . ... : ... .. . ... : ... .. . ... : ... .. . ... : ... .. . ...
ROW 03 : D#3 22 . ... : ... .. . ... : ... .. . ... : ... .. . ... : ... .. . ...
ROW 04 : D#3 22 . ... : ... .. . ... : ... .. . ... : ... .. . ... : ... .. . ...
ROW 05 : D#3 22 . ... : ... .. . ... : ... .. . ... : ... .. . ... : ... .. . ...
ROW 06 : --- 28 . ... : ... .. . ... : ... .. . ... : ... .. . ... : ... .. . ...
ROW 07 : D#3 22 . ... : ... .. . ... : ... .. . ... : ... .. . ... : ... .. . ...
ROW 08 : D-3 22 . ... : D#3 22 . ... : ... .. . ... : ... .. . ... : ... .. . ...
ROW 09 : D-3 22 . ... : ... .. . ... : ... .. . ... : ... .. . ... : ... .. . ...
ROW 0A : --- .. . ... : ... .. . ... : ... .. . ... : ... .. . ... : ... .. . ...
ROW 0B : D-3 22 . ... : ... .. . ... : ... .. . ... : ... .. . ... : ... .. . ...
ROW 0C : D-3 22 . ... : ... .. . ... : ... .. . ... : ... .. . ... : ... .. . ...
ROW 0D : D-3 22 . ... : ... .. . ... : ... .. . ... : ... .. . ... : ... .. . ...
ROW 0E : --- 28 . ... : ... .. . ... : ... .. . ... : ... .. . ... : ... .. . ...
ROW 0F : D-3 22 . ... : ... .. . ... : ... .. . ... : ... .. . ... : ... .. . ...
ROW 10 : C-3 22 . ... : D-3 22 . ... : ... .. . ... : ... .. . ... : ... .. . ...
ROW 11 : C-3 22 . ... : ... .. . ... : ... .. . ... : ... .. . ... : ... .. . ...
ROW 12 : --- .. . ... : ... .. . ... : ... .. . ... : ... .. . ... : ... .. . ...
ROW 13 : G-3 22 . ... : ... .. . ... : ... .. . ... : ... .. . ... : ... .. . ...
ROW 14 : C-3 22 . ... : ... .. . ... : ... .. . ... : ... .. . ... : ... .. . ...
ROW 15 : C-3 22 . ... : ... .. . ... : ... .. . ... : ... .. . ... : ... .. . ...
ROW 16 : --- .. . ... : ... .. . ... : ... .. . ... : ... .. . ... : ... .. . ...
ROW 17 : ... .. . ... : ... .. . ... : ... .. . ... : ... .. . ... : ... .. . ...
ROW 18 : G-3 28 . ... : C-3 22 . ... : ... .. . ... : ... .. . ... : ... .. . ...
ROW 19 : G#3 28 . ... : ... .. . ... : ... .. . ... : ... .. . ... : ... .. . ...
ROW 1A : B-3 28 . ... : ... .. . ... : ... .. . ... : ... .. . ... : ... .. . ...
ROW 1B : C-4 28 . ... : ... .. . ... : ... .. . ... : ... .. . ... : ... .. . ...
ROW 1C : B-3 28 . ... : G-3 22 . ... : ... .. . ... : ... .. . ... : ... .. . ...
ROW 1D : G#3 28 . ... : F-3 22 . ... : ... .. . ... : ... .. . ... : ... .. . ...
ROW 1E : G-3 28 . ... : D#3 22 . ... : ... .. . ... : ... .. . ... : ... .. . ...
ROW 1F : F-3 28 . ... : D-3 22 . ... : ... .. . ... : ... .. . ... : ... .. . ...

PATTERN 07
ROW 00 : C-3 21 . ... : C-3 22 . ... : ... .. . ... : ... .. . ... : ... .. . ...
ROW 01 : D#3 21 . ... : ... .. . ... : ... .. . ... : ... .. . ... : ... .. . ...
ROW 02 : G-3 21 . ... : ... .. . ... : ... .. . ... : ... .. . ... : ... .. . ...
ROW 03 : C-4 21 . ... : ... .. . ... : ... .. . ... : ... .. . ... : ... .. . ...
ROW 04 : ... .. . ... : ... .. . ... : ... .. . ... : ... .. . ... : ... .. . ...
ROW 05 : D#5 21 . ... : ... .. . ... : ... .. . ... : ... .. . ... : ... .. . ...
ROW 06 : C-5 21 . ... : ... .. . ... : ... .. . ... : ... .. . ... : ... .. . ...
ROW 07 : G#4 21 . ... : ... .. . ... : ... .. . ... : ... .. . ... : ... .. . ...
ROW 08 : G-4 21 . ... : B-2 22 . ... : ... .. . ... : ... .. . ... : ... .. . ...
ROW 09 : D#4 21 . ... : ... .. . ... : ... .. . ... : ... .. . ... : ... .. . ...
ROW 0A : C-4 21 . ... : ... .. . ... : ... .. . ... : ... .. . ... : ... .. . ...
ROW 0B : G-3 21 . ... : ... .. . ... : ... .. . ... : ... .. . ... : ... .. . ...
ROW 0C : --- .. . ... : ... .. . ... : ... .. . ... : ... .. . ... : ... .. . ...
ROW 0D : G-3 21 . ... : ... .. . ... : ... .. . ... : ... .. . ... : ... .. . ...
ROW 0E : F#3 21 . ... : ... .. . ... : ... .. . ... : ... .. . ... : ... .. . ...
ROW 0F : G-3 21 . ... : ... .. . ... : ... .. . ... : ... .. . ... : ... .. . ...
ROW 10 : F-3 21 . ... : C-3 22 . ... : ... .. . ... : ... .. . ... : ... .. . ...
ROW 11 : G#3 21 . ... : ... .. . ... : ... .. . ... : ... .. . ... : ... .. . ...
ROW 12 : B-3 21 . ... : ... .. . ... : ... .. . ... : ... .. . ... : ... .. . ...
ROW 13 : C-4 21 . ... : ... .. . ... : ... .. . ... : ... .. . ... : ... .. . ...
ROW 14 : D#4 21 . ... : ... .. . ... : ... .. . ... : ... .. . ... : ... .. . ...
ROW 15 : C-4 21 . ... : ... .. . ... : ... .. . ... : ... .. . ... : ... .. . ...
ROW 16 : B-3 21 . ... : ... .. . ... : ... .. . ... : ... .. . ... : ... .. . ...
ROW 17 : G#3 21 . ... : --- .. . ... : ... .. . ... : ... .. . ... : ... .. . ...
ROW 18 : G-3 21 . ... : ... .. . ... : ... .. . ... : ... .. . ... : ... .. . ...
ROW 19 : G#3 21 . ... : ... .. . ... : ... .. . ... : ... .. . ... : ... .. . ...
ROW 1A : G-3 21 . ... : ... .. . ... : ... .. . ... : ... .. . ... : ... .. . ...
ROW 1B : G#3 21 . ... : ... .. . ... : ... .. . ... : ... .. . ... : ... .. . ...
ROW 1C : G-3 21 . ... : ... .. . ... : ... .. . ... : ... .. . ... : ... .. . ...
ROW 1D : G#3 21 . ... : ... .. . ... : ... .. . ... : ... .. . ... : ... .. . ...
ROW 1E : B-3 21 . ... : ... .. . ... : ... .. . ... : ... .. . ... : ... .. . ...
ROW 1F : G#3 21 . ... : ... .. . B01 : ... .. . ... : ... .. . ... : ... .. . ...

PATTERN 08
ROW 00 : C-3 21 . ... : ... .. . ... : ... .. . ... : ... .. . ... : ... .. . ...
ROW 01 : D#3 21 . ... : ... .. . ... : ... .. . ... : ... .. . ... : ... .. . ...
ROW 02 : G-3 21 . ... : ... .. . ... : ... .. . ... : ... .. . ... : ... .. . ...
ROW 03 : C-4 21 . ... : ... .. . ... : ... .. . ... : ... .. . ... : ... .. . ...
ROW 04 : ... .. . ... : ... .. . ... : ... .. . ... : ... .. . ... : ... .. . ...
ROW 05 : D#5 21 . ... : ... .. . ... : ... .. . ... : ... .. . ... : ... .. . ...
ROW 06 : C-5 21 . ... : ... .. . ... : ... .. . ... : ... .. . ... : ... .. . ...
ROW 07 : G#4 21 . ... : ... .. . ... : ... .. . ... : ... .. . ... : ... .. . ...
ROW 08 : G-4 21 . ... : ... .. . ... : ... .. . ... : ... .. . ... : ... .. . ...
ROW 09 : D#4 21 . ... : ... .. . ... : ... .. . ... : ... .. . ... : ... .. . ...
ROW 0A : C-4 21 . ... : ... .. . ... : ... .. . ... : ... .. . ... : ... .. . ...
ROW 0B : G-3 21 . ... : ... .. . ... : ... .. . ... : ... .. . ... : ... .. . ...
ROW 0C : --- .. . ... : ... .. . ... : ... .. . ... : ... .. . ... : ... .. . ...
ROW 0D : G-3 21 . ... : ... .. . ... : ... .. . ... : ... .. . ... : ... .. . ...
ROW 0E : F#3 21 . ... : ... .. . ... : ... .. . ... : ... .. . ... : ... .. . ...
ROW 0F : G-3 21 . ... : ... .. . ... : ... .. . ... : ... .. . ... : ... .. . ...
ROW 10 : F-3 21 . ... : ... .. . ... : ... .. . ... : ... .. . ... : ... .. . ...
ROW 11 : G#3 21 . ... : ... .. . ... : ... .. . ... : ... .. . ... : ... .. . ...
ROW 12 : B-3 21 . ... : ... .. . ... : ... .. . ... : ... .. . ... : ... .. . ...
ROW 13 : C-4 21 . ... : ... .. . ... : ... .. . ... : ... .. . ... : ... .. . ...
ROW 14 : D#4 21 . ... : ... .. . ... : ... .. . ... : ... .. . ... : ... .. . ...
ROW 15 : G-4 21 . ... : ... .. . ... : ... .. . ... : ... .. . ... : ... .. . ...
ROW 16 : C-5 21 . ... : ... .. . ... : ... .. . ... : ... .. . ... : ... .. . ...
ROW 17 : D#5 21 . ... : ... .. . ... : ... .. . ... : ... .. . ... : ... .. . ...
ROW 18 : G-4 21 . ... : ... .. . ... : ... .. . ... : ... .. . ... : ... .. . ...
ROW 19 : G#4 21 . ... : ... .. . ... : ... .. . ... : ... .. . ... : ... .. . ...
ROW 1A : G-4 21 . ... : ... .. . ... : ... .. . ... : ... .. . ... : ... .. . ...
ROW 1B : G#4 21 . ... : ... .. . ... : ... .. . ... : ... .. . ... : ... .. . ...
ROW 1C : G-4 21 . ... : ... .. . ... : ... .. . ... : ... .. . ... : ... .. . ...
ROW 1D : F-4 21 . ... : ... .. . ... : ... .. . ... : ... .. . ... : ... .. . ...
ROW 1E : D#4 21 . ... : ... .. . ... : ... .. . ... : ... .. . ... : ... .. . ...
ROW 1F : D-4 21 . ... : ... .. . ... : ... .. . ... : ... .. . ... : ... .. . ...

# End of export
